%TF.GenerationSoftware,KiCad,Pcbnew,(5.1.9-0-10_14)*%
%TF.CreationDate,2021-02-12T13:00:48+01:00*%
%TF.ProjectId,teensythumbboard,7465656e-7379-4746-9875-6d62626f6172,1.1*%
%TF.SameCoordinates,PX68290a0PY463f660*%
%TF.FileFunction,Legend,Top*%
%TF.FilePolarity,Positive*%
%FSLAX46Y46*%
G04 Gerber Fmt 4.6, Leading zero omitted, Abs format (unit mm)*
G04 Created by KiCad (PCBNEW (5.1.9-0-10_14)) date 2021-02-12 13:00:48*
%MOMM*%
%LPD*%
G01*
G04 APERTURE LIST*
%ADD10C,0.300000*%
%TA.AperFunction,Profile*%
%ADD11C,0.150000*%
%TD*%
%ADD12C,0.500000*%
%ADD13C,0.150000*%
%ADD14C,0.200000*%
%ADD15C,0.100000*%
%ADD16C,0.120000*%
%ADD17C,0.250000*%
G04 APERTURE END LIST*
D10*
X125663095Y-72697142D02*
X125663095Y-71892380D01*
X126158333Y-72325714D01*
X126158333Y-72140000D01*
X126220238Y-72016190D01*
X126282142Y-71954285D01*
X126405952Y-71892380D01*
X126715476Y-71892380D01*
X126839285Y-71954285D01*
X126901190Y-72016190D01*
X126963095Y-72140000D01*
X126963095Y-72511428D01*
X126901190Y-72635238D01*
X126839285Y-72697142D01*
X125663095Y-71087619D02*
X125663095Y-70963809D01*
X125725000Y-70840000D01*
X125786904Y-70778095D01*
X125910714Y-70716190D01*
X126158333Y-70654285D01*
X126467857Y-70654285D01*
X126715476Y-70716190D01*
X126839285Y-70778095D01*
X126901190Y-70840000D01*
X126963095Y-70963809D01*
X126963095Y-71087619D01*
X126901190Y-71211428D01*
X126839285Y-71273333D01*
X126715476Y-71335238D01*
X126467857Y-71397142D01*
X126158333Y-71397142D01*
X125910714Y-71335238D01*
X125786904Y-71273333D01*
X125725000Y-71211428D01*
X125663095Y-71087619D01*
X126963095Y-70097142D02*
X125663095Y-70097142D01*
X126467857Y-69973333D02*
X126963095Y-69601904D01*
X126096428Y-69601904D02*
X126591666Y-70097142D01*
X126901190Y-68549523D02*
X126963095Y-68673333D01*
X126963095Y-68920952D01*
X126901190Y-69044761D01*
X126777380Y-69106666D01*
X126282142Y-69106666D01*
X126158333Y-69044761D01*
X126096428Y-68920952D01*
X126096428Y-68673333D01*
X126158333Y-68549523D01*
X126282142Y-68487619D01*
X126405952Y-68487619D01*
X126529761Y-69106666D01*
X126096428Y-68054285D02*
X126963095Y-67744761D01*
X126096428Y-67435238D02*
X126963095Y-67744761D01*
X127272619Y-67868571D01*
X127334523Y-67930476D01*
X127396428Y-68054285D01*
X126901190Y-67001904D02*
X126963095Y-66878095D01*
X126963095Y-66630476D01*
X126901190Y-66506666D01*
X126777380Y-66444761D01*
X126715476Y-66444761D01*
X126591666Y-66506666D01*
X126529761Y-66630476D01*
X126529761Y-66816190D01*
X126467857Y-66940000D01*
X126344047Y-67001904D01*
X126282142Y-67001904D01*
X126158333Y-66940000D01*
X126096428Y-66816190D01*
X126096428Y-66630476D01*
X126158333Y-66506666D01*
X90782142Y-49818571D02*
X90782142Y-48318571D01*
X91353571Y-48318571D01*
X91496428Y-48390000D01*
X91567857Y-48461428D01*
X91639285Y-48604285D01*
X91639285Y-48818571D01*
X91567857Y-48961428D01*
X91496428Y-49032857D01*
X91353571Y-49104285D01*
X90782142Y-49104285D01*
X34439285Y-49818571D02*
X33939285Y-49104285D01*
X33582142Y-49818571D02*
X33582142Y-48318571D01*
X34153571Y-48318571D01*
X34296428Y-48390000D01*
X34367857Y-48461428D01*
X34439285Y-48604285D01*
X34439285Y-48818571D01*
X34367857Y-48961428D01*
X34296428Y-49032857D01*
X34153571Y-49104285D01*
X33582142Y-49104285D01*
D11*
X-6825000Y-36540000D02*
X130575000Y-36540000D01*
D12*
X118590000Y-38940000D02*
X119860000Y-38940000D01*
X116050000Y-38940000D02*
X117320000Y-38940000D01*
X113510000Y-41480000D02*
X114780000Y-41480000D01*
X118590000Y-41480000D02*
X119860000Y-41480000D01*
X118590000Y-44020000D02*
X119860000Y-44020000D01*
X116050000Y-44020000D02*
X117320000Y-44020000D01*
X113510000Y-46560000D02*
X114780000Y-46560000D01*
X113510000Y-49100000D02*
X114780000Y-49100000D01*
X113510000Y-51640000D02*
X114780000Y-51640000D01*
X116050000Y-54180000D02*
X117320000Y-54180000D01*
X116050000Y-56720000D02*
X117320000Y-56720000D01*
X116050000Y-59260000D02*
X117320000Y-59260000D01*
X116050000Y-61800000D02*
X117320000Y-61800000D01*
X116050000Y-64340000D02*
X117320000Y-64340000D01*
X116050000Y-66880000D02*
X117320000Y-66880000D01*
X116050000Y-69420000D02*
X117320000Y-69420000D01*
X117955000Y-73865000D02*
X117955000Y-72595000D01*
X115415000Y-73865000D02*
X115415000Y-72595000D01*
X112875000Y-73865000D02*
X112875000Y-72595000D01*
X110335000Y-73865000D02*
X110335000Y-72595000D01*
X107795000Y-73865000D02*
X107795000Y-72595000D01*
X105255000Y-73865000D02*
X105255000Y-72595000D01*
X102715000Y-73865000D02*
X102715000Y-72595000D01*
X103350000Y-69420000D02*
X104620000Y-69420000D01*
X103350000Y-66880000D02*
X104620000Y-66880000D01*
X103350000Y-64340000D02*
X104620000Y-64340000D01*
X103350000Y-61800000D02*
X104620000Y-61800000D01*
X103350000Y-56720000D02*
X104620000Y-56720000D01*
X103350000Y-49100000D02*
X104620000Y-49100000D01*
X103350000Y-46560000D02*
X104620000Y-46560000D01*
X103350000Y-44020000D02*
X104620000Y-44020000D01*
X103350000Y-41480000D02*
X104620000Y-41480000D01*
X100175000Y-38940000D02*
X105255000Y-38940000D01*
D13*
X119225000Y-37670000D02*
X116685000Y-37670000D01*
X101445000Y-37670000D02*
X101445000Y-73230000D01*
X103985000Y-70690000D02*
X103985000Y-37670000D01*
X103985000Y-70690000D02*
X116685000Y-70690000D01*
X119225000Y-73230000D02*
X101445000Y-73230000D01*
X119225000Y-70690000D02*
X119225000Y-73230000D01*
X119225000Y-70690000D02*
X119225000Y-37670000D01*
X116685000Y-37670000D02*
X116685000Y-70690000D01*
X114145000Y-37670000D02*
X114145000Y-40210000D01*
X103985000Y-37670000D02*
X101445000Y-37670000D01*
X106525000Y-40210000D02*
X106525000Y-37670000D01*
D14*
X-498501Y-67914736D02*
X-1205607Y-68621843D01*
X-936233Y-67881064D01*
X-1677012Y-68150438D01*
X-969905Y-67443332D01*
X-1306623Y-67106614D02*
X-2013729Y-67813721D01*
X-1643340Y-66837240D02*
X-1710684Y-66702553D01*
X-1879042Y-66534194D01*
X-1980058Y-66500523D01*
X-2047401Y-66500523D01*
X-2148416Y-66534194D01*
X-2215760Y-66601538D01*
X-2249432Y-66702553D01*
X-2249432Y-66769897D01*
X-2215760Y-66870912D01*
X-2114745Y-67039271D01*
X-2081073Y-67140286D01*
X-2081073Y-67207629D01*
X-2114745Y-67308645D01*
X-2182088Y-67375988D01*
X-2283103Y-67409660D01*
X-2350447Y-67409660D01*
X-2451462Y-67375988D01*
X-2619821Y-67207629D01*
X-2687164Y-67072942D01*
X-3158569Y-66668881D02*
X-3293256Y-66534194D01*
X-3326928Y-66433179D01*
X-3326928Y-66298492D01*
X-3225912Y-66130133D01*
X-2990210Y-65894431D01*
X-2821851Y-65793416D01*
X-2687164Y-65793416D01*
X-2586149Y-65827088D01*
X-2451462Y-65961775D01*
X-2417790Y-66062790D01*
X-2417790Y-66197477D01*
X-2518806Y-66365836D01*
X-2754508Y-66601538D01*
X-2922867Y-66702553D01*
X-3057554Y-66702553D01*
X-3158569Y-66668881D01*
X-498501Y-65374736D02*
X-1205607Y-66081843D01*
X-936233Y-65341064D01*
X-1677012Y-65610438D01*
X-969905Y-64903332D01*
X-2148416Y-65139034D02*
X-2283103Y-65004347D01*
X-2316775Y-64903332D01*
X-2316775Y-64768645D01*
X-2215760Y-64600286D01*
X-1980058Y-64364584D01*
X-1811699Y-64263568D01*
X-1677012Y-64263568D01*
X-1575997Y-64297240D01*
X-1441310Y-64431927D01*
X-1407638Y-64532942D01*
X-1407638Y-64667629D01*
X-1508653Y-64835988D01*
X-1744355Y-65071690D01*
X-1912714Y-65172706D01*
X-2047401Y-65172706D01*
X-2148416Y-65139034D01*
X-2047401Y-63893179D02*
X-2114745Y-63758492D01*
X-2283103Y-63590133D01*
X-2384119Y-63556462D01*
X-2451462Y-63556462D01*
X-2552477Y-63590133D01*
X-2619821Y-63657477D01*
X-2653493Y-63758492D01*
X-2653493Y-63825836D01*
X-2619821Y-63926851D01*
X-2518806Y-64095210D01*
X-2485134Y-64196225D01*
X-2485134Y-64263568D01*
X-2518806Y-64364584D01*
X-2586149Y-64431927D01*
X-2687164Y-64465599D01*
X-2754508Y-64465599D01*
X-2855523Y-64431927D01*
X-3023882Y-64263568D01*
X-3091225Y-64128881D01*
X-2720836Y-63152400D02*
X-3427943Y-63859507D01*
X1117743Y-64450980D02*
X410637Y-65158087D01*
X242278Y-64989728D01*
X174934Y-64855041D01*
X174934Y-64720354D01*
X208606Y-64619339D01*
X309621Y-64450980D01*
X410637Y-64349965D01*
X578995Y-64248950D01*
X680011Y-64215278D01*
X814698Y-64215278D01*
X949385Y-64282621D01*
X1117743Y-64450980D01*
X40247Y-63373484D02*
X444308Y-63777545D01*
X242278Y-63575515D02*
X-464829Y-64282621D01*
X-296470Y-64248950D01*
X-161783Y-64248950D01*
X-60768Y-64282621D01*
X-1104592Y-63642858D02*
X-1171936Y-63575515D01*
X-1205607Y-63474499D01*
X-1205607Y-63407156D01*
X-1171936Y-63306141D01*
X-1070920Y-63137782D01*
X-902562Y-62969423D01*
X-734203Y-62868408D01*
X-633188Y-62834736D01*
X-565844Y-62834736D01*
X-464829Y-62868408D01*
X-397485Y-62935751D01*
X-363814Y-63036767D01*
X-363814Y-63104110D01*
X-397485Y-63205125D01*
X-498501Y-63373484D01*
X-666859Y-63541843D01*
X-835218Y-63642858D01*
X-936233Y-63676530D01*
X-1003577Y-63676530D01*
X-1104592Y-63642858D01*
X-2182088Y-62632706D02*
X-666859Y-62329660D01*
X-2148416Y-61319507D02*
X-2081073Y-61319507D01*
X-1946386Y-61386851D01*
X-1879042Y-61454194D01*
X-1811699Y-61588881D01*
X-1811699Y-61723568D01*
X-1845371Y-61824584D01*
X-1946386Y-61992942D01*
X-2047401Y-62093958D01*
X-2215760Y-62194973D01*
X-2316775Y-62228645D01*
X-2451462Y-62228645D01*
X-2586149Y-62161301D01*
X-2653493Y-62093958D01*
X-2720836Y-61959271D01*
X-2720836Y-61891927D01*
X-2384119Y-61016462D02*
X-2451462Y-60881775D01*
X-2619821Y-60713416D01*
X-2720836Y-60679744D01*
X-2788180Y-60679744D01*
X-2889195Y-60713416D01*
X-2956538Y-60780759D01*
X-2990210Y-60881775D01*
X-2990210Y-60949118D01*
X-2956538Y-61050133D01*
X-2855523Y-61218492D01*
X-2821851Y-61319507D01*
X-2821851Y-61386851D01*
X-2855523Y-61487866D01*
X-2922867Y-61555210D01*
X-3023882Y-61588881D01*
X-3091225Y-61588881D01*
X-3192241Y-61555210D01*
X-3360600Y-61386851D01*
X-3427943Y-61252164D01*
X-969905Y-59890675D02*
X-1037249Y-59755988D01*
X-1205607Y-59587629D01*
X-1306623Y-59553958D01*
X-1373966Y-59553958D01*
X-1474981Y-59587629D01*
X-1542325Y-59654973D01*
X-1575997Y-59755988D01*
X-1575997Y-59823332D01*
X-1542325Y-59924347D01*
X-1441310Y-60092706D01*
X-1407638Y-60193721D01*
X-1407638Y-60261064D01*
X-1441310Y-60362080D01*
X-1508653Y-60429423D01*
X-1609668Y-60463095D01*
X-1677012Y-60463095D01*
X-1778027Y-60429423D01*
X-1946386Y-60261064D01*
X-2013729Y-60126377D01*
X-2114745Y-58813179D02*
X-2047401Y-58813179D01*
X-1912714Y-58880523D01*
X-1845371Y-58947866D01*
X-1778027Y-59082553D01*
X-1778027Y-59217240D01*
X-1811699Y-59318255D01*
X-1912714Y-59486614D01*
X-2013729Y-59587629D01*
X-2182088Y-59688645D01*
X-2283103Y-59722316D01*
X-2417790Y-59722316D01*
X-2552477Y-59654973D01*
X-2619821Y-59587629D01*
X-2687164Y-59452942D01*
X-2687164Y-59385599D01*
X-2350447Y-58442790D02*
X-3057554Y-59149897D01*
X-2754508Y-58038729D02*
X-2855523Y-58745836D01*
X-3461615Y-58745836D02*
X-2653493Y-58745836D01*
X-1070920Y-57249660D02*
X-1138264Y-57114973D01*
X-1306623Y-56946614D01*
X-1407638Y-56912942D01*
X-1474981Y-56912942D01*
X-1575997Y-56946614D01*
X-1643340Y-57013958D01*
X-1677012Y-57114973D01*
X-1677012Y-57182316D01*
X-1643340Y-57283332D01*
X-1542325Y-57451690D01*
X-1508653Y-57552706D01*
X-1508653Y-57620049D01*
X-1542325Y-57721064D01*
X-1609668Y-57788408D01*
X-1710684Y-57822080D01*
X-1778027Y-57822080D01*
X-1879042Y-57788408D01*
X-2047401Y-57620049D01*
X-2114745Y-57485362D01*
X-1744355Y-56508881D02*
X-2451462Y-57215988D01*
X-2619821Y-57047629D01*
X-2687164Y-56912942D01*
X-2687164Y-56778255D01*
X-2653493Y-56677240D01*
X-2552477Y-56508881D01*
X-2451462Y-56407866D01*
X-2283103Y-56306851D01*
X-2182088Y-56273179D01*
X-2047401Y-56273179D01*
X-1912714Y-56340523D01*
X-1744355Y-56508881D01*
X-2619821Y-56037477D02*
X-2956538Y-55700759D01*
X-2350447Y-55902790D02*
X-3293256Y-56374194D01*
X-2821851Y-55431385D01*
X-1104592Y-54675988D02*
X-1171936Y-54541301D01*
X-1340294Y-54372942D01*
X-1441310Y-54339271D01*
X-1508653Y-54339271D01*
X-1609668Y-54372942D01*
X-1677012Y-54440286D01*
X-1710684Y-54541301D01*
X-1710684Y-54608645D01*
X-1677012Y-54709660D01*
X-1575997Y-54878019D01*
X-1542325Y-54979034D01*
X-1542325Y-55046377D01*
X-1575997Y-55147393D01*
X-1643340Y-55214736D01*
X-1744355Y-55248408D01*
X-1811699Y-55248408D01*
X-1912714Y-55214736D01*
X-2081073Y-55046377D01*
X-2148416Y-54911690D01*
X-2249432Y-53598492D02*
X-2182088Y-53598492D01*
X-2047401Y-53665836D01*
X-1980058Y-53733179D01*
X-1912714Y-53867866D01*
X-1912714Y-54002553D01*
X-1946386Y-54103568D01*
X-2047401Y-54271927D01*
X-2148416Y-54372942D01*
X-2316775Y-54473958D01*
X-2417790Y-54507629D01*
X-2552477Y-54507629D01*
X-2687164Y-54440286D01*
X-2754508Y-54372942D01*
X-2821851Y-54238255D01*
X-2821851Y-54170912D01*
X-2821851Y-52891385D02*
X-2485134Y-53228103D01*
X-3192241Y-53935210D01*
X848369Y-54425667D02*
X511652Y-54088950D01*
X1117743Y-54290980D02*
X174934Y-54762385D01*
X646339Y-53819576D01*
X-94440Y-53886919D02*
X-60768Y-53987934D01*
X-60768Y-54055278D01*
X-94440Y-54156293D01*
X-128111Y-54189965D01*
X-229127Y-54223637D01*
X-296470Y-54223637D01*
X-397485Y-54189965D01*
X-532172Y-54055278D01*
X-565844Y-53954263D01*
X-565844Y-53886919D01*
X-532172Y-53785904D01*
X-498501Y-53752232D01*
X-397485Y-53718560D01*
X-330142Y-53718560D01*
X-229127Y-53752232D01*
X-94440Y-53886919D01*
X6576Y-53920591D01*
X73919Y-53920591D01*
X174934Y-53886919D01*
X309621Y-53752232D01*
X343293Y-53651217D01*
X343293Y-53583873D01*
X309621Y-53482858D01*
X174934Y-53348171D01*
X73919Y-53314499D01*
X6576Y-53314499D01*
X-94440Y-53348171D01*
X-229127Y-53482858D01*
X-262798Y-53583873D01*
X-262798Y-53651217D01*
X-229127Y-53752232D01*
X-1508653Y-53146141D02*
X6576Y-52843095D01*
X-1003577Y-52169660D02*
X-1710684Y-52876767D01*
X-1879042Y-52708408D01*
X-1946386Y-52573721D01*
X-1946386Y-52439034D01*
X-1912714Y-52338019D01*
X-1811699Y-52169660D01*
X-1710684Y-52068645D01*
X-1542325Y-51967629D01*
X-1441310Y-51933958D01*
X-1306623Y-51933958D01*
X-1171936Y-52001301D01*
X-1003577Y-52169660D01*
X-2316775Y-52135988D02*
X-2384119Y-52135988D01*
X-2485134Y-52102316D01*
X-2653493Y-51933958D01*
X-2687164Y-51832942D01*
X-2687164Y-51765599D01*
X-2653493Y-51664584D01*
X-2586149Y-51597240D01*
X-2451462Y-51529897D01*
X-1643340Y-51529897D01*
X-2081073Y-51092164D01*
X-2990210Y-51462553D02*
X-3057554Y-51462553D01*
X-3158569Y-51428881D01*
X-3326928Y-51260523D01*
X-3360600Y-51159507D01*
X-3360600Y-51092164D01*
X-3326928Y-50991149D01*
X-3259584Y-50923805D01*
X-3124897Y-50856462D01*
X-2316775Y-50856462D01*
X-2754508Y-50418729D01*
X848369Y-51885667D02*
X511652Y-51548950D01*
X1117743Y-51750980D02*
X174934Y-52222385D01*
X646339Y-51279576D01*
X376965Y-51010202D02*
X242278Y-50875515D01*
X141263Y-50841843D01*
X73919Y-50841843D01*
X-94440Y-50875515D01*
X-262798Y-50976530D01*
X-532172Y-51245904D01*
X-565844Y-51346919D01*
X-565844Y-51414263D01*
X-532172Y-51515278D01*
X-397485Y-51649965D01*
X-296470Y-51683637D01*
X-229127Y-51683637D01*
X-128111Y-51649965D01*
X40247Y-51481606D01*
X73919Y-51380591D01*
X73919Y-51313247D01*
X40247Y-51212232D01*
X-94440Y-51077545D01*
X-195455Y-51043873D01*
X-262798Y-51043873D01*
X-363814Y-51077545D01*
X-1508653Y-50606141D02*
X6576Y-50303095D01*
X-1003577Y-49629660D02*
X-1710684Y-50336767D01*
X-1879042Y-50168408D01*
X-1946386Y-50033721D01*
X-1946386Y-49899034D01*
X-1912714Y-49798019D01*
X-1811699Y-49629660D01*
X-1710684Y-49528645D01*
X-1542325Y-49427629D01*
X-1441310Y-49393958D01*
X-1306623Y-49393958D01*
X-1171936Y-49461301D01*
X-1003577Y-49629660D01*
X-2316775Y-49595988D02*
X-2384119Y-49595988D01*
X-2485134Y-49562316D01*
X-2653493Y-49393958D01*
X-2687164Y-49292942D01*
X-2687164Y-49225599D01*
X-2653493Y-49124584D01*
X-2586149Y-49057240D01*
X-2451462Y-48989897D01*
X-1643340Y-48989897D01*
X-2081073Y-48552164D01*
X-3023882Y-49023568D02*
X-3461615Y-48585836D01*
X-2956538Y-48552164D01*
X-3057554Y-48451149D01*
X-3091225Y-48350133D01*
X-3091225Y-48282790D01*
X-3057554Y-48181775D01*
X-2889195Y-48013416D01*
X-2788180Y-47979744D01*
X-2720836Y-47979744D01*
X-2619821Y-48013416D01*
X-2417790Y-48215446D01*
X-2384119Y-48316462D01*
X-2384119Y-48383805D01*
D15*
X120534714Y-69048571D02*
X120506142Y-69020000D01*
X120477571Y-68934285D01*
X120477571Y-68877142D01*
X120506142Y-68791428D01*
X120563285Y-68734285D01*
X120620428Y-68705714D01*
X120734714Y-68677142D01*
X120820428Y-68677142D01*
X120934714Y-68705714D01*
X120991857Y-68734285D01*
X121049000Y-68791428D01*
X121077571Y-68877142D01*
X121077571Y-68934285D01*
X121049000Y-69020000D01*
X121020428Y-69048571D01*
X121077571Y-69420000D02*
X121077571Y-69534285D01*
X121049000Y-69591428D01*
X120991857Y-69648571D01*
X120877571Y-69677142D01*
X120677571Y-69677142D01*
X120563285Y-69648571D01*
X120506142Y-69591428D01*
X120477571Y-69534285D01*
X120477571Y-69420000D01*
X120506142Y-69362857D01*
X120563285Y-69305714D01*
X120677571Y-69277142D01*
X120877571Y-69277142D01*
X120991857Y-69305714D01*
X121049000Y-69362857D01*
X121077571Y-69420000D01*
X120477571Y-70220000D02*
X120477571Y-69934285D01*
X121077571Y-69934285D01*
X120534714Y-66381571D02*
X120506142Y-66353000D01*
X120477571Y-66267285D01*
X120477571Y-66210142D01*
X120506142Y-66124428D01*
X120563285Y-66067285D01*
X120620428Y-66038714D01*
X120734714Y-66010142D01*
X120820428Y-66010142D01*
X120934714Y-66038714D01*
X120991857Y-66067285D01*
X121049000Y-66124428D01*
X121077571Y-66210142D01*
X121077571Y-66267285D01*
X121049000Y-66353000D01*
X121020428Y-66381571D01*
X121077571Y-66753000D02*
X121077571Y-66867285D01*
X121049000Y-66924428D01*
X120991857Y-66981571D01*
X120877571Y-67010142D01*
X120677571Y-67010142D01*
X120563285Y-66981571D01*
X120506142Y-66924428D01*
X120477571Y-66867285D01*
X120477571Y-66753000D01*
X120506142Y-66695857D01*
X120563285Y-66638714D01*
X120677571Y-66610142D01*
X120877571Y-66610142D01*
X120991857Y-66638714D01*
X121049000Y-66695857D01*
X121077571Y-66753000D01*
X120477571Y-67553000D02*
X120477571Y-67267285D01*
X121077571Y-67267285D01*
X120534714Y-63841571D02*
X120506142Y-63813000D01*
X120477571Y-63727285D01*
X120477571Y-63670142D01*
X120506142Y-63584428D01*
X120563285Y-63527285D01*
X120620428Y-63498714D01*
X120734714Y-63470142D01*
X120820428Y-63470142D01*
X120934714Y-63498714D01*
X120991857Y-63527285D01*
X121049000Y-63584428D01*
X121077571Y-63670142D01*
X121077571Y-63727285D01*
X121049000Y-63813000D01*
X121020428Y-63841571D01*
X121077571Y-64213000D02*
X121077571Y-64327285D01*
X121049000Y-64384428D01*
X120991857Y-64441571D01*
X120877571Y-64470142D01*
X120677571Y-64470142D01*
X120563285Y-64441571D01*
X120506142Y-64384428D01*
X120477571Y-64327285D01*
X120477571Y-64213000D01*
X120506142Y-64155857D01*
X120563285Y-64098714D01*
X120677571Y-64070142D01*
X120877571Y-64070142D01*
X120991857Y-64098714D01*
X121049000Y-64155857D01*
X121077571Y-64213000D01*
X120477571Y-65013000D02*
X120477571Y-64727285D01*
X121077571Y-64727285D01*
X120534714Y-61428571D02*
X120506142Y-61400000D01*
X120477571Y-61314285D01*
X120477571Y-61257142D01*
X120506142Y-61171428D01*
X120563285Y-61114285D01*
X120620428Y-61085714D01*
X120734714Y-61057142D01*
X120820428Y-61057142D01*
X120934714Y-61085714D01*
X120991857Y-61114285D01*
X121049000Y-61171428D01*
X121077571Y-61257142D01*
X121077571Y-61314285D01*
X121049000Y-61400000D01*
X121020428Y-61428571D01*
X121077571Y-61800000D02*
X121077571Y-61914285D01*
X121049000Y-61971428D01*
X120991857Y-62028571D01*
X120877571Y-62057142D01*
X120677571Y-62057142D01*
X120563285Y-62028571D01*
X120506142Y-61971428D01*
X120477571Y-61914285D01*
X120477571Y-61800000D01*
X120506142Y-61742857D01*
X120563285Y-61685714D01*
X120677571Y-61657142D01*
X120877571Y-61657142D01*
X120991857Y-61685714D01*
X121049000Y-61742857D01*
X121077571Y-61800000D01*
X120477571Y-62600000D02*
X120477571Y-62314285D01*
X121077571Y-62314285D01*
X120534714Y-53808571D02*
X120506142Y-53780000D01*
X120477571Y-53694285D01*
X120477571Y-53637142D01*
X120506142Y-53551428D01*
X120563285Y-53494285D01*
X120620428Y-53465714D01*
X120734714Y-53437142D01*
X120820428Y-53437142D01*
X120934714Y-53465714D01*
X120991857Y-53494285D01*
X121049000Y-53551428D01*
X121077571Y-53637142D01*
X121077571Y-53694285D01*
X121049000Y-53780000D01*
X121020428Y-53808571D01*
X121077571Y-54180000D02*
X121077571Y-54294285D01*
X121049000Y-54351428D01*
X120991857Y-54408571D01*
X120877571Y-54437142D01*
X120677571Y-54437142D01*
X120563285Y-54408571D01*
X120506142Y-54351428D01*
X120477571Y-54294285D01*
X120477571Y-54180000D01*
X120506142Y-54122857D01*
X120563285Y-54065714D01*
X120677571Y-54037142D01*
X120877571Y-54037142D01*
X120991857Y-54065714D01*
X121049000Y-54122857D01*
X121077571Y-54180000D01*
X120477571Y-54980000D02*
X120477571Y-54694285D01*
X121077571Y-54694285D01*
X120534714Y-51268571D02*
X120506142Y-51240000D01*
X120477571Y-51154285D01*
X120477571Y-51097142D01*
X120506142Y-51011428D01*
X120563285Y-50954285D01*
X120620428Y-50925714D01*
X120734714Y-50897142D01*
X120820428Y-50897142D01*
X120934714Y-50925714D01*
X120991857Y-50954285D01*
X121049000Y-51011428D01*
X121077571Y-51097142D01*
X121077571Y-51154285D01*
X121049000Y-51240000D01*
X121020428Y-51268571D01*
X121077571Y-51640000D02*
X121077571Y-51754285D01*
X121049000Y-51811428D01*
X120991857Y-51868571D01*
X120877571Y-51897142D01*
X120677571Y-51897142D01*
X120563285Y-51868571D01*
X120506142Y-51811428D01*
X120477571Y-51754285D01*
X120477571Y-51640000D01*
X120506142Y-51582857D01*
X120563285Y-51525714D01*
X120677571Y-51497142D01*
X120877571Y-51497142D01*
X120991857Y-51525714D01*
X121049000Y-51582857D01*
X121077571Y-51640000D01*
X120477571Y-52440000D02*
X120477571Y-52154285D01*
X121077571Y-52154285D01*
X100135285Y-41851428D02*
X100163857Y-41880000D01*
X100192428Y-41965714D01*
X100192428Y-42022857D01*
X100163857Y-42108571D01*
X100106714Y-42165714D01*
X100049571Y-42194285D01*
X99935285Y-42222857D01*
X99849571Y-42222857D01*
X99735285Y-42194285D01*
X99678142Y-42165714D01*
X99621000Y-42108571D01*
X99592428Y-42022857D01*
X99592428Y-41965714D01*
X99621000Y-41880000D01*
X99649571Y-41851428D01*
X99592428Y-41480000D02*
X99592428Y-41365714D01*
X99621000Y-41308571D01*
X99678142Y-41251428D01*
X99792428Y-41222857D01*
X99992428Y-41222857D01*
X100106714Y-41251428D01*
X100163857Y-41308571D01*
X100192428Y-41365714D01*
X100192428Y-41480000D01*
X100163857Y-41537142D01*
X100106714Y-41594285D01*
X99992428Y-41622857D01*
X99792428Y-41622857D01*
X99678142Y-41594285D01*
X99621000Y-41537142D01*
X99592428Y-41480000D01*
X100192428Y-40680000D02*
X100192428Y-40965714D01*
X99592428Y-40965714D01*
X100135285Y-44391428D02*
X100163857Y-44420000D01*
X100192428Y-44505714D01*
X100192428Y-44562857D01*
X100163857Y-44648571D01*
X100106714Y-44705714D01*
X100049571Y-44734285D01*
X99935285Y-44762857D01*
X99849571Y-44762857D01*
X99735285Y-44734285D01*
X99678142Y-44705714D01*
X99621000Y-44648571D01*
X99592428Y-44562857D01*
X99592428Y-44505714D01*
X99621000Y-44420000D01*
X99649571Y-44391428D01*
X99592428Y-44020000D02*
X99592428Y-43905714D01*
X99621000Y-43848571D01*
X99678142Y-43791428D01*
X99792428Y-43762857D01*
X99992428Y-43762857D01*
X100106714Y-43791428D01*
X100163857Y-43848571D01*
X100192428Y-43905714D01*
X100192428Y-44020000D01*
X100163857Y-44077142D01*
X100106714Y-44134285D01*
X99992428Y-44162857D01*
X99792428Y-44162857D01*
X99678142Y-44134285D01*
X99621000Y-44077142D01*
X99592428Y-44020000D01*
X100192428Y-43220000D02*
X100192428Y-43505714D01*
X99592428Y-43505714D01*
X100135285Y-46931428D02*
X100163857Y-46960000D01*
X100192428Y-47045714D01*
X100192428Y-47102857D01*
X100163857Y-47188571D01*
X100106714Y-47245714D01*
X100049571Y-47274285D01*
X99935285Y-47302857D01*
X99849571Y-47302857D01*
X99735285Y-47274285D01*
X99678142Y-47245714D01*
X99621000Y-47188571D01*
X99592428Y-47102857D01*
X99592428Y-47045714D01*
X99621000Y-46960000D01*
X99649571Y-46931428D01*
X99592428Y-46560000D02*
X99592428Y-46445714D01*
X99621000Y-46388571D01*
X99678142Y-46331428D01*
X99792428Y-46302857D01*
X99992428Y-46302857D01*
X100106714Y-46331428D01*
X100163857Y-46388571D01*
X100192428Y-46445714D01*
X100192428Y-46560000D01*
X100163857Y-46617142D01*
X100106714Y-46674285D01*
X99992428Y-46702857D01*
X99792428Y-46702857D01*
X99678142Y-46674285D01*
X99621000Y-46617142D01*
X99592428Y-46560000D01*
X100192428Y-45760000D02*
X100192428Y-46045714D01*
X99592428Y-46045714D01*
X100135285Y-49471428D02*
X100163857Y-49500000D01*
X100192428Y-49585714D01*
X100192428Y-49642857D01*
X100163857Y-49728571D01*
X100106714Y-49785714D01*
X100049571Y-49814285D01*
X99935285Y-49842857D01*
X99849571Y-49842857D01*
X99735285Y-49814285D01*
X99678142Y-49785714D01*
X99621000Y-49728571D01*
X99592428Y-49642857D01*
X99592428Y-49585714D01*
X99621000Y-49500000D01*
X99649571Y-49471428D01*
X99592428Y-49100000D02*
X99592428Y-48985714D01*
X99621000Y-48928571D01*
X99678142Y-48871428D01*
X99792428Y-48842857D01*
X99992428Y-48842857D01*
X100106714Y-48871428D01*
X100163857Y-48928571D01*
X100192428Y-48985714D01*
X100192428Y-49100000D01*
X100163857Y-49157142D01*
X100106714Y-49214285D01*
X99992428Y-49242857D01*
X99792428Y-49242857D01*
X99678142Y-49214285D01*
X99621000Y-49157142D01*
X99592428Y-49100000D01*
X100192428Y-48300000D02*
X100192428Y-48585714D01*
X99592428Y-48585714D01*
D16*
X100192428Y-64811428D02*
X99906714Y-65011428D01*
X100192428Y-65154285D02*
X99592428Y-65154285D01*
X99592428Y-64925714D01*
X99621000Y-64868571D01*
X99649571Y-64840000D01*
X99706714Y-64811428D01*
X99792428Y-64811428D01*
X99849571Y-64840000D01*
X99878142Y-64868571D01*
X99906714Y-64925714D01*
X99906714Y-65154285D01*
X99592428Y-64440000D02*
X99592428Y-64325714D01*
X99621000Y-64268571D01*
X99678142Y-64211428D01*
X99792428Y-64182857D01*
X99992428Y-64182857D01*
X100106714Y-64211428D01*
X100163857Y-64268571D01*
X100192428Y-64325714D01*
X100192428Y-64440000D01*
X100163857Y-64497142D01*
X100106714Y-64554285D01*
X99992428Y-64582857D01*
X99792428Y-64582857D01*
X99678142Y-64554285D01*
X99621000Y-64497142D01*
X99592428Y-64440000D01*
X99592428Y-63982857D02*
X100192428Y-63840000D01*
X99763857Y-63725714D01*
X100192428Y-63611428D01*
X99592428Y-63468571D01*
D15*
X100192428Y-62271428D02*
X99906714Y-62471428D01*
X100192428Y-62614285D02*
X99592428Y-62614285D01*
X99592428Y-62385714D01*
X99621000Y-62328571D01*
X99649571Y-62300000D01*
X99706714Y-62271428D01*
X99792428Y-62271428D01*
X99849571Y-62300000D01*
X99878142Y-62328571D01*
X99906714Y-62385714D01*
X99906714Y-62614285D01*
X99592428Y-61900000D02*
X99592428Y-61785714D01*
X99621000Y-61728571D01*
X99678142Y-61671428D01*
X99792428Y-61642857D01*
X99992428Y-61642857D01*
X100106714Y-61671428D01*
X100163857Y-61728571D01*
X100192428Y-61785714D01*
X100192428Y-61900000D01*
X100163857Y-61957142D01*
X100106714Y-62014285D01*
X99992428Y-62042857D01*
X99792428Y-62042857D01*
X99678142Y-62014285D01*
X99621000Y-61957142D01*
X99592428Y-61900000D01*
X99592428Y-61442857D02*
X100192428Y-61300000D01*
X99763857Y-61185714D01*
X100192428Y-61071428D01*
X99592428Y-60928571D01*
X100192428Y-59731428D02*
X99906714Y-59931428D01*
X100192428Y-60074285D02*
X99592428Y-60074285D01*
X99592428Y-59845714D01*
X99621000Y-59788571D01*
X99649571Y-59760000D01*
X99706714Y-59731428D01*
X99792428Y-59731428D01*
X99849571Y-59760000D01*
X99878142Y-59788571D01*
X99906714Y-59845714D01*
X99906714Y-60074285D01*
X99592428Y-59360000D02*
X99592428Y-59245714D01*
X99621000Y-59188571D01*
X99678142Y-59131428D01*
X99792428Y-59102857D01*
X99992428Y-59102857D01*
X100106714Y-59131428D01*
X100163857Y-59188571D01*
X100192428Y-59245714D01*
X100192428Y-59360000D01*
X100163857Y-59417142D01*
X100106714Y-59474285D01*
X99992428Y-59502857D01*
X99792428Y-59502857D01*
X99678142Y-59474285D01*
X99621000Y-59417142D01*
X99592428Y-59360000D01*
X99592428Y-58902857D02*
X100192428Y-58760000D01*
X99763857Y-58645714D01*
X100192428Y-58531428D01*
X99592428Y-58388571D01*
X100192428Y-57191428D02*
X99906714Y-57391428D01*
X100192428Y-57534285D02*
X99592428Y-57534285D01*
X99592428Y-57305714D01*
X99621000Y-57248571D01*
X99649571Y-57220000D01*
X99706714Y-57191428D01*
X99792428Y-57191428D01*
X99849571Y-57220000D01*
X99878142Y-57248571D01*
X99906714Y-57305714D01*
X99906714Y-57534285D01*
X99592428Y-56820000D02*
X99592428Y-56705714D01*
X99621000Y-56648571D01*
X99678142Y-56591428D01*
X99792428Y-56562857D01*
X99992428Y-56562857D01*
X100106714Y-56591428D01*
X100163857Y-56648571D01*
X100192428Y-56705714D01*
X100192428Y-56820000D01*
X100163857Y-56877142D01*
X100106714Y-56934285D01*
X99992428Y-56962857D01*
X99792428Y-56962857D01*
X99678142Y-56934285D01*
X99621000Y-56877142D01*
X99592428Y-56820000D01*
X99592428Y-56362857D02*
X100192428Y-56220000D01*
X99763857Y-56105714D01*
X100192428Y-55991428D01*
X99592428Y-55848571D01*
X100192428Y-54651428D02*
X99906714Y-54851428D01*
X100192428Y-54994285D02*
X99592428Y-54994285D01*
X99592428Y-54765714D01*
X99621000Y-54708571D01*
X99649571Y-54680000D01*
X99706714Y-54651428D01*
X99792428Y-54651428D01*
X99849571Y-54680000D01*
X99878142Y-54708571D01*
X99906714Y-54765714D01*
X99906714Y-54994285D01*
X99592428Y-54280000D02*
X99592428Y-54165714D01*
X99621000Y-54108571D01*
X99678142Y-54051428D01*
X99792428Y-54022857D01*
X99992428Y-54022857D01*
X100106714Y-54051428D01*
X100163857Y-54108571D01*
X100192428Y-54165714D01*
X100192428Y-54280000D01*
X100163857Y-54337142D01*
X100106714Y-54394285D01*
X99992428Y-54422857D01*
X99792428Y-54422857D01*
X99678142Y-54394285D01*
X99621000Y-54337142D01*
X99592428Y-54280000D01*
X99592428Y-53822857D02*
X100192428Y-53680000D01*
X99763857Y-53565714D01*
X100192428Y-53451428D01*
X99592428Y-53308571D01*
X100192428Y-52111428D02*
X99906714Y-52311428D01*
X100192428Y-52454285D02*
X99592428Y-52454285D01*
X99592428Y-52225714D01*
X99621000Y-52168571D01*
X99649571Y-52140000D01*
X99706714Y-52111428D01*
X99792428Y-52111428D01*
X99849571Y-52140000D01*
X99878142Y-52168571D01*
X99906714Y-52225714D01*
X99906714Y-52454285D01*
X99592428Y-51740000D02*
X99592428Y-51625714D01*
X99621000Y-51568571D01*
X99678142Y-51511428D01*
X99792428Y-51482857D01*
X99992428Y-51482857D01*
X100106714Y-51511428D01*
X100163857Y-51568571D01*
X100192428Y-51625714D01*
X100192428Y-51740000D01*
X100163857Y-51797142D01*
X100106714Y-51854285D01*
X99992428Y-51882857D01*
X99792428Y-51882857D01*
X99678142Y-51854285D01*
X99621000Y-51797142D01*
X99592428Y-51740000D01*
X99592428Y-51282857D02*
X100192428Y-51140000D01*
X99763857Y-51025714D01*
X100192428Y-50911428D01*
X99592428Y-50768571D01*
D14*
X101048095Y-63792380D02*
X100571904Y-63792380D01*
X100524285Y-64268571D01*
X100571904Y-64220952D01*
X100667142Y-64173333D01*
X100905238Y-64173333D01*
X101000476Y-64220952D01*
X101048095Y-64268571D01*
X101095714Y-64363809D01*
X101095714Y-64601904D01*
X101048095Y-64697142D01*
X101000476Y-64744761D01*
X100905238Y-64792380D01*
X100667142Y-64792380D01*
X100571904Y-64744761D01*
X100524285Y-64697142D01*
X100476666Y-61252380D02*
X101095714Y-61252380D01*
X100762380Y-61633333D01*
X100905238Y-61633333D01*
X101000476Y-61680952D01*
X101048095Y-61728571D01*
X101095714Y-61823809D01*
X101095714Y-62061904D01*
X101048095Y-62157142D01*
X101000476Y-62204761D01*
X100905238Y-62252380D01*
X100619523Y-62252380D01*
X100524285Y-62204761D01*
X100476666Y-62157142D01*
X100524285Y-58807619D02*
X100571904Y-58760000D01*
X100667142Y-58712380D01*
X100905238Y-58712380D01*
X101000476Y-58760000D01*
X101048095Y-58807619D01*
X101095714Y-58902857D01*
X101095714Y-58998095D01*
X101048095Y-59140952D01*
X100476666Y-59712380D01*
X101095714Y-59712380D01*
X101000476Y-56505714D02*
X101000476Y-57172380D01*
X100762380Y-56124761D02*
X100524285Y-56839047D01*
X101143333Y-56839047D01*
X101095714Y-54632380D02*
X100524285Y-54632380D01*
X100810000Y-54632380D02*
X100810000Y-53632380D01*
X100714761Y-53775238D01*
X100619523Y-53870476D01*
X100524285Y-53918095D01*
X100762380Y-51092380D02*
X100857619Y-51092380D01*
X100952857Y-51140000D01*
X101000476Y-51187619D01*
X101048095Y-51282857D01*
X101095714Y-51473333D01*
X101095714Y-51711428D01*
X101048095Y-51901904D01*
X101000476Y-51997142D01*
X100952857Y-52044761D01*
X100857619Y-52092380D01*
X100762380Y-52092380D01*
X100667142Y-52044761D01*
X100619523Y-51997142D01*
X100571904Y-51901904D01*
X100524285Y-51711428D01*
X100524285Y-51473333D01*
X100571904Y-51282857D01*
X100619523Y-51187619D01*
X100667142Y-51140000D01*
X100762380Y-51092380D01*
X100476666Y-48552380D02*
X101095714Y-48552380D01*
X100762380Y-48933333D01*
X100905238Y-48933333D01*
X101000476Y-48980952D01*
X101048095Y-49028571D01*
X101095714Y-49123809D01*
X101095714Y-49361904D01*
X101048095Y-49457142D01*
X101000476Y-49504761D01*
X100905238Y-49552380D01*
X100619523Y-49552380D01*
X100524285Y-49504761D01*
X100476666Y-49457142D01*
X100524285Y-46107619D02*
X100571904Y-46060000D01*
X100667142Y-46012380D01*
X100905238Y-46012380D01*
X101000476Y-46060000D01*
X101048095Y-46107619D01*
X101095714Y-46202857D01*
X101095714Y-46298095D01*
X101048095Y-46440952D01*
X100476666Y-47012380D01*
X101095714Y-47012380D01*
X101095714Y-44472380D02*
X100524285Y-44472380D01*
X100810000Y-44472380D02*
X100810000Y-43472380D01*
X100714761Y-43615238D01*
X100619523Y-43710476D01*
X100524285Y-43758095D01*
X100762380Y-40932380D02*
X100857619Y-40932380D01*
X100952857Y-40980000D01*
X101000476Y-41027619D01*
X101048095Y-41122857D01*
X101095714Y-41313333D01*
X101095714Y-41551428D01*
X101048095Y-41741904D01*
X101000476Y-41837142D01*
X100952857Y-41884761D01*
X100857619Y-41932380D01*
X100762380Y-41932380D01*
X100667142Y-41884761D01*
X100619523Y-41837142D01*
X100571904Y-41741904D01*
X100524285Y-41551428D01*
X100524285Y-41313333D01*
X100571904Y-41122857D01*
X100619523Y-41027619D01*
X100667142Y-40980000D01*
X100762380Y-40932380D01*
X119669523Y-52092380D02*
X119860000Y-52092380D01*
X119955238Y-52044761D01*
X120002857Y-51997142D01*
X120098095Y-51854285D01*
X120145714Y-51663809D01*
X120145714Y-51282857D01*
X120098095Y-51187619D01*
X120050476Y-51140000D01*
X119955238Y-51092380D01*
X119764761Y-51092380D01*
X119669523Y-51140000D01*
X119621904Y-51187619D01*
X119574285Y-51282857D01*
X119574285Y-51520952D01*
X119621904Y-51616190D01*
X119669523Y-51663809D01*
X119764761Y-51711428D01*
X119955238Y-51711428D01*
X120050476Y-51663809D01*
X120098095Y-51616190D01*
X120145714Y-51520952D01*
X119764761Y-54060952D02*
X119669523Y-54013333D01*
X119621904Y-53965714D01*
X119574285Y-53870476D01*
X119574285Y-53822857D01*
X119621904Y-53727619D01*
X119669523Y-53680000D01*
X119764761Y-53632380D01*
X119955238Y-53632380D01*
X120050476Y-53680000D01*
X120098095Y-53727619D01*
X120145714Y-53822857D01*
X120145714Y-53870476D01*
X120098095Y-53965714D01*
X120050476Y-54013333D01*
X119955238Y-54060952D01*
X119764761Y-54060952D01*
X119669523Y-54108571D01*
X119621904Y-54156190D01*
X119574285Y-54251428D01*
X119574285Y-54441904D01*
X119621904Y-54537142D01*
X119669523Y-54584761D01*
X119764761Y-54632380D01*
X119955238Y-54632380D01*
X120050476Y-54584761D01*
X120098095Y-54537142D01*
X120145714Y-54441904D01*
X120145714Y-54251428D01*
X120098095Y-54156190D01*
X120050476Y-54108571D01*
X119955238Y-54060952D01*
X120050476Y-61252380D02*
X119860000Y-61252380D01*
X119764761Y-61300000D01*
X119717142Y-61347619D01*
X119621904Y-61490476D01*
X119574285Y-61680952D01*
X119574285Y-62061904D01*
X119621904Y-62157142D01*
X119669523Y-62204761D01*
X119764761Y-62252380D01*
X119955238Y-62252380D01*
X120050476Y-62204761D01*
X120098095Y-62157142D01*
X120145714Y-62061904D01*
X120145714Y-61823809D01*
X120098095Y-61728571D01*
X120050476Y-61680952D01*
X119955238Y-61633333D01*
X119764761Y-61633333D01*
X119669523Y-61680952D01*
X119621904Y-61728571D01*
X119574285Y-61823809D01*
X119526666Y-63792380D02*
X120193333Y-63792380D01*
X119764761Y-64792380D01*
X120050476Y-66665714D02*
X120050476Y-67332380D01*
X119812380Y-66284761D02*
X119574285Y-66999047D01*
X120193333Y-66999047D01*
X120098095Y-68872380D02*
X119621904Y-68872380D01*
X119574285Y-69348571D01*
X119621904Y-69300952D01*
X119717142Y-69253333D01*
X119955238Y-69253333D01*
X120050476Y-69300952D01*
X120098095Y-69348571D01*
X120145714Y-69443809D01*
X120145714Y-69681904D01*
X120098095Y-69777142D01*
X120050476Y-69824761D01*
X119955238Y-69872380D01*
X119717142Y-69872380D01*
X119621904Y-69824761D01*
X119574285Y-69777142D01*
X79268750Y-69290000D02*
X86412500Y-69290000D01*
X74506250Y-69290000D02*
X67362500Y-69290000D01*
X67362500Y-79450000D02*
X67362500Y-69290000D01*
X86412500Y-79450000D02*
X67362500Y-79450000D01*
X86412500Y-69290000D02*
X86412500Y-79450000D01*
D17*
X74911309Y-69694761D02*
X75006547Y-69742380D01*
X75197023Y-69742380D01*
X75292261Y-69694761D01*
X75339880Y-69599523D01*
X75339880Y-69551904D01*
X75292261Y-69456666D01*
X75197023Y-69409047D01*
X75054166Y-69409047D01*
X74958928Y-69361428D01*
X74911309Y-69266190D01*
X74911309Y-69218571D01*
X74958928Y-69123333D01*
X75054166Y-69075714D01*
X75197023Y-69075714D01*
X75292261Y-69123333D01*
X75768452Y-69075714D02*
X75768452Y-70075714D01*
X75768452Y-69123333D02*
X75863690Y-69075714D01*
X76054166Y-69075714D01*
X76149404Y-69123333D01*
X76197023Y-69170952D01*
X76244642Y-69266190D01*
X76244642Y-69551904D01*
X76197023Y-69647142D01*
X76149404Y-69694761D01*
X76054166Y-69742380D01*
X75863690Y-69742380D01*
X75768452Y-69694761D01*
X77101785Y-69742380D02*
X77101785Y-69218571D01*
X77054166Y-69123333D01*
X76958928Y-69075714D01*
X76768452Y-69075714D01*
X76673214Y-69123333D01*
X77101785Y-69694761D02*
X77006547Y-69742380D01*
X76768452Y-69742380D01*
X76673214Y-69694761D01*
X76625595Y-69599523D01*
X76625595Y-69504285D01*
X76673214Y-69409047D01*
X76768452Y-69361428D01*
X77006547Y-69361428D01*
X77101785Y-69313809D01*
X78006547Y-69694761D02*
X77911309Y-69742380D01*
X77720833Y-69742380D01*
X77625595Y-69694761D01*
X77577976Y-69647142D01*
X77530357Y-69551904D01*
X77530357Y-69266190D01*
X77577976Y-69170952D01*
X77625595Y-69123333D01*
X77720833Y-69075714D01*
X77911309Y-69075714D01*
X78006547Y-69123333D01*
X78816071Y-69694761D02*
X78720833Y-69742380D01*
X78530357Y-69742380D01*
X78435119Y-69694761D01*
X78387500Y-69599523D01*
X78387500Y-69218571D01*
X78435119Y-69123333D01*
X78530357Y-69075714D01*
X78720833Y-69075714D01*
X78816071Y-69123333D01*
X78863690Y-69218571D01*
X78863690Y-69313809D01*
X78387500Y-69409047D01*
X90745238Y-69772380D02*
X90411904Y-69296190D01*
X90173809Y-69772380D02*
X90173809Y-68772380D01*
X90554761Y-68772380D01*
X90650000Y-68820000D01*
X90697619Y-68867619D01*
X90745238Y-68962857D01*
X90745238Y-69105714D01*
X90697619Y-69200952D01*
X90650000Y-69248571D01*
X90554761Y-69296190D01*
X90173809Y-69296190D01*
X91554761Y-69724761D02*
X91459523Y-69772380D01*
X91269047Y-69772380D01*
X91173809Y-69724761D01*
X91126190Y-69629523D01*
X91126190Y-69248571D01*
X91173809Y-69153333D01*
X91269047Y-69105714D01*
X91459523Y-69105714D01*
X91554761Y-69153333D01*
X91602380Y-69248571D01*
X91602380Y-69343809D01*
X91126190Y-69439047D01*
X91888095Y-69105714D02*
X92269047Y-69105714D01*
X92030952Y-68772380D02*
X92030952Y-69629523D01*
X92078571Y-69724761D01*
X92173809Y-69772380D01*
X92269047Y-69772380D01*
D14*
X90515000Y-59795000D02*
X92293000Y-59795000D01*
X92293000Y-59795000D02*
X92293000Y-58271000D01*
X89753000Y-59033000D02*
X90515000Y-59795000D01*
X90515000Y-58271000D02*
X89753000Y-59033000D01*
X92293000Y-58271000D02*
X90515000Y-58271000D01*
X90896000Y-59414000D02*
X91658000Y-58652000D01*
X90896000Y-58652000D02*
X91658000Y-59414000D01*
D10*
X62075000Y-70018571D02*
X62075000Y-68518571D01*
X62575000Y-69590000D01*
X63075000Y-68518571D01*
X63075000Y-70018571D01*
X52746428Y-70018571D02*
X52746428Y-68518571D01*
X53603571Y-70018571D01*
X53603571Y-68518571D01*
X43482142Y-69232857D02*
X43696428Y-69304285D01*
X43767857Y-69375714D01*
X43839285Y-69518571D01*
X43839285Y-69732857D01*
X43767857Y-69875714D01*
X43696428Y-69947142D01*
X43553571Y-70018571D01*
X42982142Y-70018571D01*
X42982142Y-68518571D01*
X43482142Y-68518571D01*
X43625000Y-68590000D01*
X43696428Y-68661428D01*
X43767857Y-68804285D01*
X43767857Y-68947142D01*
X43696428Y-69090000D01*
X43625000Y-69161428D01*
X43482142Y-69232857D01*
X42982142Y-69232857D01*
X33475000Y-68718571D02*
X33975000Y-70218571D01*
X34475000Y-68718571D01*
X24839285Y-70075714D02*
X24767857Y-70147142D01*
X24553571Y-70218571D01*
X24410714Y-70218571D01*
X24196428Y-70147142D01*
X24053571Y-70004285D01*
X23982142Y-69861428D01*
X23910714Y-69575714D01*
X23910714Y-69361428D01*
X23982142Y-69075714D01*
X24053571Y-68932857D01*
X24196428Y-68790000D01*
X24410714Y-68718571D01*
X24553571Y-68718571D01*
X24767857Y-68790000D01*
X24839285Y-68861428D01*
X14475000Y-68718571D02*
X15475000Y-70218571D01*
X15475000Y-68718571D02*
X14475000Y-70218571D01*
X4875000Y-68718571D02*
X5875000Y-68718571D01*
X4875000Y-70218571D01*
X5875000Y-70218571D01*
X81632142Y-48318571D02*
X81917857Y-48318571D01*
X82060714Y-48390000D01*
X82203571Y-48532857D01*
X82275000Y-48818571D01*
X82275000Y-49318571D01*
X82203571Y-49604285D01*
X82060714Y-49747142D01*
X81917857Y-49818571D01*
X81632142Y-49818571D01*
X81489285Y-49747142D01*
X81346428Y-49604285D01*
X81275000Y-49318571D01*
X81275000Y-48818571D01*
X81346428Y-48532857D01*
X81489285Y-48390000D01*
X81632142Y-48318571D01*
X72175000Y-49818571D02*
X72175000Y-48318571D01*
X62346428Y-48518571D02*
X62346428Y-49732857D01*
X62417857Y-49875714D01*
X62489285Y-49947142D01*
X62632142Y-50018571D01*
X62917857Y-50018571D01*
X63060714Y-49947142D01*
X63132142Y-49875714D01*
X63203571Y-49732857D01*
X63203571Y-48518571D01*
X53175000Y-49304285D02*
X53175000Y-50018571D01*
X52675000Y-48518571D02*
X53175000Y-49304285D01*
X53675000Y-48518571D01*
X43146428Y-48318571D02*
X44003571Y-48318571D01*
X43575000Y-49818571D02*
X43575000Y-48318571D01*
X24253571Y-49032857D02*
X24753571Y-49032857D01*
X24967857Y-49818571D02*
X24253571Y-49818571D01*
X24253571Y-48318571D01*
X24967857Y-48318571D01*
X14132142Y-48318571D02*
X14489285Y-49818571D01*
X14775000Y-48747142D01*
X15060714Y-49818571D01*
X15417857Y-48318571D01*
X5946428Y-49761428D02*
X5803571Y-49690000D01*
X5660714Y-49547142D01*
X5446428Y-49332857D01*
X5303571Y-49261428D01*
X5160714Y-49261428D01*
X5232142Y-49618571D02*
X5089285Y-49547142D01*
X4946428Y-49404285D01*
X4875000Y-49118571D01*
X4875000Y-48618571D01*
X4946428Y-48332857D01*
X5089285Y-48190000D01*
X5232142Y-48118571D01*
X5517857Y-48118571D01*
X5660714Y-48190000D01*
X5803571Y-48332857D01*
X5875000Y-48618571D01*
X5875000Y-49118571D01*
X5803571Y-49404285D01*
X5660714Y-49547142D01*
X5517857Y-49618571D01*
X5232142Y-49618571D01*
X82039285Y-59818571D02*
X81325000Y-59818571D01*
X81325000Y-58318571D01*
X71582142Y-60018571D02*
X71582142Y-58518571D01*
X72439285Y-60018571D02*
X71796428Y-59161428D01*
X72439285Y-58518571D02*
X71582142Y-59375714D01*
X62789285Y-58318571D02*
X62789285Y-59390000D01*
X62717857Y-59604285D01*
X62575000Y-59747142D01*
X62360714Y-59818571D01*
X62217857Y-59818571D01*
X52720428Y-60018571D02*
X52720428Y-58518571D01*
X52720428Y-59232857D02*
X53577571Y-59232857D01*
X53577571Y-60018571D02*
X53577571Y-58518571D01*
X43767857Y-58590000D02*
X43625000Y-58518571D01*
X43410714Y-58518571D01*
X43196428Y-58590000D01*
X43053571Y-58732857D01*
X42982142Y-58875714D01*
X42910714Y-59161428D01*
X42910714Y-59375714D01*
X42982142Y-59661428D01*
X43053571Y-59804285D01*
X43196428Y-59947142D01*
X43410714Y-60018571D01*
X43553571Y-60018571D01*
X43767857Y-59947142D01*
X43839285Y-59875714D01*
X43839285Y-59375714D01*
X43553571Y-59375714D01*
X34313285Y-59232857D02*
X33813285Y-59232857D01*
X33813285Y-60018571D02*
X33813285Y-58518571D01*
X34527571Y-58518571D01*
X24182142Y-60018571D02*
X24182142Y-58518571D01*
X24539285Y-58518571D01*
X24753571Y-58590000D01*
X24896428Y-58732857D01*
X24967857Y-58875714D01*
X25039285Y-59161428D01*
X25039285Y-59375714D01*
X24967857Y-59661428D01*
X24896428Y-59804285D01*
X24753571Y-59947142D01*
X24539285Y-60018571D01*
X24182142Y-60018571D01*
X14346428Y-59947142D02*
X14560714Y-60018571D01*
X14917857Y-60018571D01*
X15060714Y-59947142D01*
X15132142Y-59875714D01*
X15203571Y-59732857D01*
X15203571Y-59590000D01*
X15132142Y-59447142D01*
X15060714Y-59375714D01*
X14917857Y-59304285D01*
X14632142Y-59232857D01*
X14489285Y-59161428D01*
X14417857Y-59090000D01*
X14346428Y-58947142D01*
X14346428Y-58804285D01*
X14417857Y-58661428D01*
X14489285Y-58590000D01*
X14632142Y-58518571D01*
X14989285Y-58518571D01*
X15203571Y-58590000D01*
X5017857Y-59590000D02*
X5732142Y-59590000D01*
X4875000Y-60018571D02*
X5375000Y-58518571D01*
X5875000Y-60018571D01*
D11*
X128035000Y-81340000D02*
X130575000Y-78800000D01*
X-4260000Y-81280000D02*
X-6800000Y-78740000D01*
X128035000Y-81340000D02*
X-4260000Y-81280000D01*
X130575000Y-36540000D02*
X130575000Y-78800000D01*
X-6825000Y-36540000D02*
X-6800000Y-78740000D01*
D16*
X27824000Y-56300000D02*
X27824000Y-51800000D01*
X23824000Y-57550000D02*
X25324000Y-57550000D01*
X21324000Y-51800000D02*
X21324000Y-56300000D01*
X25324000Y-50550000D02*
X23824000Y-50550000D01*
X53540757Y-41982426D02*
X51617426Y-43905757D01*
X53583183Y-45871514D02*
X53710462Y-45744234D01*
X51235589Y-43523919D02*
X53583183Y-45871514D01*
X51362868Y-43396640D02*
X51235589Y-43523919D01*
X55506514Y-43948183D02*
X55379234Y-44075462D01*
X53158919Y-41600589D02*
X55506514Y-43948183D01*
X53031640Y-41727868D02*
X53158919Y-41600589D01*
X72740757Y-41782426D02*
X70817426Y-43705757D01*
X72783183Y-45671514D02*
X72910462Y-45544234D01*
X70435589Y-43323919D02*
X72783183Y-45671514D01*
X70562868Y-43196640D02*
X70435589Y-43323919D01*
X74706514Y-43748183D02*
X74579234Y-43875462D01*
X72358919Y-41400589D02*
X74706514Y-43748183D01*
X72231640Y-41527868D02*
X72358919Y-41400589D01*
X65924000Y-56300000D02*
X65924000Y-51800000D01*
X61924000Y-57550000D02*
X63424000Y-57550000D01*
X59424000Y-51800000D02*
X59424000Y-56300000D01*
X63424000Y-50550000D02*
X61924000Y-50550000D01*
X62639538Y-41535766D02*
X62766817Y-41408487D01*
X62766817Y-41408487D02*
X65114412Y-43756081D01*
X65114412Y-43756081D02*
X64987132Y-43883360D01*
X60970766Y-43204538D02*
X60843487Y-43331817D01*
X60843487Y-43331817D02*
X63191081Y-45679412D01*
X63191081Y-45679412D02*
X63318360Y-45552132D01*
X63148655Y-41790324D02*
X61225324Y-43713655D01*
X84875000Y-66460000D02*
X84875000Y-61960000D01*
X80875000Y-67710000D02*
X82375000Y-67710000D01*
X78375000Y-61960000D02*
X78375000Y-66460000D01*
X82375000Y-60710000D02*
X80875000Y-60710000D01*
X8675000Y-66460000D02*
X8675000Y-61960000D01*
X4675000Y-67710000D02*
X6175000Y-67710000D01*
X2175000Y-61960000D02*
X2175000Y-66460000D01*
X6175000Y-60710000D02*
X4675000Y-60710000D01*
D13*
X114145000Y-36400000D02*
X114145000Y-37670000D01*
X106525000Y-36400000D02*
X114145000Y-36400000D01*
X106525000Y-37670000D02*
X106525000Y-36400000D01*
D16*
X53899000Y-50550000D02*
X52399000Y-50550000D01*
X49899000Y-51800000D02*
X49899000Y-56300000D01*
X52399000Y-57550000D02*
X53899000Y-57550000D01*
X56399000Y-56300000D02*
X56399000Y-51800000D01*
X46874000Y-56300000D02*
X46874000Y-51800000D01*
X42874000Y-57550000D02*
X44374000Y-57550000D01*
X40374000Y-51800000D02*
X40374000Y-56300000D01*
X44374000Y-50550000D02*
X42874000Y-50550000D01*
X5239538Y-41527868D02*
X5366817Y-41400589D01*
X5366817Y-41400589D02*
X7714412Y-43748183D01*
X7714412Y-43748183D02*
X7587132Y-43875462D01*
X3570766Y-43196640D02*
X3443487Y-43323919D01*
X3443487Y-43323919D02*
X5791081Y-45671514D01*
X5791081Y-45671514D02*
X5918360Y-45544234D01*
X5748655Y-41782426D02*
X3825324Y-43705757D01*
X15140757Y-41982426D02*
X13217426Y-43905757D01*
X15183183Y-45871514D02*
X15310462Y-45744234D01*
X12835589Y-43523919D02*
X15183183Y-45871514D01*
X12962868Y-43396640D02*
X12835589Y-43523919D01*
X17106514Y-43948183D02*
X16979234Y-44075462D01*
X14758919Y-41600589D02*
X17106514Y-43948183D01*
X14631640Y-41727868D02*
X14758919Y-41600589D01*
X24431640Y-41735766D02*
X24558919Y-41608487D01*
X24558919Y-41608487D02*
X26906514Y-43956081D01*
X26906514Y-43956081D02*
X26779234Y-44083360D01*
X22762868Y-43404538D02*
X22635589Y-43531817D01*
X22635589Y-43531817D02*
X24983183Y-45879412D01*
X24983183Y-45879412D02*
X25110462Y-45752132D01*
X24940757Y-41990324D02*
X23017426Y-43913655D01*
X34548655Y-41990324D02*
X32625324Y-43913655D01*
X34591081Y-45879412D02*
X34718360Y-45752132D01*
X32243487Y-43531817D02*
X34591081Y-45879412D01*
X32370766Y-43404538D02*
X32243487Y-43531817D01*
X36514412Y-43956081D02*
X36387132Y-44083360D01*
X34166817Y-41608487D02*
X36514412Y-43956081D01*
X34039538Y-41735766D02*
X34166817Y-41608487D01*
X44148655Y-41790324D02*
X42225324Y-43713655D01*
X44191081Y-45679412D02*
X44318360Y-45552132D01*
X41843487Y-43331817D02*
X44191081Y-45679412D01*
X41970766Y-43204538D02*
X41843487Y-43331817D01*
X46114412Y-43756081D02*
X45987132Y-43883360D01*
X43766817Y-41408487D02*
X46114412Y-43756081D01*
X43639538Y-41535766D02*
X43766817Y-41408487D01*
X82148655Y-41990324D02*
X80225324Y-43913655D01*
X82191081Y-45879412D02*
X82318360Y-45752132D01*
X79843487Y-43531817D02*
X82191081Y-45879412D01*
X79970766Y-43404538D02*
X79843487Y-43531817D01*
X84114412Y-43956081D02*
X83987132Y-44083360D01*
X81766817Y-41608487D02*
X84114412Y-43956081D01*
X81639538Y-41735766D02*
X81766817Y-41608487D01*
X91748655Y-41790324D02*
X89825324Y-43713655D01*
X91791081Y-45679412D02*
X91918360Y-45552132D01*
X89443487Y-43331817D02*
X91791081Y-45679412D01*
X89570766Y-43204538D02*
X89443487Y-43331817D01*
X93714412Y-43756081D02*
X93587132Y-43883360D01*
X91366817Y-41408487D02*
X93714412Y-43756081D01*
X91239538Y-41535766D02*
X91366817Y-41408487D01*
X8574000Y-56300000D02*
X8574000Y-51800000D01*
X4574000Y-57550000D02*
X6074000Y-57550000D01*
X2074000Y-51800000D02*
X2074000Y-56300000D01*
X6074000Y-50550000D02*
X4574000Y-50550000D01*
X15599000Y-50550000D02*
X14099000Y-50550000D01*
X11599000Y-51800000D02*
X11599000Y-56300000D01*
X14099000Y-57550000D02*
X15599000Y-57550000D01*
X18099000Y-56300000D02*
X18099000Y-51800000D01*
X34849000Y-50550000D02*
X33349000Y-50550000D01*
X30849000Y-51800000D02*
X30849000Y-56300000D01*
X33349000Y-57550000D02*
X34849000Y-57550000D01*
X37349000Y-56300000D02*
X37349000Y-51800000D01*
X75449000Y-56300000D02*
X75449000Y-51800000D01*
X71449000Y-57550000D02*
X72949000Y-57550000D01*
X68949000Y-51800000D02*
X68949000Y-56300000D01*
X72949000Y-50550000D02*
X71449000Y-50550000D01*
X84974000Y-56300000D02*
X84974000Y-51800000D01*
X80974000Y-57550000D02*
X82474000Y-57550000D01*
X78474000Y-51800000D02*
X78474000Y-56300000D01*
X82474000Y-50550000D02*
X80974000Y-50550000D01*
X94475000Y-56140000D02*
X94475000Y-51640000D01*
X90475000Y-57390000D02*
X91975000Y-57390000D01*
X87975000Y-51640000D02*
X87975000Y-56140000D01*
X91975000Y-50390000D02*
X90475000Y-50390000D01*
X18200000Y-66460000D02*
X18200000Y-61960000D01*
X14200000Y-67710000D02*
X15700000Y-67710000D01*
X11700000Y-61960000D02*
X11700000Y-66460000D01*
X15700000Y-60710000D02*
X14200000Y-60710000D01*
X27725000Y-66460000D02*
X27725000Y-61960000D01*
X23725000Y-67710000D02*
X25225000Y-67710000D01*
X21225000Y-61960000D02*
X21225000Y-66460000D01*
X25225000Y-60710000D02*
X23725000Y-60710000D01*
X37250000Y-66460000D02*
X37250000Y-61960000D01*
X33250000Y-67710000D02*
X34750000Y-67710000D01*
X30750000Y-61960000D02*
X30750000Y-66460000D01*
X34750000Y-60710000D02*
X33250000Y-60710000D01*
X46775000Y-66460000D02*
X46775000Y-61960000D01*
X42775000Y-67710000D02*
X44275000Y-67710000D01*
X40275000Y-61960000D02*
X40275000Y-66460000D01*
X44275000Y-60710000D02*
X42775000Y-60710000D01*
X56300000Y-66460000D02*
X56300000Y-61960000D01*
X52300000Y-67710000D02*
X53800000Y-67710000D01*
X49800000Y-61960000D02*
X49800000Y-66460000D01*
X53800000Y-60710000D02*
X52300000Y-60710000D01*
X65825000Y-66460000D02*
X65825000Y-61960000D01*
X61825000Y-67710000D02*
X63325000Y-67710000D01*
X59325000Y-61960000D02*
X59325000Y-66460000D01*
X63325000Y-60710000D02*
X61825000Y-60710000D01*
X75350000Y-66460000D02*
X75350000Y-61960000D01*
X71350000Y-67710000D02*
X72850000Y-67710000D01*
X68850000Y-61960000D02*
X68850000Y-66460000D01*
X72850000Y-60710000D02*
X71350000Y-60710000D01*
X94400000Y-66460000D02*
X94400000Y-61960000D01*
X90400000Y-67710000D02*
X91900000Y-67710000D01*
X87900000Y-61960000D02*
X87900000Y-66460000D01*
X91900000Y-60710000D02*
X90400000Y-60710000D01*
X-975852Y-77140000D02*
G75*
G03*
X-975852Y-77140000I-1849148J0D01*
G01*
X128224148Y-77540000D02*
G75*
G03*
X128224148Y-77540000I-1849148J0D01*
G01*
X-975852Y-40540000D02*
G75*
G03*
X-975852Y-40540000I-1849148J0D01*
G01*
X8675000Y-76620000D02*
X8675000Y-72120000D01*
X4675000Y-77870000D02*
X6175000Y-77870000D01*
X2175000Y-72120000D02*
X2175000Y-76620000D01*
X6175000Y-70870000D02*
X4675000Y-70870000D01*
X18200000Y-76620000D02*
X18200000Y-72120000D01*
X14200000Y-77870000D02*
X15700000Y-77870000D01*
X11700000Y-72120000D02*
X11700000Y-76620000D01*
X15700000Y-70870000D02*
X14200000Y-70870000D01*
X27725000Y-76620000D02*
X27725000Y-72120000D01*
X23725000Y-77870000D02*
X25225000Y-77870000D01*
X21225000Y-72120000D02*
X21225000Y-76620000D01*
X25225000Y-70870000D02*
X23725000Y-70870000D01*
X37250000Y-76620000D02*
X37250000Y-72120000D01*
X33250000Y-77870000D02*
X34750000Y-77870000D01*
X30750000Y-72120000D02*
X30750000Y-76620000D01*
X34750000Y-70870000D02*
X33250000Y-70870000D01*
X46775000Y-76620000D02*
X46775000Y-72120000D01*
X42775000Y-77870000D02*
X44275000Y-77870000D01*
X40275000Y-72120000D02*
X40275000Y-76620000D01*
X44275000Y-70870000D02*
X42775000Y-70870000D01*
X56300000Y-76620000D02*
X56300000Y-72120000D01*
X52300000Y-77870000D02*
X53800000Y-77870000D01*
X49800000Y-72120000D02*
X49800000Y-76620000D01*
X53800000Y-70870000D02*
X52300000Y-70870000D01*
X65825000Y-76620000D02*
X65825000Y-72120000D01*
X61825000Y-77870000D02*
X63325000Y-77870000D01*
X59325000Y-72120000D02*
X59325000Y-76620000D01*
X63325000Y-70870000D02*
X61825000Y-70870000D01*
X75350000Y-76620000D02*
X75350000Y-72120000D01*
X71350000Y-77870000D02*
X72850000Y-77870000D01*
X68850000Y-72120000D02*
X68850000Y-76620000D01*
X72850000Y-70870000D02*
X71350000Y-70870000D01*
X84875000Y-76620000D02*
X84875000Y-72120000D01*
X80875000Y-77870000D02*
X82375000Y-77870000D01*
X78375000Y-72120000D02*
X78375000Y-76620000D01*
X82375000Y-70870000D02*
X80875000Y-70870000D01*
X94400000Y-76620000D02*
X94400000Y-72120000D01*
X90400000Y-77870000D02*
X91900000Y-77870000D01*
X87900000Y-72120000D02*
X87900000Y-76620000D01*
X91900000Y-70870000D02*
X90400000Y-70870000D01*
X128224148Y-40740000D02*
G75*
G03*
X128224148Y-40740000I-1849148J0D01*
G01*
M02*
