%TF.GenerationSoftware,KiCad,Pcbnew,(5.1.9-0-10_14)*%
%TF.CreationDate,2021-02-12T13:00:48+01:00*%
%TF.ProjectId,teensythumbboard,7465656e-7379-4746-9875-6d62626f6172,1.1*%
%TF.SameCoordinates,PX68290a0PY463f660*%
%TF.FileFunction,Copper,L1,Top*%
%TF.FilePolarity,Positive*%
%FSLAX46Y46*%
G04 Gerber Fmt 4.6, Leading zero omitted, Abs format (unit mm)*
G04 Created by KiCad (PCBNEW (5.1.9-0-10_14)) date 2021-02-12 13:00:48*
%MOMM*%
%LPD*%
G01*
G04 APERTURE LIST*
%TA.AperFunction,Profile*%
%ADD10C,0.150000*%
%TD*%
%TA.AperFunction,ComponentPad*%
%ADD11C,2.000000*%
%TD*%
%TA.AperFunction,ComponentPad*%
%ADD12R,2.000000X2.000000*%
%TD*%
%TA.AperFunction,ComponentPad*%
%ADD13C,1.700000*%
%TD*%
%TA.AperFunction,ComponentPad*%
%ADD14R,1.600000X1.600000*%
%TD*%
%TA.AperFunction,ComponentPad*%
%ADD15C,3.200000*%
%TD*%
%TA.AperFunction,ComponentPad*%
%ADD16O,1.700000X1.700000*%
%TD*%
%TA.AperFunction,ViaPad*%
%ADD17C,0.685800*%
%TD*%
%TA.AperFunction,Conductor*%
%ADD18C,0.200000*%
%TD*%
%TA.AperFunction,Conductor*%
%ADD19C,0.300000*%
%TD*%
%TA.AperFunction,Conductor*%
%ADD20C,0.254000*%
%TD*%
%TA.AperFunction,Conductor*%
%ADD21C,0.150000*%
%TD*%
G04 APERTURE END LIST*
D10*
X-6825000Y-36540000D02*
X130575000Y-36540000D01*
X128035000Y-81340000D02*
X130575000Y-78800000D01*
X-4260000Y-81280000D02*
X-6800000Y-78740000D01*
X128035000Y-81340000D02*
X-4260000Y-81280000D01*
X130575000Y-36540000D02*
X130575000Y-78800000D01*
X-6825000Y-36540000D02*
X-6800000Y-78740000D01*
D11*
X26824000Y-57300000D03*
X22324000Y-57300000D03*
X26824000Y-50800000D03*
X22324000Y-50800000D03*
%TA.AperFunction,ComponentPad*%
G36*
G01*
X54459995Y-44824995D02*
X54459995Y-44824995D01*
G75*
G02*
X55874209Y-44824995I707107J-707107D01*
G01*
X55874209Y-44824995D01*
G75*
G02*
X55874209Y-46239209I-707107J-707107D01*
G01*
X55874209Y-46239209D01*
G75*
G02*
X54459995Y-46239209I-707107J707107D01*
G01*
X54459995Y-46239209D01*
G75*
G02*
X54459995Y-44824995I707107J707107D01*
G01*
G37*
%TD.AperFunction*%
D12*
X51575000Y-41940000D03*
%TA.AperFunction,ComponentPad*%
G36*
G01*
X73659995Y-44624995D02*
X73659995Y-44624995D01*
G75*
G02*
X75074209Y-44624995I707107J-707107D01*
G01*
X75074209Y-44624995D01*
G75*
G02*
X75074209Y-46039209I-707107J-707107D01*
G01*
X75074209Y-46039209D01*
G75*
G02*
X73659995Y-46039209I-707107J707107D01*
G01*
X73659995Y-46039209D01*
G75*
G02*
X73659995Y-44624995I707107J707107D01*
G01*
G37*
%TD.AperFunction*%
X70775000Y-41740000D03*
D11*
X64924000Y-57300000D03*
X60424000Y-57300000D03*
X64924000Y-50800000D03*
X60424000Y-50800000D03*
D12*
X61182898Y-41747898D03*
%TA.AperFunction,ComponentPad*%
G36*
G01*
X64067893Y-44632893D02*
X64067893Y-44632893D01*
G75*
G02*
X65482107Y-44632893I707107J-707107D01*
G01*
X65482107Y-44632893D01*
G75*
G02*
X65482107Y-46047107I-707107J-707107D01*
G01*
X65482107Y-46047107D01*
G75*
G02*
X64067893Y-46047107I-707107J707107D01*
G01*
X64067893Y-46047107D01*
G75*
G02*
X64067893Y-44632893I707107J707107D01*
G01*
G37*
%TD.AperFunction*%
D11*
X83875000Y-67460000D03*
X79375000Y-67460000D03*
X83875000Y-60960000D03*
X79375000Y-60960000D03*
X7675000Y-67460000D03*
X3175000Y-67460000D03*
X7675000Y-60960000D03*
X3175000Y-60960000D03*
D13*
X120495000Y-44020000D03*
X120495000Y-41480000D03*
X120495000Y-38940000D03*
D14*
X102715000Y-38940000D03*
D13*
X102715000Y-41480000D03*
X102715000Y-44020000D03*
X102715000Y-46560000D03*
X102715000Y-49100000D03*
X102715000Y-51640000D03*
X102715000Y-54180000D03*
X102715000Y-56720000D03*
X102715000Y-59260000D03*
X102715000Y-61800000D03*
X102715000Y-64340000D03*
X102715000Y-66880000D03*
X102715000Y-69420000D03*
X117955000Y-38940000D03*
X117955000Y-41480000D03*
X117955000Y-44020000D03*
X117955000Y-46560000D03*
X117955000Y-49100000D03*
X117955000Y-51640000D03*
X117955000Y-54180000D03*
X117955000Y-56720000D03*
X117955000Y-59260000D03*
X117955000Y-61800000D03*
X117955000Y-64340000D03*
X117955000Y-66880000D03*
X117955000Y-69420000D03*
X102715000Y-71960000D03*
X117955000Y-71960000D03*
X105255000Y-38940000D03*
X105255000Y-41480000D03*
X107795000Y-41480000D03*
X107795000Y-44020000D03*
X105255000Y-44020000D03*
X105255000Y-61800000D03*
X105255000Y-64340000D03*
X105255000Y-69420000D03*
X105255000Y-49100000D03*
X105255000Y-59260000D03*
X105255000Y-51640000D03*
X105255000Y-71960000D03*
X105255000Y-54180000D03*
X105255000Y-66880000D03*
X105255000Y-56720000D03*
X105255000Y-46560000D03*
X115415000Y-56720000D03*
X115415000Y-64340000D03*
X115415000Y-46560000D03*
X115415000Y-44020000D03*
X115415000Y-61800000D03*
X115415000Y-59260000D03*
X115415000Y-51640000D03*
X115415000Y-71960000D03*
X115415000Y-69420000D03*
X115415000Y-66880000D03*
X115415000Y-54180000D03*
X115415000Y-41480000D03*
X115415000Y-38940000D03*
X115415000Y-49100000D03*
X107795000Y-46560000D03*
X107795000Y-49100000D03*
X107795000Y-51640000D03*
X107795000Y-54180000D03*
X107795000Y-56720000D03*
X107795000Y-59260000D03*
X107795000Y-61800000D03*
X107795000Y-64340000D03*
X107795000Y-66880000D03*
X107795000Y-69420000D03*
X107795000Y-71960000D03*
X107795000Y-38940000D03*
X110335000Y-51640000D03*
X110335000Y-41480000D03*
X110335000Y-49100000D03*
X110335000Y-54180000D03*
X110335000Y-44020000D03*
X110335000Y-46560000D03*
X110335000Y-61800000D03*
X110335000Y-59260000D03*
X110335000Y-66880000D03*
X110335000Y-69420000D03*
X110335000Y-38940000D03*
X110335000Y-64340000D03*
X110335000Y-71960000D03*
X110335000Y-56720000D03*
X112875000Y-49100000D03*
X112875000Y-44020000D03*
X112875000Y-61800000D03*
X112875000Y-38940000D03*
X112875000Y-69420000D03*
X112875000Y-59260000D03*
X112875000Y-41480000D03*
X112875000Y-66880000D03*
X112875000Y-54180000D03*
X112875000Y-71960000D03*
X112875000Y-56720000D03*
X112875000Y-64340000D03*
X112875000Y-51640000D03*
X112875000Y-46560000D03*
X117955000Y-74500000D03*
X102715000Y-74500000D03*
X115415000Y-74500000D03*
X110335000Y-74500000D03*
X112875000Y-74500000D03*
X105255000Y-74500000D03*
X107795000Y-74500000D03*
D11*
X50899000Y-50800000D03*
X55399000Y-50800000D03*
X50899000Y-57300000D03*
X55399000Y-57300000D03*
X45874000Y-57300000D03*
X41374000Y-57300000D03*
X45874000Y-50800000D03*
X41374000Y-50800000D03*
D14*
X100175000Y-38940000D03*
D12*
X3782898Y-41740000D03*
%TA.AperFunction,ComponentPad*%
G36*
G01*
X6667893Y-44624995D02*
X6667893Y-44624995D01*
G75*
G02*
X8082107Y-44624995I707107J-707107D01*
G01*
X8082107Y-44624995D01*
G75*
G02*
X8082107Y-46039209I-707107J-707107D01*
G01*
X8082107Y-46039209D01*
G75*
G02*
X6667893Y-46039209I-707107J707107D01*
G01*
X6667893Y-46039209D01*
G75*
G02*
X6667893Y-44624995I707107J707107D01*
G01*
G37*
%TD.AperFunction*%
%TA.AperFunction,ComponentPad*%
G36*
G01*
X16059995Y-44824995D02*
X16059995Y-44824995D01*
G75*
G02*
X17474209Y-44824995I707107J-707107D01*
G01*
X17474209Y-44824995D01*
G75*
G02*
X17474209Y-46239209I-707107J-707107D01*
G01*
X17474209Y-46239209D01*
G75*
G02*
X16059995Y-46239209I-707107J707107D01*
G01*
X16059995Y-46239209D01*
G75*
G02*
X16059995Y-44824995I707107J707107D01*
G01*
G37*
%TD.AperFunction*%
X13175000Y-41940000D03*
X22975000Y-41947898D03*
%TA.AperFunction,ComponentPad*%
G36*
G01*
X25859995Y-44832893D02*
X25859995Y-44832893D01*
G75*
G02*
X27274209Y-44832893I707107J-707107D01*
G01*
X27274209Y-44832893D01*
G75*
G02*
X27274209Y-46247107I-707107J-707107D01*
G01*
X27274209Y-46247107D01*
G75*
G02*
X25859995Y-46247107I-707107J707107D01*
G01*
X25859995Y-46247107D01*
G75*
G02*
X25859995Y-44832893I707107J707107D01*
G01*
G37*
%TD.AperFunction*%
%TA.AperFunction,ComponentPad*%
G36*
G01*
X35467893Y-44832893D02*
X35467893Y-44832893D01*
G75*
G02*
X36882107Y-44832893I707107J-707107D01*
G01*
X36882107Y-44832893D01*
G75*
G02*
X36882107Y-46247107I-707107J-707107D01*
G01*
X36882107Y-46247107D01*
G75*
G02*
X35467893Y-46247107I-707107J707107D01*
G01*
X35467893Y-46247107D01*
G75*
G02*
X35467893Y-44832893I707107J707107D01*
G01*
G37*
%TD.AperFunction*%
X32582898Y-41947898D03*
%TA.AperFunction,ComponentPad*%
G36*
G01*
X45067893Y-44632893D02*
X45067893Y-44632893D01*
G75*
G02*
X46482107Y-44632893I707107J-707107D01*
G01*
X46482107Y-44632893D01*
G75*
G02*
X46482107Y-46047107I-707107J-707107D01*
G01*
X46482107Y-46047107D01*
G75*
G02*
X45067893Y-46047107I-707107J707107D01*
G01*
X45067893Y-46047107D01*
G75*
G02*
X45067893Y-44632893I707107J707107D01*
G01*
G37*
%TD.AperFunction*%
X42182898Y-41747898D03*
%TA.AperFunction,ComponentPad*%
G36*
G01*
X83067893Y-44832893D02*
X83067893Y-44832893D01*
G75*
G02*
X84482107Y-44832893I707107J-707107D01*
G01*
X84482107Y-44832893D01*
G75*
G02*
X84482107Y-46247107I-707107J-707107D01*
G01*
X84482107Y-46247107D01*
G75*
G02*
X83067893Y-46247107I-707107J707107D01*
G01*
X83067893Y-46247107D01*
G75*
G02*
X83067893Y-44832893I707107J707107D01*
G01*
G37*
%TD.AperFunction*%
X80182898Y-41947898D03*
%TA.AperFunction,ComponentPad*%
G36*
G01*
X92667893Y-44632893D02*
X92667893Y-44632893D01*
G75*
G02*
X94082107Y-44632893I707107J-707107D01*
G01*
X94082107Y-44632893D01*
G75*
G02*
X94082107Y-46047107I-707107J-707107D01*
G01*
X94082107Y-46047107D01*
G75*
G02*
X92667893Y-46047107I-707107J707107D01*
G01*
X92667893Y-46047107D01*
G75*
G02*
X92667893Y-44632893I707107J707107D01*
G01*
G37*
%TD.AperFunction*%
X89782898Y-41747898D03*
D11*
X7574000Y-57300000D03*
X3074000Y-57300000D03*
X7574000Y-50800000D03*
X3074000Y-50800000D03*
X12599000Y-50800000D03*
X17099000Y-50800000D03*
X12599000Y-57300000D03*
X17099000Y-57300000D03*
X31849000Y-50800000D03*
X36349000Y-50800000D03*
X31849000Y-57300000D03*
X36349000Y-57300000D03*
X74449000Y-57300000D03*
X69949000Y-57300000D03*
X74449000Y-50800000D03*
X69949000Y-50800000D03*
X83974000Y-57300000D03*
X79474000Y-57300000D03*
X83974000Y-50800000D03*
X79474000Y-50800000D03*
X93475000Y-57140000D03*
X88975000Y-57140000D03*
X93475000Y-50640000D03*
X88975000Y-50640000D03*
X17200000Y-67460000D03*
X12700000Y-67460000D03*
X17200000Y-60960000D03*
X12700000Y-60960000D03*
X26725000Y-67460000D03*
X22225000Y-67460000D03*
X26725000Y-60960000D03*
X22225000Y-60960000D03*
X36250000Y-67460000D03*
X31750000Y-67460000D03*
X36250000Y-60960000D03*
X31750000Y-60960000D03*
X45775000Y-67460000D03*
X41275000Y-67460000D03*
X45775000Y-60960000D03*
X41275000Y-60960000D03*
X55300000Y-67460000D03*
X50800000Y-67460000D03*
X55300000Y-60960000D03*
X50800000Y-60960000D03*
X64825000Y-67460000D03*
X60325000Y-67460000D03*
X64825000Y-60960000D03*
X60325000Y-60960000D03*
X74350000Y-67460000D03*
X69850000Y-67460000D03*
X74350000Y-60960000D03*
X69850000Y-60960000D03*
X93400000Y-67460000D03*
X88900000Y-67460000D03*
X93400000Y-60960000D03*
X88900000Y-60960000D03*
D15*
X-2825000Y-77140000D03*
X126375000Y-77540000D03*
X-2825000Y-40540000D03*
D11*
X7675000Y-77620000D03*
X3175000Y-77620000D03*
X7675000Y-71120000D03*
X3175000Y-71120000D03*
X17200000Y-77620000D03*
X12700000Y-77620000D03*
X17200000Y-71120000D03*
X12700000Y-71120000D03*
X26725000Y-77620000D03*
X22225000Y-77620000D03*
X26725000Y-71120000D03*
X22225000Y-71120000D03*
X36250000Y-77620000D03*
X31750000Y-77620000D03*
X36250000Y-71120000D03*
X31750000Y-71120000D03*
X45775000Y-77620000D03*
X41275000Y-77620000D03*
X45775000Y-71120000D03*
X41275000Y-71120000D03*
X55300000Y-77620000D03*
X50800000Y-77620000D03*
X55300000Y-71120000D03*
X50800000Y-71120000D03*
X64825000Y-77620000D03*
X60325000Y-77620000D03*
X64825000Y-71120000D03*
X60325000Y-71120000D03*
X74350000Y-77620000D03*
X69850000Y-77620000D03*
X74350000Y-71120000D03*
X69850000Y-71120000D03*
X83875000Y-77620000D03*
X79375000Y-77620000D03*
X83875000Y-71120000D03*
X79375000Y-71120000D03*
X93400000Y-77620000D03*
X88900000Y-77620000D03*
X93400000Y-71120000D03*
X88900000Y-71120000D03*
D15*
X126375000Y-40740000D03*
D16*
X-4825000Y-66260000D03*
X-4825000Y-63720000D03*
X-4825000Y-61180000D03*
X-4825000Y-58640000D03*
X-4825000Y-56100000D03*
X-4825000Y-53560000D03*
X-4825000Y-51020000D03*
D13*
X-4825000Y-48480000D03*
D17*
X97975000Y-58340000D03*
X33375000Y-48140000D03*
X120175000Y-71140000D03*
X121775000Y-67340000D03*
D18*
X51839000Y-60960000D02*
X50800000Y-60960000D01*
X50800000Y-57399000D02*
X50899000Y-57300000D01*
X25885000Y-50800000D02*
X26924000Y-50800000D01*
X81284000Y-54610000D02*
X83974000Y-57300000D01*
X77139000Y-54610000D02*
X81284000Y-54610000D01*
X74449000Y-57300000D02*
X77139000Y-54610000D01*
X71759000Y-54610000D02*
X74449000Y-57300000D01*
X67614000Y-54610000D02*
X71759000Y-54610000D01*
X64924000Y-57300000D02*
X67614000Y-54610000D01*
X62234000Y-54610000D02*
X64924000Y-57300000D01*
X58089000Y-54610000D02*
X62234000Y-54610000D01*
X55399000Y-57300000D02*
X58089000Y-54610000D01*
X43184000Y-54610000D02*
X45874000Y-57300000D01*
X39039000Y-54610000D02*
X43184000Y-54610000D01*
X36349000Y-57300000D02*
X39039000Y-54610000D01*
X33659000Y-54610000D02*
X36349000Y-57300000D01*
X29514000Y-54610000D02*
X33659000Y-54610000D01*
X26824000Y-57300000D02*
X29514000Y-54610000D01*
X14409000Y-54610000D02*
X17099000Y-57300000D01*
X10264000Y-54610000D02*
X14409000Y-54610000D01*
X7574000Y-57300000D02*
X10264000Y-54610000D01*
X52709000Y-54610000D02*
X55399000Y-57300000D01*
X48564000Y-54610000D02*
X52709000Y-54610000D01*
X45874000Y-57300000D02*
X48564000Y-54610000D01*
X19789000Y-54610000D02*
X17099000Y-57300000D01*
X24134000Y-54610000D02*
X19789000Y-54610000D01*
X26824000Y-57300000D02*
X24134000Y-54610000D01*
X91275000Y-54940000D02*
X93475000Y-57140000D01*
X86334000Y-54940000D02*
X91275000Y-54940000D01*
X83974000Y-57300000D02*
X86334000Y-54940000D01*
X93475000Y-57140000D02*
X96775000Y-57140000D01*
X96775000Y-57140000D02*
X97975000Y-58340000D01*
X97975000Y-58340000D02*
X97975000Y-58340000D01*
X14510000Y-64770000D02*
X17200000Y-67460000D01*
X10365000Y-64770000D02*
X14510000Y-64770000D01*
X7675000Y-67460000D02*
X10365000Y-64770000D01*
X24035000Y-64770000D02*
X26725000Y-67460000D01*
X19890000Y-64770000D02*
X24035000Y-64770000D01*
X17200000Y-67460000D02*
X19890000Y-64770000D01*
X33560000Y-64770000D02*
X36250000Y-67460000D01*
X29415000Y-64770000D02*
X33560000Y-64770000D01*
X26725000Y-67460000D02*
X29415000Y-64770000D01*
X43085000Y-64770000D02*
X45775000Y-67460000D01*
X38940000Y-64770000D02*
X43085000Y-64770000D01*
X36250000Y-67460000D02*
X38940000Y-64770000D01*
X52610000Y-64770000D02*
X55300000Y-67460000D01*
X48465000Y-64770000D02*
X52610000Y-64770000D01*
X45775000Y-67460000D02*
X48465000Y-64770000D01*
X62135000Y-64770000D02*
X64825000Y-67460000D01*
X57990000Y-64770000D02*
X62135000Y-64770000D01*
X55300000Y-67460000D02*
X57990000Y-64770000D01*
X71660000Y-64770000D02*
X74350000Y-67460000D01*
X67515000Y-64770000D02*
X71660000Y-64770000D01*
X64825000Y-67460000D02*
X67515000Y-64770000D01*
X81185000Y-64770000D02*
X83875000Y-67460000D01*
X77040000Y-64770000D02*
X81185000Y-64770000D01*
X74350000Y-67460000D02*
X77040000Y-64770000D01*
X90710000Y-64770000D02*
X93400000Y-67460000D01*
X86565000Y-64770000D02*
X90710000Y-64770000D01*
X83875000Y-67460000D02*
X86565000Y-64770000D01*
X105255000Y-56720000D02*
X102715000Y-56720000D01*
X93400000Y-60960000D02*
X98555000Y-60960000D01*
X98555000Y-60880000D02*
X102715000Y-56720000D01*
X98555000Y-60960000D02*
X98555000Y-60880000D01*
X104052919Y-41480000D02*
X102715000Y-41480000D01*
X105255000Y-41480000D02*
X104052919Y-41480000D01*
X98175001Y-40140001D02*
X99515000Y-41480000D01*
X81775001Y-40140001D02*
X98175001Y-40140001D01*
X81375000Y-39740000D02*
X81775001Y-40140001D01*
X5782898Y-39740000D02*
X81375000Y-39740000D01*
X99515000Y-41480000D02*
X102715000Y-41480000D01*
X3782898Y-41740000D02*
X5782898Y-39740000D01*
X102715000Y-44020000D02*
X105255000Y-44020000D01*
X98474999Y-46640001D02*
X101095000Y-44020000D01*
X81175000Y-40340000D02*
X87475001Y-46640001D01*
X87475001Y-46640001D02*
X98474999Y-46640001D01*
X13175000Y-41940000D02*
X13175000Y-41740000D01*
X14575000Y-40340000D02*
X81175000Y-40340000D01*
X13175000Y-41740000D02*
X14575000Y-40340000D01*
X101095000Y-44020000D02*
X102715000Y-44020000D01*
X102715000Y-46560000D02*
X105255000Y-46560000D01*
X22967102Y-41947898D02*
X20975000Y-43940000D01*
X20975000Y-45340000D02*
X22975000Y-47340000D01*
X20975000Y-43940000D02*
X20975000Y-45340000D01*
X22975000Y-41947898D02*
X22967102Y-41947898D01*
X22975000Y-47340000D02*
X101935000Y-47340000D01*
X101935000Y-47340000D02*
X102715000Y-46560000D01*
X102715000Y-49100000D02*
X105255000Y-49100000D01*
X33375000Y-48140000D02*
X101755000Y-48140000D01*
X101755000Y-48140000D02*
X102715000Y-49100000D01*
X116752919Y-66880000D02*
X115415000Y-66880000D01*
X117955000Y-66880000D02*
X116752919Y-66880000D01*
X120115000Y-66880000D02*
X117955000Y-66880000D01*
X120175000Y-66940000D02*
X120115000Y-66880000D01*
X120175000Y-71140000D02*
X120175000Y-66940000D01*
X116752919Y-61800000D02*
X115415000Y-61800000D01*
X117955000Y-61800000D02*
X116752919Y-61800000D01*
X60835000Y-41400000D02*
X61182898Y-41747898D01*
X121775000Y-67340000D02*
X121775000Y-64140000D01*
X119435000Y-61800000D02*
X117955000Y-61800000D01*
X121775000Y-64140000D02*
X119435000Y-61800000D01*
D19*
X110335000Y-71960000D02*
X110335000Y-74500000D01*
X100175000Y-38940000D02*
X102715000Y-38940000D01*
X105255000Y-38940000D02*
X102715000Y-38940000D01*
D18*
X90710000Y-74930000D02*
X93400000Y-77620000D01*
X86565000Y-74930000D02*
X90710000Y-74930000D01*
X83875000Y-77620000D02*
X86565000Y-74930000D01*
X45775000Y-77620000D02*
X48445989Y-74949011D01*
X24054011Y-74949011D02*
X25725001Y-76620001D01*
X67495989Y-74949011D02*
X71679011Y-74949011D01*
X44775001Y-76620001D02*
X45775000Y-77620000D01*
X81204011Y-74949011D02*
X82875001Y-76620001D01*
X64825000Y-77620000D02*
X67495989Y-74949011D01*
X48445989Y-74949011D02*
X52629011Y-74949011D01*
X43104011Y-74949011D02*
X44775001Y-76620001D01*
X77020989Y-74949011D02*
X81204011Y-74949011D01*
X38920989Y-74949011D02*
X43104011Y-74949011D01*
X62154011Y-74949011D02*
X63825001Y-76620001D01*
X52629011Y-74949011D02*
X54300001Y-76620001D01*
X63825001Y-76620001D02*
X64825000Y-77620000D01*
X26725000Y-77620000D02*
X29395989Y-74949011D01*
X71679011Y-74949011D02*
X73350001Y-76620001D01*
X29395989Y-74949011D02*
X33579011Y-74949011D01*
X17200000Y-77620000D02*
X19870989Y-74949011D01*
X16200001Y-76620001D02*
X17200000Y-77620000D01*
X19870989Y-74949011D02*
X24054011Y-74949011D01*
X35250001Y-76620001D02*
X36250000Y-77620000D01*
X25725001Y-76620001D02*
X26725000Y-77620000D01*
X74350000Y-77620000D02*
X77020989Y-74949011D01*
X33579011Y-74949011D02*
X35250001Y-76620001D01*
X57970989Y-74949011D02*
X62154011Y-74949011D01*
X55300000Y-77620000D02*
X57970989Y-74949011D01*
X73350001Y-76620001D02*
X74350000Y-77620000D01*
X82875001Y-76620001D02*
X83875000Y-77620000D01*
X36250000Y-77620000D02*
X38920989Y-74949011D01*
X54300001Y-76620001D02*
X55300000Y-77620000D01*
X103917081Y-64340000D02*
X105255000Y-64340000D01*
X102715000Y-64340000D02*
X103917081Y-64340000D01*
X7675000Y-77620000D02*
X10345989Y-74949011D01*
X10345989Y-74949011D02*
X14529011Y-74949011D01*
X14529011Y-74949011D02*
X16200001Y-76620001D01*
X93400000Y-71120000D02*
X100180000Y-64340000D01*
X100180000Y-64340000D02*
X102715000Y-64340000D01*
X116804999Y-50250001D02*
X117955000Y-49100000D01*
X115967001Y-52790001D02*
X116804999Y-51952003D01*
X112562997Y-52790001D02*
X115967001Y-52790001D01*
X111724999Y-54492003D02*
X111724999Y-53627999D01*
X99175000Y-59140000D02*
X99175000Y-56540000D01*
X110647003Y-55569999D02*
X111724999Y-54492003D01*
X116804999Y-51952003D02*
X116804999Y-50250001D01*
X100145001Y-55569999D02*
X110647003Y-55569999D01*
X99175000Y-56540000D02*
X100145001Y-55569999D01*
X111724999Y-53627999D02*
X112562997Y-52790001D01*
X-25000Y-56125002D02*
X2989998Y-59140000D01*
X2989998Y-59140000D02*
X99175000Y-59140000D01*
X-25000Y-55820000D02*
X-25000Y-56125002D01*
X-4825000Y-51020000D02*
X-25000Y-55820000D01*
X-4825000Y-48480000D02*
X975000Y-54280000D01*
X10098311Y-54209990D02*
X99244990Y-54209990D01*
X10028301Y-54280000D02*
X10098311Y-54209990D01*
X975000Y-54280000D02*
X10028301Y-54280000D01*
X115967001Y-50250001D02*
X116804999Y-49412003D01*
X116804999Y-47710001D02*
X117955000Y-46560000D01*
X112562997Y-50250001D02*
X115967001Y-50250001D01*
X111724999Y-51087999D02*
X112562997Y-50250001D01*
X111724999Y-52192001D02*
X111724999Y-51087999D01*
X111126999Y-52790001D02*
X111724999Y-52192001D01*
X116804999Y-49412003D02*
X116804999Y-47710001D01*
X99244990Y-54209990D02*
X100664979Y-52790001D01*
X100664979Y-52790001D02*
X111126999Y-52790001D01*
X116752919Y-56720000D02*
X115415000Y-56720000D01*
X117955000Y-56720000D02*
X116752919Y-56720000D01*
X114264999Y-57870001D02*
X115415000Y-56720000D01*
X104942997Y-57870001D02*
X114264999Y-57870001D01*
X-1025000Y-60940000D02*
X1375000Y-63340000D01*
X103267001Y-60410001D02*
X104104999Y-59572003D01*
X-4825000Y-53560000D02*
X-1025000Y-57360000D01*
X2175000Y-63940000D02*
X98975000Y-63940000D01*
X104104999Y-59572003D02*
X104104999Y-58707999D01*
X-1025000Y-57360000D02*
X-1025000Y-60940000D01*
X1375000Y-63340000D02*
X1575000Y-63340000D01*
X104104999Y-58707999D02*
X104942997Y-57870001D01*
X1575000Y-63340000D02*
X2175000Y-63940000D01*
X98975000Y-63940000D02*
X98975000Y-62340000D01*
X100904999Y-60410001D02*
X103267001Y-60410001D01*
X98975000Y-62340000D02*
X100904999Y-60410001D01*
X116617081Y-59260000D02*
X117955000Y-59260000D01*
X115415000Y-59260000D02*
X116617081Y-59260000D01*
X114264999Y-60410001D02*
X115415000Y-59260000D01*
X110022997Y-60410001D02*
X114264999Y-60410001D01*
X99345010Y-64369990D02*
X100764999Y-62950001D01*
X-1625000Y-60940000D02*
X1804990Y-64369990D01*
X-1625000Y-59300000D02*
X-1625000Y-60940000D01*
X109184999Y-61247999D02*
X110022997Y-60410001D01*
X109184999Y-62112003D02*
X109184999Y-61247999D01*
X108347001Y-62950001D02*
X109184999Y-62112003D01*
X1804990Y-64369990D02*
X99345010Y-64369990D01*
X-4825000Y-56100000D02*
X-1625000Y-59300000D01*
X100764999Y-62950001D02*
X108347001Y-62950001D01*
D19*
X117955000Y-71960000D02*
X117955000Y-74500000D01*
D18*
X116804999Y-70809999D02*
X117955000Y-71960000D01*
X114264999Y-69972001D02*
X115102997Y-70809999D01*
X114264999Y-68867999D02*
X114264999Y-69972001D01*
X107482997Y-68269999D02*
X113666999Y-68269999D01*
X97485040Y-72629960D02*
X97485040Y-69429960D01*
X106644999Y-66419997D02*
X106644999Y-67432001D01*
X105855001Y-65629999D02*
X106644999Y-66419997D01*
X101285001Y-65629999D02*
X105855001Y-65629999D01*
X2502841Y-72490010D02*
X2642791Y-72629960D01*
X97485040Y-69429960D02*
X101285001Y-65629999D01*
X2642791Y-72629960D02*
X97485040Y-72629960D01*
X113666999Y-68269999D02*
X114264999Y-68867999D01*
X125010Y-63590010D02*
X125010Y-72490010D01*
X125010Y-72490010D02*
X2502841Y-72490010D01*
X106644999Y-67432001D02*
X107482997Y-68269999D01*
X115102997Y-70809999D02*
X116804999Y-70809999D01*
X-4825000Y-58640000D02*
X125010Y-63590010D01*
D19*
X102715000Y-71960000D02*
X102715000Y-74500000D01*
X102594990Y-74379990D02*
X102715000Y-74500000D01*
X-1585010Y-74379990D02*
X102594990Y-74379990D01*
X-1671002Y-74293998D02*
X-1585010Y-74379990D01*
X-1671002Y-69413998D02*
X-1671002Y-74293998D01*
X-4825000Y-66260000D02*
X-1671002Y-69413998D01*
X102715000Y-69420000D02*
X105255000Y-69420000D01*
X-985020Y-73779980D02*
X100355020Y-73779980D01*
X-1070992Y-73694008D02*
X-985020Y-73779980D01*
X-1070993Y-67474007D02*
X-1070992Y-73694008D01*
X-4825000Y-63720000D02*
X-1070993Y-67474007D01*
X100355020Y-73779980D02*
X100355020Y-71759980D01*
X102695000Y-69420000D02*
X102715000Y-69420000D01*
X100355020Y-71759980D02*
X102695000Y-69420000D01*
X105255000Y-66880000D02*
X102715000Y-66880000D01*
X2414970Y-73179970D02*
X3135030Y-73179970D01*
X2375000Y-73140000D02*
X2414970Y-73179970D01*
X-4825000Y-61180000D02*
X-425000Y-65580000D01*
X3135030Y-73179970D02*
X98415030Y-73179970D01*
X-425000Y-73140000D02*
X2375000Y-73140000D01*
X-425000Y-65580000D02*
X-425000Y-73140000D01*
X2814970Y-73179970D02*
X3135030Y-73179970D01*
X101414999Y-68180001D02*
X102715000Y-66880000D01*
X101414999Y-69100001D02*
X101414999Y-68180001D01*
X98415030Y-72099970D02*
X101414999Y-69100001D01*
X98415030Y-73179970D02*
X98415030Y-72099970D01*
X120495000Y-44020000D02*
X117955000Y-44020000D01*
X117955000Y-44020000D02*
X115415000Y-44020000D01*
X120495000Y-38940000D02*
X117955000Y-38940000D01*
X117955000Y-38940000D02*
X115415000Y-38940000D01*
D18*
X119157081Y-41480000D02*
X120495000Y-41480000D01*
X117955000Y-41480000D02*
X119157081Y-41480000D01*
X105255000Y-73162081D02*
X105255000Y-74500000D01*
X105255000Y-71960000D02*
X105255000Y-73162081D01*
X115415000Y-73162081D02*
X115415000Y-74500000D01*
X115415000Y-71960000D02*
X115415000Y-73162081D01*
X107795000Y-71960000D02*
X107795000Y-74500000D01*
X112875000Y-73297919D02*
X112875000Y-71960000D01*
X112875000Y-74500000D02*
X112875000Y-73297919D01*
X114212919Y-46560000D02*
X112875000Y-46560000D01*
X115415000Y-46560000D02*
X114212919Y-46560000D01*
X114077081Y-51640000D02*
X115415000Y-51640000D01*
X112875000Y-51640000D02*
X114077081Y-51640000D01*
X114212919Y-41480000D02*
X112875000Y-41480000D01*
X115415000Y-41480000D02*
X114212919Y-41480000D01*
X115415000Y-49100000D02*
X112875000Y-49100000D01*
D20*
X129865001Y-78505907D02*
X127741042Y-80629867D01*
X-3965774Y-80570134D01*
X-5640028Y-78895880D01*
X-4562919Y-78895880D01*
X-4434804Y-79377312D01*
X-3967394Y-79648380D01*
X-3456082Y-79823052D01*
X-2920519Y-79894616D01*
X-2381285Y-79860322D01*
X-1859102Y-79721487D01*
X-1374039Y-79483447D01*
X-1215196Y-79377312D01*
X-1193526Y-79295880D01*
X124637081Y-79295880D01*
X124765196Y-79777312D01*
X125232606Y-80048380D01*
X125743918Y-80223052D01*
X126279481Y-80294616D01*
X126818715Y-80260322D01*
X127340898Y-80121487D01*
X127825961Y-79883447D01*
X127984804Y-79777312D01*
X128112919Y-79295880D01*
X126375000Y-77557961D01*
X124637081Y-79295880D01*
X-1193526Y-79295880D01*
X-1087081Y-78895880D01*
X-2825000Y-77157961D01*
X-4562919Y-78895880D01*
X-5640028Y-78895880D01*
X-6090175Y-78445734D01*
X-6091005Y-77044481D01*
X-5579616Y-77044481D01*
X-5545322Y-77583715D01*
X-5406487Y-78105898D01*
X-5168447Y-78590961D01*
X-5062312Y-78749804D01*
X-4580880Y-78877919D01*
X-2842961Y-77140000D01*
X-2807039Y-77140000D01*
X-1069120Y-78877919D01*
X-587688Y-78749804D01*
X-316620Y-78282394D01*
X-141948Y-77771082D01*
X-100242Y-77458967D01*
X1540000Y-77458967D01*
X1540000Y-77781033D01*
X1602832Y-78096912D01*
X1726082Y-78394463D01*
X1905013Y-78662252D01*
X2132748Y-78889987D01*
X2400537Y-79068918D01*
X2698088Y-79192168D01*
X3013967Y-79255000D01*
X3336033Y-79255000D01*
X3651912Y-79192168D01*
X3949463Y-79068918D01*
X4217252Y-78889987D01*
X4444987Y-78662252D01*
X4623918Y-78394463D01*
X4747168Y-78096912D01*
X4810000Y-77781033D01*
X4810000Y-77458967D01*
X4747168Y-77143088D01*
X4623918Y-76845537D01*
X4444987Y-76577748D01*
X4217252Y-76350013D01*
X3949463Y-76171082D01*
X3651912Y-76047832D01*
X3336033Y-75985000D01*
X3013967Y-75985000D01*
X2698088Y-76047832D01*
X2400537Y-76171082D01*
X2132748Y-76350013D01*
X1905013Y-76577748D01*
X1726082Y-76845537D01*
X1602832Y-77143088D01*
X1540000Y-77458967D01*
X-100242Y-77458967D01*
X-70384Y-77235519D01*
X-104678Y-76696285D01*
X-243513Y-76174102D01*
X-481553Y-75689039D01*
X-587688Y-75530196D01*
X-1069120Y-75402081D01*
X-2807039Y-77140000D01*
X-2842961Y-77140000D01*
X-4580880Y-75402081D01*
X-5062312Y-75530196D01*
X-5333380Y-75997606D01*
X-5508052Y-76508918D01*
X-5579616Y-77044481D01*
X-6091005Y-77044481D01*
X-6096938Y-67029340D01*
X-5978475Y-67206632D01*
X-5771632Y-67413475D01*
X-5528411Y-67575990D01*
X-5258158Y-67687932D01*
X-4971260Y-67745000D01*
X-4678740Y-67745000D01*
X-4488082Y-67707075D01*
X-2456002Y-69739155D01*
X-2456001Y-74255435D01*
X-2459799Y-74293998D01*
X-2447082Y-74423119D01*
X-2729481Y-74385384D01*
X-3268715Y-74419678D01*
X-3790898Y-74558513D01*
X-4275961Y-74796553D01*
X-4434804Y-74902688D01*
X-4562919Y-75384120D01*
X-2825000Y-77122039D01*
X-1087081Y-75384120D01*
X-1145394Y-75164990D01*
X9090563Y-75164990D01*
X8191375Y-76064178D01*
X8151912Y-76047832D01*
X7836033Y-75985000D01*
X7513967Y-75985000D01*
X7198088Y-76047832D01*
X6900537Y-76171082D01*
X6632748Y-76350013D01*
X6405013Y-76577748D01*
X6226082Y-76845537D01*
X6102832Y-77143088D01*
X6040000Y-77458967D01*
X6040000Y-77781033D01*
X6102832Y-78096912D01*
X6226082Y-78394463D01*
X6405013Y-78662252D01*
X6632748Y-78889987D01*
X6900537Y-79068918D01*
X7198088Y-79192168D01*
X7513967Y-79255000D01*
X7836033Y-79255000D01*
X8151912Y-79192168D01*
X8449463Y-79068918D01*
X8717252Y-78889987D01*
X8944987Y-78662252D01*
X9123918Y-78394463D01*
X9247168Y-78096912D01*
X9310000Y-77781033D01*
X9310000Y-77458967D01*
X11065000Y-77458967D01*
X11065000Y-77781033D01*
X11127832Y-78096912D01*
X11251082Y-78394463D01*
X11430013Y-78662252D01*
X11657748Y-78889987D01*
X11925537Y-79068918D01*
X12223088Y-79192168D01*
X12538967Y-79255000D01*
X12861033Y-79255000D01*
X13176912Y-79192168D01*
X13474463Y-79068918D01*
X13742252Y-78889987D01*
X13969987Y-78662252D01*
X14148918Y-78394463D01*
X14272168Y-78096912D01*
X14335000Y-77781033D01*
X14335000Y-77458967D01*
X14272168Y-77143088D01*
X14148918Y-76845537D01*
X13969987Y-76577748D01*
X13742252Y-76350013D01*
X13474463Y-76171082D01*
X13176912Y-76047832D01*
X12861033Y-75985000D01*
X12538967Y-75985000D01*
X12223088Y-76047832D01*
X11925537Y-76171082D01*
X11657748Y-76350013D01*
X11430013Y-76577748D01*
X11251082Y-76845537D01*
X11127832Y-77143088D01*
X11065000Y-77458967D01*
X9310000Y-77458967D01*
X9247168Y-77143088D01*
X9230822Y-77103625D01*
X10650436Y-75684011D01*
X14224565Y-75684011D01*
X15644178Y-77103625D01*
X15627832Y-77143088D01*
X15565000Y-77458967D01*
X15565000Y-77781033D01*
X15627832Y-78096912D01*
X15751082Y-78394463D01*
X15930013Y-78662252D01*
X16157748Y-78889987D01*
X16425537Y-79068918D01*
X16723088Y-79192168D01*
X17038967Y-79255000D01*
X17361033Y-79255000D01*
X17676912Y-79192168D01*
X17974463Y-79068918D01*
X18242252Y-78889987D01*
X18469987Y-78662252D01*
X18648918Y-78394463D01*
X18772168Y-78096912D01*
X18835000Y-77781033D01*
X18835000Y-77458967D01*
X20590000Y-77458967D01*
X20590000Y-77781033D01*
X20652832Y-78096912D01*
X20776082Y-78394463D01*
X20955013Y-78662252D01*
X21182748Y-78889987D01*
X21450537Y-79068918D01*
X21748088Y-79192168D01*
X22063967Y-79255000D01*
X22386033Y-79255000D01*
X22701912Y-79192168D01*
X22999463Y-79068918D01*
X23267252Y-78889987D01*
X23494987Y-78662252D01*
X23673918Y-78394463D01*
X23797168Y-78096912D01*
X23860000Y-77781033D01*
X23860000Y-77458967D01*
X23797168Y-77143088D01*
X23673918Y-76845537D01*
X23494987Y-76577748D01*
X23267252Y-76350013D01*
X22999463Y-76171082D01*
X22701912Y-76047832D01*
X22386033Y-75985000D01*
X22063967Y-75985000D01*
X21748088Y-76047832D01*
X21450537Y-76171082D01*
X21182748Y-76350013D01*
X20955013Y-76577748D01*
X20776082Y-76845537D01*
X20652832Y-77143088D01*
X20590000Y-77458967D01*
X18835000Y-77458967D01*
X18772168Y-77143088D01*
X18755822Y-77103625D01*
X20175436Y-75684011D01*
X23749565Y-75684011D01*
X25169178Y-77103625D01*
X25152832Y-77143088D01*
X25090000Y-77458967D01*
X25090000Y-77781033D01*
X25152832Y-78096912D01*
X25276082Y-78394463D01*
X25455013Y-78662252D01*
X25682748Y-78889987D01*
X25950537Y-79068918D01*
X26248088Y-79192168D01*
X26563967Y-79255000D01*
X26886033Y-79255000D01*
X27201912Y-79192168D01*
X27499463Y-79068918D01*
X27767252Y-78889987D01*
X27994987Y-78662252D01*
X28173918Y-78394463D01*
X28297168Y-78096912D01*
X28360000Y-77781033D01*
X28360000Y-77458967D01*
X30115000Y-77458967D01*
X30115000Y-77781033D01*
X30177832Y-78096912D01*
X30301082Y-78394463D01*
X30480013Y-78662252D01*
X30707748Y-78889987D01*
X30975537Y-79068918D01*
X31273088Y-79192168D01*
X31588967Y-79255000D01*
X31911033Y-79255000D01*
X32226912Y-79192168D01*
X32524463Y-79068918D01*
X32792252Y-78889987D01*
X33019987Y-78662252D01*
X33198918Y-78394463D01*
X33322168Y-78096912D01*
X33385000Y-77781033D01*
X33385000Y-77458967D01*
X33322168Y-77143088D01*
X33198918Y-76845537D01*
X33019987Y-76577748D01*
X32792252Y-76350013D01*
X32524463Y-76171082D01*
X32226912Y-76047832D01*
X31911033Y-75985000D01*
X31588967Y-75985000D01*
X31273088Y-76047832D01*
X30975537Y-76171082D01*
X30707748Y-76350013D01*
X30480013Y-76577748D01*
X30301082Y-76845537D01*
X30177832Y-77143088D01*
X30115000Y-77458967D01*
X28360000Y-77458967D01*
X28297168Y-77143088D01*
X28280822Y-77103625D01*
X29700436Y-75684011D01*
X33274565Y-75684011D01*
X34694178Y-77103625D01*
X34677832Y-77143088D01*
X34615000Y-77458967D01*
X34615000Y-77781033D01*
X34677832Y-78096912D01*
X34801082Y-78394463D01*
X34980013Y-78662252D01*
X35207748Y-78889987D01*
X35475537Y-79068918D01*
X35773088Y-79192168D01*
X36088967Y-79255000D01*
X36411033Y-79255000D01*
X36726912Y-79192168D01*
X37024463Y-79068918D01*
X37292252Y-78889987D01*
X37519987Y-78662252D01*
X37698918Y-78394463D01*
X37822168Y-78096912D01*
X37885000Y-77781033D01*
X37885000Y-77458967D01*
X39640000Y-77458967D01*
X39640000Y-77781033D01*
X39702832Y-78096912D01*
X39826082Y-78394463D01*
X40005013Y-78662252D01*
X40232748Y-78889987D01*
X40500537Y-79068918D01*
X40798088Y-79192168D01*
X41113967Y-79255000D01*
X41436033Y-79255000D01*
X41751912Y-79192168D01*
X42049463Y-79068918D01*
X42317252Y-78889987D01*
X42544987Y-78662252D01*
X42723918Y-78394463D01*
X42847168Y-78096912D01*
X42910000Y-77781033D01*
X42910000Y-77458967D01*
X42847168Y-77143088D01*
X42723918Y-76845537D01*
X42544987Y-76577748D01*
X42317252Y-76350013D01*
X42049463Y-76171082D01*
X41751912Y-76047832D01*
X41436033Y-75985000D01*
X41113967Y-75985000D01*
X40798088Y-76047832D01*
X40500537Y-76171082D01*
X40232748Y-76350013D01*
X40005013Y-76577748D01*
X39826082Y-76845537D01*
X39702832Y-77143088D01*
X39640000Y-77458967D01*
X37885000Y-77458967D01*
X37822168Y-77143088D01*
X37805822Y-77103625D01*
X39225436Y-75684011D01*
X42799565Y-75684011D01*
X44219178Y-77103625D01*
X44202832Y-77143088D01*
X44140000Y-77458967D01*
X44140000Y-77781033D01*
X44202832Y-78096912D01*
X44326082Y-78394463D01*
X44505013Y-78662252D01*
X44732748Y-78889987D01*
X45000537Y-79068918D01*
X45298088Y-79192168D01*
X45613967Y-79255000D01*
X45936033Y-79255000D01*
X46251912Y-79192168D01*
X46549463Y-79068918D01*
X46817252Y-78889987D01*
X47044987Y-78662252D01*
X47223918Y-78394463D01*
X47347168Y-78096912D01*
X47410000Y-77781033D01*
X47410000Y-77458967D01*
X49165000Y-77458967D01*
X49165000Y-77781033D01*
X49227832Y-78096912D01*
X49351082Y-78394463D01*
X49530013Y-78662252D01*
X49757748Y-78889987D01*
X50025537Y-79068918D01*
X50323088Y-79192168D01*
X50638967Y-79255000D01*
X50961033Y-79255000D01*
X51276912Y-79192168D01*
X51574463Y-79068918D01*
X51842252Y-78889987D01*
X52069987Y-78662252D01*
X52248918Y-78394463D01*
X52372168Y-78096912D01*
X52435000Y-77781033D01*
X52435000Y-77458967D01*
X52372168Y-77143088D01*
X52248918Y-76845537D01*
X52069987Y-76577748D01*
X51842252Y-76350013D01*
X51574463Y-76171082D01*
X51276912Y-76047832D01*
X50961033Y-75985000D01*
X50638967Y-75985000D01*
X50323088Y-76047832D01*
X50025537Y-76171082D01*
X49757748Y-76350013D01*
X49530013Y-76577748D01*
X49351082Y-76845537D01*
X49227832Y-77143088D01*
X49165000Y-77458967D01*
X47410000Y-77458967D01*
X47347168Y-77143088D01*
X47330822Y-77103625D01*
X48750436Y-75684011D01*
X52324565Y-75684011D01*
X53744178Y-77103625D01*
X53727832Y-77143088D01*
X53665000Y-77458967D01*
X53665000Y-77781033D01*
X53727832Y-78096912D01*
X53851082Y-78394463D01*
X54030013Y-78662252D01*
X54257748Y-78889987D01*
X54525537Y-79068918D01*
X54823088Y-79192168D01*
X55138967Y-79255000D01*
X55461033Y-79255000D01*
X55776912Y-79192168D01*
X56074463Y-79068918D01*
X56342252Y-78889987D01*
X56569987Y-78662252D01*
X56748918Y-78394463D01*
X56872168Y-78096912D01*
X56935000Y-77781033D01*
X56935000Y-77458967D01*
X58690000Y-77458967D01*
X58690000Y-77781033D01*
X58752832Y-78096912D01*
X58876082Y-78394463D01*
X59055013Y-78662252D01*
X59282748Y-78889987D01*
X59550537Y-79068918D01*
X59848088Y-79192168D01*
X60163967Y-79255000D01*
X60486033Y-79255000D01*
X60801912Y-79192168D01*
X61099463Y-79068918D01*
X61367252Y-78889987D01*
X61594987Y-78662252D01*
X61773918Y-78394463D01*
X61897168Y-78096912D01*
X61960000Y-77781033D01*
X61960000Y-77458967D01*
X61897168Y-77143088D01*
X61773918Y-76845537D01*
X61594987Y-76577748D01*
X61367252Y-76350013D01*
X61099463Y-76171082D01*
X60801912Y-76047832D01*
X60486033Y-75985000D01*
X60163967Y-75985000D01*
X59848088Y-76047832D01*
X59550537Y-76171082D01*
X59282748Y-76350013D01*
X59055013Y-76577748D01*
X58876082Y-76845537D01*
X58752832Y-77143088D01*
X58690000Y-77458967D01*
X56935000Y-77458967D01*
X56872168Y-77143088D01*
X56855822Y-77103625D01*
X58275436Y-75684011D01*
X61849565Y-75684011D01*
X63269178Y-77103625D01*
X63252832Y-77143088D01*
X63190000Y-77458967D01*
X63190000Y-77781033D01*
X63252832Y-78096912D01*
X63376082Y-78394463D01*
X63555013Y-78662252D01*
X63782748Y-78889987D01*
X64050537Y-79068918D01*
X64348088Y-79192168D01*
X64663967Y-79255000D01*
X64986033Y-79255000D01*
X65301912Y-79192168D01*
X65599463Y-79068918D01*
X65867252Y-78889987D01*
X66094987Y-78662252D01*
X66273918Y-78394463D01*
X66397168Y-78096912D01*
X66460000Y-77781033D01*
X66460000Y-77458967D01*
X68215000Y-77458967D01*
X68215000Y-77781033D01*
X68277832Y-78096912D01*
X68401082Y-78394463D01*
X68580013Y-78662252D01*
X68807748Y-78889987D01*
X69075537Y-79068918D01*
X69373088Y-79192168D01*
X69688967Y-79255000D01*
X70011033Y-79255000D01*
X70326912Y-79192168D01*
X70624463Y-79068918D01*
X70892252Y-78889987D01*
X71119987Y-78662252D01*
X71298918Y-78394463D01*
X71422168Y-78096912D01*
X71485000Y-77781033D01*
X71485000Y-77458967D01*
X71422168Y-77143088D01*
X71298918Y-76845537D01*
X71119987Y-76577748D01*
X70892252Y-76350013D01*
X70624463Y-76171082D01*
X70326912Y-76047832D01*
X70011033Y-75985000D01*
X69688967Y-75985000D01*
X69373088Y-76047832D01*
X69075537Y-76171082D01*
X68807748Y-76350013D01*
X68580013Y-76577748D01*
X68401082Y-76845537D01*
X68277832Y-77143088D01*
X68215000Y-77458967D01*
X66460000Y-77458967D01*
X66397168Y-77143088D01*
X66380822Y-77103625D01*
X67800436Y-75684011D01*
X71374565Y-75684011D01*
X72794178Y-77103625D01*
X72777832Y-77143088D01*
X72715000Y-77458967D01*
X72715000Y-77781033D01*
X72777832Y-78096912D01*
X72901082Y-78394463D01*
X73080013Y-78662252D01*
X73307748Y-78889987D01*
X73575537Y-79068918D01*
X73873088Y-79192168D01*
X74188967Y-79255000D01*
X74511033Y-79255000D01*
X74826912Y-79192168D01*
X75124463Y-79068918D01*
X75392252Y-78889987D01*
X75619987Y-78662252D01*
X75798918Y-78394463D01*
X75922168Y-78096912D01*
X75985000Y-77781033D01*
X75985000Y-77458967D01*
X77740000Y-77458967D01*
X77740000Y-77781033D01*
X77802832Y-78096912D01*
X77926082Y-78394463D01*
X78105013Y-78662252D01*
X78332748Y-78889987D01*
X78600537Y-79068918D01*
X78898088Y-79192168D01*
X79213967Y-79255000D01*
X79536033Y-79255000D01*
X79851912Y-79192168D01*
X80149463Y-79068918D01*
X80417252Y-78889987D01*
X80644987Y-78662252D01*
X80823918Y-78394463D01*
X80947168Y-78096912D01*
X81010000Y-77781033D01*
X81010000Y-77458967D01*
X80947168Y-77143088D01*
X80823918Y-76845537D01*
X80644987Y-76577748D01*
X80417252Y-76350013D01*
X80149463Y-76171082D01*
X79851912Y-76047832D01*
X79536033Y-75985000D01*
X79213967Y-75985000D01*
X78898088Y-76047832D01*
X78600537Y-76171082D01*
X78332748Y-76350013D01*
X78105013Y-76577748D01*
X77926082Y-76845537D01*
X77802832Y-77143088D01*
X77740000Y-77458967D01*
X75985000Y-77458967D01*
X75922168Y-77143088D01*
X75905822Y-77103625D01*
X77325436Y-75684011D01*
X80899565Y-75684011D01*
X82319178Y-77103625D01*
X82302832Y-77143088D01*
X82240000Y-77458967D01*
X82240000Y-77781033D01*
X82302832Y-78096912D01*
X82426082Y-78394463D01*
X82605013Y-78662252D01*
X82832748Y-78889987D01*
X83100537Y-79068918D01*
X83398088Y-79192168D01*
X83713967Y-79255000D01*
X84036033Y-79255000D01*
X84351912Y-79192168D01*
X84649463Y-79068918D01*
X84917252Y-78889987D01*
X85144987Y-78662252D01*
X85323918Y-78394463D01*
X85447168Y-78096912D01*
X85510000Y-77781033D01*
X85510000Y-77458967D01*
X87265000Y-77458967D01*
X87265000Y-77781033D01*
X87327832Y-78096912D01*
X87451082Y-78394463D01*
X87630013Y-78662252D01*
X87857748Y-78889987D01*
X88125537Y-79068918D01*
X88423088Y-79192168D01*
X88738967Y-79255000D01*
X89061033Y-79255000D01*
X89376912Y-79192168D01*
X89674463Y-79068918D01*
X89942252Y-78889987D01*
X90169987Y-78662252D01*
X90348918Y-78394463D01*
X90472168Y-78096912D01*
X90535000Y-77781033D01*
X90535000Y-77458967D01*
X90472168Y-77143088D01*
X90348918Y-76845537D01*
X90169987Y-76577748D01*
X89942252Y-76350013D01*
X89674463Y-76171082D01*
X89376912Y-76047832D01*
X89061033Y-75985000D01*
X88738967Y-75985000D01*
X88423088Y-76047832D01*
X88125537Y-76171082D01*
X87857748Y-76350013D01*
X87630013Y-76577748D01*
X87451082Y-76845537D01*
X87327832Y-77143088D01*
X87265000Y-77458967D01*
X85510000Y-77458967D01*
X85447168Y-77143088D01*
X85430822Y-77103625D01*
X86869447Y-75665000D01*
X90405554Y-75665000D01*
X91844178Y-77103625D01*
X91827832Y-77143088D01*
X91765000Y-77458967D01*
X91765000Y-77781033D01*
X91827832Y-78096912D01*
X91951082Y-78394463D01*
X92130013Y-78662252D01*
X92357748Y-78889987D01*
X92625537Y-79068918D01*
X92923088Y-79192168D01*
X93238967Y-79255000D01*
X93561033Y-79255000D01*
X93876912Y-79192168D01*
X94174463Y-79068918D01*
X94442252Y-78889987D01*
X94669987Y-78662252D01*
X94848918Y-78394463D01*
X94972168Y-78096912D01*
X95035000Y-77781033D01*
X95035000Y-77458967D01*
X95032119Y-77444481D01*
X123620384Y-77444481D01*
X123654678Y-77983715D01*
X123793513Y-78505898D01*
X124031553Y-78990961D01*
X124137688Y-79149804D01*
X124619120Y-79277919D01*
X126357039Y-77540000D01*
X126392961Y-77540000D01*
X128130880Y-79277919D01*
X128612312Y-79149804D01*
X128883380Y-78682394D01*
X129058052Y-78171082D01*
X129129616Y-77635519D01*
X129095322Y-77096285D01*
X128956487Y-76574102D01*
X128718447Y-76089039D01*
X128612312Y-75930196D01*
X128130880Y-75802081D01*
X126392961Y-77540000D01*
X126357039Y-77540000D01*
X124619120Y-75802081D01*
X124137688Y-75930196D01*
X123866620Y-76397606D01*
X123691948Y-76908918D01*
X123620384Y-77444481D01*
X95032119Y-77444481D01*
X94972168Y-77143088D01*
X94848918Y-76845537D01*
X94669987Y-76577748D01*
X94442252Y-76350013D01*
X94174463Y-76171082D01*
X93876912Y-76047832D01*
X93561033Y-75985000D01*
X93238967Y-75985000D01*
X92923088Y-76047832D01*
X92883625Y-76064178D01*
X91984436Y-75164990D01*
X101383096Y-75164990D01*
X101399010Y-75203411D01*
X101561525Y-75446632D01*
X101768368Y-75653475D01*
X102011589Y-75815990D01*
X102281842Y-75927932D01*
X102568740Y-75985000D01*
X102861260Y-75985000D01*
X103148158Y-75927932D01*
X103418411Y-75815990D01*
X103661632Y-75653475D01*
X103868475Y-75446632D01*
X103985000Y-75272240D01*
X104101525Y-75446632D01*
X104308368Y-75653475D01*
X104551589Y-75815990D01*
X104821842Y-75927932D01*
X105108740Y-75985000D01*
X105401260Y-75985000D01*
X105688158Y-75927932D01*
X105958411Y-75815990D01*
X106201632Y-75653475D01*
X106408475Y-75446632D01*
X106525000Y-75272240D01*
X106641525Y-75446632D01*
X106848368Y-75653475D01*
X107091589Y-75815990D01*
X107361842Y-75927932D01*
X107648740Y-75985000D01*
X107941260Y-75985000D01*
X108228158Y-75927932D01*
X108498411Y-75815990D01*
X108637619Y-75722974D01*
X109129987Y-75722974D01*
X109168174Y-76127605D01*
X109508124Y-76323967D01*
X109879851Y-76450236D01*
X110269069Y-76501558D01*
X110660820Y-76475961D01*
X111040050Y-76374429D01*
X111392185Y-76200864D01*
X111501826Y-76127605D01*
X111540013Y-75722974D01*
X110335000Y-74517961D01*
X109129987Y-75722974D01*
X108637619Y-75722974D01*
X108719886Y-75668005D01*
X109112026Y-75705013D01*
X110317039Y-74500000D01*
X110302897Y-74485858D01*
X110320858Y-74467897D01*
X110335000Y-74482039D01*
X110349142Y-74467897D01*
X110367103Y-74485858D01*
X110352961Y-74500000D01*
X111557974Y-75705013D01*
X111950114Y-75668005D01*
X112171589Y-75815990D01*
X112441842Y-75927932D01*
X112728740Y-75985000D01*
X113021260Y-75985000D01*
X113308158Y-75927932D01*
X113578411Y-75815990D01*
X113821632Y-75653475D01*
X114028475Y-75446632D01*
X114145000Y-75272240D01*
X114261525Y-75446632D01*
X114468368Y-75653475D01*
X114711589Y-75815990D01*
X114981842Y-75927932D01*
X115268740Y-75985000D01*
X115561260Y-75985000D01*
X115848158Y-75927932D01*
X116118411Y-75815990D01*
X116361632Y-75653475D01*
X116568475Y-75446632D01*
X116685000Y-75272240D01*
X116801525Y-75446632D01*
X117008368Y-75653475D01*
X117251589Y-75815990D01*
X117521842Y-75927932D01*
X117808740Y-75985000D01*
X118101260Y-75985000D01*
X118388158Y-75927932D01*
X118658411Y-75815990D01*
X118706107Y-75784120D01*
X124637081Y-75784120D01*
X126375000Y-77522039D01*
X128112919Y-75784120D01*
X127984804Y-75302688D01*
X127517394Y-75031620D01*
X127006082Y-74856948D01*
X126470519Y-74785384D01*
X125931285Y-74819678D01*
X125409102Y-74958513D01*
X124924039Y-75196553D01*
X124765196Y-75302688D01*
X124637081Y-75784120D01*
X118706107Y-75784120D01*
X118901632Y-75653475D01*
X119108475Y-75446632D01*
X119270990Y-75203411D01*
X119382932Y-74933158D01*
X119440000Y-74646260D01*
X119440000Y-74353740D01*
X119382932Y-74066842D01*
X119270990Y-73796589D01*
X119108475Y-73553368D01*
X118901632Y-73346525D01*
X118740000Y-73238526D01*
X118740000Y-73221474D01*
X118901632Y-73113475D01*
X119108475Y-72906632D01*
X119270990Y-72663411D01*
X119382932Y-72393158D01*
X119440000Y-72106260D01*
X119440000Y-71813740D01*
X119433599Y-71781559D01*
X119551625Y-71899585D01*
X119711790Y-72006604D01*
X119889757Y-72080320D01*
X120078685Y-72117900D01*
X120271315Y-72117900D01*
X120460243Y-72080320D01*
X120638210Y-72006604D01*
X120798375Y-71899585D01*
X120934585Y-71763375D01*
X121041604Y-71603210D01*
X121115320Y-71425243D01*
X121152900Y-71236315D01*
X121152900Y-71043685D01*
X121115320Y-70854757D01*
X121041604Y-70676790D01*
X120934585Y-70516625D01*
X120910000Y-70492040D01*
X120910000Y-67805611D01*
X121015415Y-67963375D01*
X121151625Y-68099585D01*
X121311790Y-68206604D01*
X121489757Y-68280320D01*
X121678685Y-68317900D01*
X121871315Y-68317900D01*
X122060243Y-68280320D01*
X122238210Y-68206604D01*
X122398375Y-68099585D01*
X122534585Y-67963375D01*
X122641604Y-67803210D01*
X122715320Y-67625243D01*
X122752900Y-67436315D01*
X122752900Y-67243685D01*
X122715320Y-67054757D01*
X122641604Y-66876790D01*
X122534585Y-66716625D01*
X122510000Y-66692040D01*
X122510000Y-64176105D01*
X122513556Y-64140000D01*
X122499365Y-63995915D01*
X122457337Y-63857366D01*
X122389087Y-63729680D01*
X122320253Y-63645806D01*
X122297238Y-63617762D01*
X122269193Y-63594746D01*
X119980259Y-61305812D01*
X119957238Y-61277762D01*
X119845320Y-61185913D01*
X119717633Y-61117663D01*
X119579085Y-61075635D01*
X119471105Y-61065000D01*
X119435000Y-61061444D01*
X119398895Y-61065000D01*
X119249883Y-61065000D01*
X119108475Y-60853368D01*
X118901632Y-60646525D01*
X118727240Y-60530000D01*
X118901632Y-60413475D01*
X119108475Y-60206632D01*
X119270990Y-59963411D01*
X119382932Y-59693158D01*
X119440000Y-59406260D01*
X119440000Y-59113740D01*
X119382932Y-58826842D01*
X119270990Y-58556589D01*
X119108475Y-58313368D01*
X118901632Y-58106525D01*
X118727240Y-57990000D01*
X118901632Y-57873475D01*
X119108475Y-57666632D01*
X119270990Y-57423411D01*
X119382932Y-57153158D01*
X119440000Y-56866260D01*
X119440000Y-56573740D01*
X119382932Y-56286842D01*
X119270990Y-56016589D01*
X119108475Y-55773368D01*
X118901632Y-55566525D01*
X118727240Y-55450000D01*
X118901632Y-55333475D01*
X119108475Y-55126632D01*
X119270990Y-54883411D01*
X119382932Y-54613158D01*
X119440000Y-54326260D01*
X119440000Y-54033740D01*
X119382932Y-53746842D01*
X119270990Y-53476589D01*
X119108475Y-53233368D01*
X118901632Y-53026525D01*
X118727240Y-52910000D01*
X118901632Y-52793475D01*
X119108475Y-52586632D01*
X119270990Y-52343411D01*
X119382932Y-52073158D01*
X119440000Y-51786260D01*
X119440000Y-51493740D01*
X119382932Y-51206842D01*
X119270990Y-50936589D01*
X119108475Y-50693368D01*
X118901632Y-50486525D01*
X118727240Y-50370000D01*
X118901632Y-50253475D01*
X119108475Y-50046632D01*
X119270990Y-49803411D01*
X119382932Y-49533158D01*
X119440000Y-49246260D01*
X119440000Y-48953740D01*
X119382932Y-48666842D01*
X119270990Y-48396589D01*
X119108475Y-48153368D01*
X118901632Y-47946525D01*
X118727240Y-47830000D01*
X118901632Y-47713475D01*
X119108475Y-47506632D01*
X119270990Y-47263411D01*
X119382932Y-46993158D01*
X119440000Y-46706260D01*
X119440000Y-46413740D01*
X119382932Y-46126842D01*
X119270990Y-45856589D01*
X119108475Y-45613368D01*
X118901632Y-45406525D01*
X118727240Y-45290000D01*
X118901632Y-45173475D01*
X119108475Y-44966632D01*
X119216474Y-44805000D01*
X119233526Y-44805000D01*
X119341525Y-44966632D01*
X119548368Y-45173475D01*
X119791589Y-45335990D01*
X120061842Y-45447932D01*
X120348740Y-45505000D01*
X120641260Y-45505000D01*
X120928158Y-45447932D01*
X121198411Y-45335990D01*
X121441632Y-45173475D01*
X121648475Y-44966632D01*
X121810990Y-44723411D01*
X121922932Y-44453158D01*
X121980000Y-44166260D01*
X121980000Y-43873740D01*
X121922932Y-43586842D01*
X121810990Y-43316589D01*
X121648475Y-43073368D01*
X121441632Y-42866525D01*
X121267240Y-42750000D01*
X121441632Y-42633475D01*
X121579227Y-42495880D01*
X124637081Y-42495880D01*
X124765196Y-42977312D01*
X125232606Y-43248380D01*
X125743918Y-43423052D01*
X126279481Y-43494616D01*
X126818715Y-43460322D01*
X127340898Y-43321487D01*
X127825961Y-43083447D01*
X127984804Y-42977312D01*
X128112919Y-42495880D01*
X126375000Y-40757961D01*
X124637081Y-42495880D01*
X121579227Y-42495880D01*
X121648475Y-42426632D01*
X121810990Y-42183411D01*
X121922932Y-41913158D01*
X121980000Y-41626260D01*
X121980000Y-41333740D01*
X121922932Y-41046842D01*
X121810990Y-40776589D01*
X121722719Y-40644481D01*
X123620384Y-40644481D01*
X123654678Y-41183715D01*
X123793513Y-41705898D01*
X124031553Y-42190961D01*
X124137688Y-42349804D01*
X124619120Y-42477919D01*
X126357039Y-40740000D01*
X126392961Y-40740000D01*
X128130880Y-42477919D01*
X128612312Y-42349804D01*
X128883380Y-41882394D01*
X129058052Y-41371082D01*
X129129616Y-40835519D01*
X129095322Y-40296285D01*
X128956487Y-39774102D01*
X128718447Y-39289039D01*
X128612312Y-39130196D01*
X128130880Y-39002081D01*
X126392961Y-40740000D01*
X126357039Y-40740000D01*
X124619120Y-39002081D01*
X124137688Y-39130196D01*
X123866620Y-39597606D01*
X123691948Y-40108918D01*
X123620384Y-40644481D01*
X121722719Y-40644481D01*
X121648475Y-40533368D01*
X121441632Y-40326525D01*
X121267240Y-40210000D01*
X121441632Y-40093475D01*
X121648475Y-39886632D01*
X121810990Y-39643411D01*
X121922932Y-39373158D01*
X121980000Y-39086260D01*
X121980000Y-38984120D01*
X124637081Y-38984120D01*
X126375000Y-40722039D01*
X128112919Y-38984120D01*
X127984804Y-38502688D01*
X127517394Y-38231620D01*
X127006082Y-38056948D01*
X126470519Y-37985384D01*
X125931285Y-38019678D01*
X125409102Y-38158513D01*
X124924039Y-38396553D01*
X124765196Y-38502688D01*
X124637081Y-38984120D01*
X121980000Y-38984120D01*
X121980000Y-38793740D01*
X121922932Y-38506842D01*
X121810990Y-38236589D01*
X121648475Y-37993368D01*
X121441632Y-37786525D01*
X121198411Y-37624010D01*
X120928158Y-37512068D01*
X120641260Y-37455000D01*
X120348740Y-37455000D01*
X120061842Y-37512068D01*
X119791589Y-37624010D01*
X119548368Y-37786525D01*
X119341525Y-37993368D01*
X119233526Y-38155000D01*
X119216474Y-38155000D01*
X119108475Y-37993368D01*
X118901632Y-37786525D01*
X118658411Y-37624010D01*
X118388158Y-37512068D01*
X118101260Y-37455000D01*
X117808740Y-37455000D01*
X117521842Y-37512068D01*
X117251589Y-37624010D01*
X117008368Y-37786525D01*
X116801525Y-37993368D01*
X116693526Y-38155000D01*
X116676474Y-38155000D01*
X116568475Y-37993368D01*
X116361632Y-37786525D01*
X116118411Y-37624010D01*
X115848158Y-37512068D01*
X115561260Y-37455000D01*
X115268740Y-37455000D01*
X114981842Y-37512068D01*
X114711589Y-37624010D01*
X114468368Y-37786525D01*
X114261525Y-37993368D01*
X114145000Y-38167760D01*
X114028475Y-37993368D01*
X113821632Y-37786525D01*
X113578411Y-37624010D01*
X113308158Y-37512068D01*
X113021260Y-37455000D01*
X112728740Y-37455000D01*
X112441842Y-37512068D01*
X112171589Y-37624010D01*
X111928368Y-37786525D01*
X111721525Y-37993368D01*
X111605000Y-38167760D01*
X111488475Y-37993368D01*
X111281632Y-37786525D01*
X111038411Y-37624010D01*
X110768158Y-37512068D01*
X110481260Y-37455000D01*
X110188740Y-37455000D01*
X109901842Y-37512068D01*
X109631589Y-37624010D01*
X109388368Y-37786525D01*
X109181525Y-37993368D01*
X109065000Y-38167760D01*
X108948475Y-37993368D01*
X108741632Y-37786525D01*
X108498411Y-37624010D01*
X108228158Y-37512068D01*
X107941260Y-37455000D01*
X107648740Y-37455000D01*
X107361842Y-37512068D01*
X107091589Y-37624010D01*
X106870114Y-37771995D01*
X106477974Y-37734987D01*
X105272961Y-38940000D01*
X106477974Y-40145013D01*
X106870114Y-40108005D01*
X107022760Y-40210000D01*
X106848368Y-40326525D01*
X106641525Y-40533368D01*
X106525000Y-40707760D01*
X106423005Y-40555114D01*
X106460013Y-40162974D01*
X105255000Y-38957961D01*
X105240858Y-38972103D01*
X105222897Y-38954142D01*
X105237039Y-38940000D01*
X105222897Y-38925858D01*
X105240858Y-38907897D01*
X105255000Y-38922039D01*
X106460013Y-37717026D01*
X106421826Y-37312395D01*
X106313805Y-37250000D01*
X129865000Y-37250000D01*
X129865001Y-78505907D01*
%TA.AperFunction,Conductor*%
D21*
G36*
X129865001Y-78505907D02*
G01*
X127741042Y-80629867D01*
X-3965774Y-80570134D01*
X-5640028Y-78895880D01*
X-4562919Y-78895880D01*
X-4434804Y-79377312D01*
X-3967394Y-79648380D01*
X-3456082Y-79823052D01*
X-2920519Y-79894616D01*
X-2381285Y-79860322D01*
X-1859102Y-79721487D01*
X-1374039Y-79483447D01*
X-1215196Y-79377312D01*
X-1193526Y-79295880D01*
X124637081Y-79295880D01*
X124765196Y-79777312D01*
X125232606Y-80048380D01*
X125743918Y-80223052D01*
X126279481Y-80294616D01*
X126818715Y-80260322D01*
X127340898Y-80121487D01*
X127825961Y-79883447D01*
X127984804Y-79777312D01*
X128112919Y-79295880D01*
X126375000Y-77557961D01*
X124637081Y-79295880D01*
X-1193526Y-79295880D01*
X-1087081Y-78895880D01*
X-2825000Y-77157961D01*
X-4562919Y-78895880D01*
X-5640028Y-78895880D01*
X-6090175Y-78445734D01*
X-6091005Y-77044481D01*
X-5579616Y-77044481D01*
X-5545322Y-77583715D01*
X-5406487Y-78105898D01*
X-5168447Y-78590961D01*
X-5062312Y-78749804D01*
X-4580880Y-78877919D01*
X-2842961Y-77140000D01*
X-2807039Y-77140000D01*
X-1069120Y-78877919D01*
X-587688Y-78749804D01*
X-316620Y-78282394D01*
X-141948Y-77771082D01*
X-100242Y-77458967D01*
X1540000Y-77458967D01*
X1540000Y-77781033D01*
X1602832Y-78096912D01*
X1726082Y-78394463D01*
X1905013Y-78662252D01*
X2132748Y-78889987D01*
X2400537Y-79068918D01*
X2698088Y-79192168D01*
X3013967Y-79255000D01*
X3336033Y-79255000D01*
X3651912Y-79192168D01*
X3949463Y-79068918D01*
X4217252Y-78889987D01*
X4444987Y-78662252D01*
X4623918Y-78394463D01*
X4747168Y-78096912D01*
X4810000Y-77781033D01*
X4810000Y-77458967D01*
X4747168Y-77143088D01*
X4623918Y-76845537D01*
X4444987Y-76577748D01*
X4217252Y-76350013D01*
X3949463Y-76171082D01*
X3651912Y-76047832D01*
X3336033Y-75985000D01*
X3013967Y-75985000D01*
X2698088Y-76047832D01*
X2400537Y-76171082D01*
X2132748Y-76350013D01*
X1905013Y-76577748D01*
X1726082Y-76845537D01*
X1602832Y-77143088D01*
X1540000Y-77458967D01*
X-100242Y-77458967D01*
X-70384Y-77235519D01*
X-104678Y-76696285D01*
X-243513Y-76174102D01*
X-481553Y-75689039D01*
X-587688Y-75530196D01*
X-1069120Y-75402081D01*
X-2807039Y-77140000D01*
X-2842961Y-77140000D01*
X-4580880Y-75402081D01*
X-5062312Y-75530196D01*
X-5333380Y-75997606D01*
X-5508052Y-76508918D01*
X-5579616Y-77044481D01*
X-6091005Y-77044481D01*
X-6096938Y-67029340D01*
X-5978475Y-67206632D01*
X-5771632Y-67413475D01*
X-5528411Y-67575990D01*
X-5258158Y-67687932D01*
X-4971260Y-67745000D01*
X-4678740Y-67745000D01*
X-4488082Y-67707075D01*
X-2456002Y-69739155D01*
X-2456001Y-74255435D01*
X-2459799Y-74293998D01*
X-2447082Y-74423119D01*
X-2729481Y-74385384D01*
X-3268715Y-74419678D01*
X-3790898Y-74558513D01*
X-4275961Y-74796553D01*
X-4434804Y-74902688D01*
X-4562919Y-75384120D01*
X-2825000Y-77122039D01*
X-1087081Y-75384120D01*
X-1145394Y-75164990D01*
X9090563Y-75164990D01*
X8191375Y-76064178D01*
X8151912Y-76047832D01*
X7836033Y-75985000D01*
X7513967Y-75985000D01*
X7198088Y-76047832D01*
X6900537Y-76171082D01*
X6632748Y-76350013D01*
X6405013Y-76577748D01*
X6226082Y-76845537D01*
X6102832Y-77143088D01*
X6040000Y-77458967D01*
X6040000Y-77781033D01*
X6102832Y-78096912D01*
X6226082Y-78394463D01*
X6405013Y-78662252D01*
X6632748Y-78889987D01*
X6900537Y-79068918D01*
X7198088Y-79192168D01*
X7513967Y-79255000D01*
X7836033Y-79255000D01*
X8151912Y-79192168D01*
X8449463Y-79068918D01*
X8717252Y-78889987D01*
X8944987Y-78662252D01*
X9123918Y-78394463D01*
X9247168Y-78096912D01*
X9310000Y-77781033D01*
X9310000Y-77458967D01*
X11065000Y-77458967D01*
X11065000Y-77781033D01*
X11127832Y-78096912D01*
X11251082Y-78394463D01*
X11430013Y-78662252D01*
X11657748Y-78889987D01*
X11925537Y-79068918D01*
X12223088Y-79192168D01*
X12538967Y-79255000D01*
X12861033Y-79255000D01*
X13176912Y-79192168D01*
X13474463Y-79068918D01*
X13742252Y-78889987D01*
X13969987Y-78662252D01*
X14148918Y-78394463D01*
X14272168Y-78096912D01*
X14335000Y-77781033D01*
X14335000Y-77458967D01*
X14272168Y-77143088D01*
X14148918Y-76845537D01*
X13969987Y-76577748D01*
X13742252Y-76350013D01*
X13474463Y-76171082D01*
X13176912Y-76047832D01*
X12861033Y-75985000D01*
X12538967Y-75985000D01*
X12223088Y-76047832D01*
X11925537Y-76171082D01*
X11657748Y-76350013D01*
X11430013Y-76577748D01*
X11251082Y-76845537D01*
X11127832Y-77143088D01*
X11065000Y-77458967D01*
X9310000Y-77458967D01*
X9247168Y-77143088D01*
X9230822Y-77103625D01*
X10650436Y-75684011D01*
X14224565Y-75684011D01*
X15644178Y-77103625D01*
X15627832Y-77143088D01*
X15565000Y-77458967D01*
X15565000Y-77781033D01*
X15627832Y-78096912D01*
X15751082Y-78394463D01*
X15930013Y-78662252D01*
X16157748Y-78889987D01*
X16425537Y-79068918D01*
X16723088Y-79192168D01*
X17038967Y-79255000D01*
X17361033Y-79255000D01*
X17676912Y-79192168D01*
X17974463Y-79068918D01*
X18242252Y-78889987D01*
X18469987Y-78662252D01*
X18648918Y-78394463D01*
X18772168Y-78096912D01*
X18835000Y-77781033D01*
X18835000Y-77458967D01*
X20590000Y-77458967D01*
X20590000Y-77781033D01*
X20652832Y-78096912D01*
X20776082Y-78394463D01*
X20955013Y-78662252D01*
X21182748Y-78889987D01*
X21450537Y-79068918D01*
X21748088Y-79192168D01*
X22063967Y-79255000D01*
X22386033Y-79255000D01*
X22701912Y-79192168D01*
X22999463Y-79068918D01*
X23267252Y-78889987D01*
X23494987Y-78662252D01*
X23673918Y-78394463D01*
X23797168Y-78096912D01*
X23860000Y-77781033D01*
X23860000Y-77458967D01*
X23797168Y-77143088D01*
X23673918Y-76845537D01*
X23494987Y-76577748D01*
X23267252Y-76350013D01*
X22999463Y-76171082D01*
X22701912Y-76047832D01*
X22386033Y-75985000D01*
X22063967Y-75985000D01*
X21748088Y-76047832D01*
X21450537Y-76171082D01*
X21182748Y-76350013D01*
X20955013Y-76577748D01*
X20776082Y-76845537D01*
X20652832Y-77143088D01*
X20590000Y-77458967D01*
X18835000Y-77458967D01*
X18772168Y-77143088D01*
X18755822Y-77103625D01*
X20175436Y-75684011D01*
X23749565Y-75684011D01*
X25169178Y-77103625D01*
X25152832Y-77143088D01*
X25090000Y-77458967D01*
X25090000Y-77781033D01*
X25152832Y-78096912D01*
X25276082Y-78394463D01*
X25455013Y-78662252D01*
X25682748Y-78889987D01*
X25950537Y-79068918D01*
X26248088Y-79192168D01*
X26563967Y-79255000D01*
X26886033Y-79255000D01*
X27201912Y-79192168D01*
X27499463Y-79068918D01*
X27767252Y-78889987D01*
X27994987Y-78662252D01*
X28173918Y-78394463D01*
X28297168Y-78096912D01*
X28360000Y-77781033D01*
X28360000Y-77458967D01*
X30115000Y-77458967D01*
X30115000Y-77781033D01*
X30177832Y-78096912D01*
X30301082Y-78394463D01*
X30480013Y-78662252D01*
X30707748Y-78889987D01*
X30975537Y-79068918D01*
X31273088Y-79192168D01*
X31588967Y-79255000D01*
X31911033Y-79255000D01*
X32226912Y-79192168D01*
X32524463Y-79068918D01*
X32792252Y-78889987D01*
X33019987Y-78662252D01*
X33198918Y-78394463D01*
X33322168Y-78096912D01*
X33385000Y-77781033D01*
X33385000Y-77458967D01*
X33322168Y-77143088D01*
X33198918Y-76845537D01*
X33019987Y-76577748D01*
X32792252Y-76350013D01*
X32524463Y-76171082D01*
X32226912Y-76047832D01*
X31911033Y-75985000D01*
X31588967Y-75985000D01*
X31273088Y-76047832D01*
X30975537Y-76171082D01*
X30707748Y-76350013D01*
X30480013Y-76577748D01*
X30301082Y-76845537D01*
X30177832Y-77143088D01*
X30115000Y-77458967D01*
X28360000Y-77458967D01*
X28297168Y-77143088D01*
X28280822Y-77103625D01*
X29700436Y-75684011D01*
X33274565Y-75684011D01*
X34694178Y-77103625D01*
X34677832Y-77143088D01*
X34615000Y-77458967D01*
X34615000Y-77781033D01*
X34677832Y-78096912D01*
X34801082Y-78394463D01*
X34980013Y-78662252D01*
X35207748Y-78889987D01*
X35475537Y-79068918D01*
X35773088Y-79192168D01*
X36088967Y-79255000D01*
X36411033Y-79255000D01*
X36726912Y-79192168D01*
X37024463Y-79068918D01*
X37292252Y-78889987D01*
X37519987Y-78662252D01*
X37698918Y-78394463D01*
X37822168Y-78096912D01*
X37885000Y-77781033D01*
X37885000Y-77458967D01*
X39640000Y-77458967D01*
X39640000Y-77781033D01*
X39702832Y-78096912D01*
X39826082Y-78394463D01*
X40005013Y-78662252D01*
X40232748Y-78889987D01*
X40500537Y-79068918D01*
X40798088Y-79192168D01*
X41113967Y-79255000D01*
X41436033Y-79255000D01*
X41751912Y-79192168D01*
X42049463Y-79068918D01*
X42317252Y-78889987D01*
X42544987Y-78662252D01*
X42723918Y-78394463D01*
X42847168Y-78096912D01*
X42910000Y-77781033D01*
X42910000Y-77458967D01*
X42847168Y-77143088D01*
X42723918Y-76845537D01*
X42544987Y-76577748D01*
X42317252Y-76350013D01*
X42049463Y-76171082D01*
X41751912Y-76047832D01*
X41436033Y-75985000D01*
X41113967Y-75985000D01*
X40798088Y-76047832D01*
X40500537Y-76171082D01*
X40232748Y-76350013D01*
X40005013Y-76577748D01*
X39826082Y-76845537D01*
X39702832Y-77143088D01*
X39640000Y-77458967D01*
X37885000Y-77458967D01*
X37822168Y-77143088D01*
X37805822Y-77103625D01*
X39225436Y-75684011D01*
X42799565Y-75684011D01*
X44219178Y-77103625D01*
X44202832Y-77143088D01*
X44140000Y-77458967D01*
X44140000Y-77781033D01*
X44202832Y-78096912D01*
X44326082Y-78394463D01*
X44505013Y-78662252D01*
X44732748Y-78889987D01*
X45000537Y-79068918D01*
X45298088Y-79192168D01*
X45613967Y-79255000D01*
X45936033Y-79255000D01*
X46251912Y-79192168D01*
X46549463Y-79068918D01*
X46817252Y-78889987D01*
X47044987Y-78662252D01*
X47223918Y-78394463D01*
X47347168Y-78096912D01*
X47410000Y-77781033D01*
X47410000Y-77458967D01*
X49165000Y-77458967D01*
X49165000Y-77781033D01*
X49227832Y-78096912D01*
X49351082Y-78394463D01*
X49530013Y-78662252D01*
X49757748Y-78889987D01*
X50025537Y-79068918D01*
X50323088Y-79192168D01*
X50638967Y-79255000D01*
X50961033Y-79255000D01*
X51276912Y-79192168D01*
X51574463Y-79068918D01*
X51842252Y-78889987D01*
X52069987Y-78662252D01*
X52248918Y-78394463D01*
X52372168Y-78096912D01*
X52435000Y-77781033D01*
X52435000Y-77458967D01*
X52372168Y-77143088D01*
X52248918Y-76845537D01*
X52069987Y-76577748D01*
X51842252Y-76350013D01*
X51574463Y-76171082D01*
X51276912Y-76047832D01*
X50961033Y-75985000D01*
X50638967Y-75985000D01*
X50323088Y-76047832D01*
X50025537Y-76171082D01*
X49757748Y-76350013D01*
X49530013Y-76577748D01*
X49351082Y-76845537D01*
X49227832Y-77143088D01*
X49165000Y-77458967D01*
X47410000Y-77458967D01*
X47347168Y-77143088D01*
X47330822Y-77103625D01*
X48750436Y-75684011D01*
X52324565Y-75684011D01*
X53744178Y-77103625D01*
X53727832Y-77143088D01*
X53665000Y-77458967D01*
X53665000Y-77781033D01*
X53727832Y-78096912D01*
X53851082Y-78394463D01*
X54030013Y-78662252D01*
X54257748Y-78889987D01*
X54525537Y-79068918D01*
X54823088Y-79192168D01*
X55138967Y-79255000D01*
X55461033Y-79255000D01*
X55776912Y-79192168D01*
X56074463Y-79068918D01*
X56342252Y-78889987D01*
X56569987Y-78662252D01*
X56748918Y-78394463D01*
X56872168Y-78096912D01*
X56935000Y-77781033D01*
X56935000Y-77458967D01*
X58690000Y-77458967D01*
X58690000Y-77781033D01*
X58752832Y-78096912D01*
X58876082Y-78394463D01*
X59055013Y-78662252D01*
X59282748Y-78889987D01*
X59550537Y-79068918D01*
X59848088Y-79192168D01*
X60163967Y-79255000D01*
X60486033Y-79255000D01*
X60801912Y-79192168D01*
X61099463Y-79068918D01*
X61367252Y-78889987D01*
X61594987Y-78662252D01*
X61773918Y-78394463D01*
X61897168Y-78096912D01*
X61960000Y-77781033D01*
X61960000Y-77458967D01*
X61897168Y-77143088D01*
X61773918Y-76845537D01*
X61594987Y-76577748D01*
X61367252Y-76350013D01*
X61099463Y-76171082D01*
X60801912Y-76047832D01*
X60486033Y-75985000D01*
X60163967Y-75985000D01*
X59848088Y-76047832D01*
X59550537Y-76171082D01*
X59282748Y-76350013D01*
X59055013Y-76577748D01*
X58876082Y-76845537D01*
X58752832Y-77143088D01*
X58690000Y-77458967D01*
X56935000Y-77458967D01*
X56872168Y-77143088D01*
X56855822Y-77103625D01*
X58275436Y-75684011D01*
X61849565Y-75684011D01*
X63269178Y-77103625D01*
X63252832Y-77143088D01*
X63190000Y-77458967D01*
X63190000Y-77781033D01*
X63252832Y-78096912D01*
X63376082Y-78394463D01*
X63555013Y-78662252D01*
X63782748Y-78889987D01*
X64050537Y-79068918D01*
X64348088Y-79192168D01*
X64663967Y-79255000D01*
X64986033Y-79255000D01*
X65301912Y-79192168D01*
X65599463Y-79068918D01*
X65867252Y-78889987D01*
X66094987Y-78662252D01*
X66273918Y-78394463D01*
X66397168Y-78096912D01*
X66460000Y-77781033D01*
X66460000Y-77458967D01*
X68215000Y-77458967D01*
X68215000Y-77781033D01*
X68277832Y-78096912D01*
X68401082Y-78394463D01*
X68580013Y-78662252D01*
X68807748Y-78889987D01*
X69075537Y-79068918D01*
X69373088Y-79192168D01*
X69688967Y-79255000D01*
X70011033Y-79255000D01*
X70326912Y-79192168D01*
X70624463Y-79068918D01*
X70892252Y-78889987D01*
X71119987Y-78662252D01*
X71298918Y-78394463D01*
X71422168Y-78096912D01*
X71485000Y-77781033D01*
X71485000Y-77458967D01*
X71422168Y-77143088D01*
X71298918Y-76845537D01*
X71119987Y-76577748D01*
X70892252Y-76350013D01*
X70624463Y-76171082D01*
X70326912Y-76047832D01*
X70011033Y-75985000D01*
X69688967Y-75985000D01*
X69373088Y-76047832D01*
X69075537Y-76171082D01*
X68807748Y-76350013D01*
X68580013Y-76577748D01*
X68401082Y-76845537D01*
X68277832Y-77143088D01*
X68215000Y-77458967D01*
X66460000Y-77458967D01*
X66397168Y-77143088D01*
X66380822Y-77103625D01*
X67800436Y-75684011D01*
X71374565Y-75684011D01*
X72794178Y-77103625D01*
X72777832Y-77143088D01*
X72715000Y-77458967D01*
X72715000Y-77781033D01*
X72777832Y-78096912D01*
X72901082Y-78394463D01*
X73080013Y-78662252D01*
X73307748Y-78889987D01*
X73575537Y-79068918D01*
X73873088Y-79192168D01*
X74188967Y-79255000D01*
X74511033Y-79255000D01*
X74826912Y-79192168D01*
X75124463Y-79068918D01*
X75392252Y-78889987D01*
X75619987Y-78662252D01*
X75798918Y-78394463D01*
X75922168Y-78096912D01*
X75985000Y-77781033D01*
X75985000Y-77458967D01*
X77740000Y-77458967D01*
X77740000Y-77781033D01*
X77802832Y-78096912D01*
X77926082Y-78394463D01*
X78105013Y-78662252D01*
X78332748Y-78889987D01*
X78600537Y-79068918D01*
X78898088Y-79192168D01*
X79213967Y-79255000D01*
X79536033Y-79255000D01*
X79851912Y-79192168D01*
X80149463Y-79068918D01*
X80417252Y-78889987D01*
X80644987Y-78662252D01*
X80823918Y-78394463D01*
X80947168Y-78096912D01*
X81010000Y-77781033D01*
X81010000Y-77458967D01*
X80947168Y-77143088D01*
X80823918Y-76845537D01*
X80644987Y-76577748D01*
X80417252Y-76350013D01*
X80149463Y-76171082D01*
X79851912Y-76047832D01*
X79536033Y-75985000D01*
X79213967Y-75985000D01*
X78898088Y-76047832D01*
X78600537Y-76171082D01*
X78332748Y-76350013D01*
X78105013Y-76577748D01*
X77926082Y-76845537D01*
X77802832Y-77143088D01*
X77740000Y-77458967D01*
X75985000Y-77458967D01*
X75922168Y-77143088D01*
X75905822Y-77103625D01*
X77325436Y-75684011D01*
X80899565Y-75684011D01*
X82319178Y-77103625D01*
X82302832Y-77143088D01*
X82240000Y-77458967D01*
X82240000Y-77781033D01*
X82302832Y-78096912D01*
X82426082Y-78394463D01*
X82605013Y-78662252D01*
X82832748Y-78889987D01*
X83100537Y-79068918D01*
X83398088Y-79192168D01*
X83713967Y-79255000D01*
X84036033Y-79255000D01*
X84351912Y-79192168D01*
X84649463Y-79068918D01*
X84917252Y-78889987D01*
X85144987Y-78662252D01*
X85323918Y-78394463D01*
X85447168Y-78096912D01*
X85510000Y-77781033D01*
X85510000Y-77458967D01*
X87265000Y-77458967D01*
X87265000Y-77781033D01*
X87327832Y-78096912D01*
X87451082Y-78394463D01*
X87630013Y-78662252D01*
X87857748Y-78889987D01*
X88125537Y-79068918D01*
X88423088Y-79192168D01*
X88738967Y-79255000D01*
X89061033Y-79255000D01*
X89376912Y-79192168D01*
X89674463Y-79068918D01*
X89942252Y-78889987D01*
X90169987Y-78662252D01*
X90348918Y-78394463D01*
X90472168Y-78096912D01*
X90535000Y-77781033D01*
X90535000Y-77458967D01*
X90472168Y-77143088D01*
X90348918Y-76845537D01*
X90169987Y-76577748D01*
X89942252Y-76350013D01*
X89674463Y-76171082D01*
X89376912Y-76047832D01*
X89061033Y-75985000D01*
X88738967Y-75985000D01*
X88423088Y-76047832D01*
X88125537Y-76171082D01*
X87857748Y-76350013D01*
X87630013Y-76577748D01*
X87451082Y-76845537D01*
X87327832Y-77143088D01*
X87265000Y-77458967D01*
X85510000Y-77458967D01*
X85447168Y-77143088D01*
X85430822Y-77103625D01*
X86869447Y-75665000D01*
X90405554Y-75665000D01*
X91844178Y-77103625D01*
X91827832Y-77143088D01*
X91765000Y-77458967D01*
X91765000Y-77781033D01*
X91827832Y-78096912D01*
X91951082Y-78394463D01*
X92130013Y-78662252D01*
X92357748Y-78889987D01*
X92625537Y-79068918D01*
X92923088Y-79192168D01*
X93238967Y-79255000D01*
X93561033Y-79255000D01*
X93876912Y-79192168D01*
X94174463Y-79068918D01*
X94442252Y-78889987D01*
X94669987Y-78662252D01*
X94848918Y-78394463D01*
X94972168Y-78096912D01*
X95035000Y-77781033D01*
X95035000Y-77458967D01*
X95032119Y-77444481D01*
X123620384Y-77444481D01*
X123654678Y-77983715D01*
X123793513Y-78505898D01*
X124031553Y-78990961D01*
X124137688Y-79149804D01*
X124619120Y-79277919D01*
X126357039Y-77540000D01*
X126392961Y-77540000D01*
X128130880Y-79277919D01*
X128612312Y-79149804D01*
X128883380Y-78682394D01*
X129058052Y-78171082D01*
X129129616Y-77635519D01*
X129095322Y-77096285D01*
X128956487Y-76574102D01*
X128718447Y-76089039D01*
X128612312Y-75930196D01*
X128130880Y-75802081D01*
X126392961Y-77540000D01*
X126357039Y-77540000D01*
X124619120Y-75802081D01*
X124137688Y-75930196D01*
X123866620Y-76397606D01*
X123691948Y-76908918D01*
X123620384Y-77444481D01*
X95032119Y-77444481D01*
X94972168Y-77143088D01*
X94848918Y-76845537D01*
X94669987Y-76577748D01*
X94442252Y-76350013D01*
X94174463Y-76171082D01*
X93876912Y-76047832D01*
X93561033Y-75985000D01*
X93238967Y-75985000D01*
X92923088Y-76047832D01*
X92883625Y-76064178D01*
X91984436Y-75164990D01*
X101383096Y-75164990D01*
X101399010Y-75203411D01*
X101561525Y-75446632D01*
X101768368Y-75653475D01*
X102011589Y-75815990D01*
X102281842Y-75927932D01*
X102568740Y-75985000D01*
X102861260Y-75985000D01*
X103148158Y-75927932D01*
X103418411Y-75815990D01*
X103661632Y-75653475D01*
X103868475Y-75446632D01*
X103985000Y-75272240D01*
X104101525Y-75446632D01*
X104308368Y-75653475D01*
X104551589Y-75815990D01*
X104821842Y-75927932D01*
X105108740Y-75985000D01*
X105401260Y-75985000D01*
X105688158Y-75927932D01*
X105958411Y-75815990D01*
X106201632Y-75653475D01*
X106408475Y-75446632D01*
X106525000Y-75272240D01*
X106641525Y-75446632D01*
X106848368Y-75653475D01*
X107091589Y-75815990D01*
X107361842Y-75927932D01*
X107648740Y-75985000D01*
X107941260Y-75985000D01*
X108228158Y-75927932D01*
X108498411Y-75815990D01*
X108637619Y-75722974D01*
X109129987Y-75722974D01*
X109168174Y-76127605D01*
X109508124Y-76323967D01*
X109879851Y-76450236D01*
X110269069Y-76501558D01*
X110660820Y-76475961D01*
X111040050Y-76374429D01*
X111392185Y-76200864D01*
X111501826Y-76127605D01*
X111540013Y-75722974D01*
X110335000Y-74517961D01*
X109129987Y-75722974D01*
X108637619Y-75722974D01*
X108719886Y-75668005D01*
X109112026Y-75705013D01*
X110317039Y-74500000D01*
X110302897Y-74485858D01*
X110320858Y-74467897D01*
X110335000Y-74482039D01*
X110349142Y-74467897D01*
X110367103Y-74485858D01*
X110352961Y-74500000D01*
X111557974Y-75705013D01*
X111950114Y-75668005D01*
X112171589Y-75815990D01*
X112441842Y-75927932D01*
X112728740Y-75985000D01*
X113021260Y-75985000D01*
X113308158Y-75927932D01*
X113578411Y-75815990D01*
X113821632Y-75653475D01*
X114028475Y-75446632D01*
X114145000Y-75272240D01*
X114261525Y-75446632D01*
X114468368Y-75653475D01*
X114711589Y-75815990D01*
X114981842Y-75927932D01*
X115268740Y-75985000D01*
X115561260Y-75985000D01*
X115848158Y-75927932D01*
X116118411Y-75815990D01*
X116361632Y-75653475D01*
X116568475Y-75446632D01*
X116685000Y-75272240D01*
X116801525Y-75446632D01*
X117008368Y-75653475D01*
X117251589Y-75815990D01*
X117521842Y-75927932D01*
X117808740Y-75985000D01*
X118101260Y-75985000D01*
X118388158Y-75927932D01*
X118658411Y-75815990D01*
X118706107Y-75784120D01*
X124637081Y-75784120D01*
X126375000Y-77522039D01*
X128112919Y-75784120D01*
X127984804Y-75302688D01*
X127517394Y-75031620D01*
X127006082Y-74856948D01*
X126470519Y-74785384D01*
X125931285Y-74819678D01*
X125409102Y-74958513D01*
X124924039Y-75196553D01*
X124765196Y-75302688D01*
X124637081Y-75784120D01*
X118706107Y-75784120D01*
X118901632Y-75653475D01*
X119108475Y-75446632D01*
X119270990Y-75203411D01*
X119382932Y-74933158D01*
X119440000Y-74646260D01*
X119440000Y-74353740D01*
X119382932Y-74066842D01*
X119270990Y-73796589D01*
X119108475Y-73553368D01*
X118901632Y-73346525D01*
X118740000Y-73238526D01*
X118740000Y-73221474D01*
X118901632Y-73113475D01*
X119108475Y-72906632D01*
X119270990Y-72663411D01*
X119382932Y-72393158D01*
X119440000Y-72106260D01*
X119440000Y-71813740D01*
X119433599Y-71781559D01*
X119551625Y-71899585D01*
X119711790Y-72006604D01*
X119889757Y-72080320D01*
X120078685Y-72117900D01*
X120271315Y-72117900D01*
X120460243Y-72080320D01*
X120638210Y-72006604D01*
X120798375Y-71899585D01*
X120934585Y-71763375D01*
X121041604Y-71603210D01*
X121115320Y-71425243D01*
X121152900Y-71236315D01*
X121152900Y-71043685D01*
X121115320Y-70854757D01*
X121041604Y-70676790D01*
X120934585Y-70516625D01*
X120910000Y-70492040D01*
X120910000Y-67805611D01*
X121015415Y-67963375D01*
X121151625Y-68099585D01*
X121311790Y-68206604D01*
X121489757Y-68280320D01*
X121678685Y-68317900D01*
X121871315Y-68317900D01*
X122060243Y-68280320D01*
X122238210Y-68206604D01*
X122398375Y-68099585D01*
X122534585Y-67963375D01*
X122641604Y-67803210D01*
X122715320Y-67625243D01*
X122752900Y-67436315D01*
X122752900Y-67243685D01*
X122715320Y-67054757D01*
X122641604Y-66876790D01*
X122534585Y-66716625D01*
X122510000Y-66692040D01*
X122510000Y-64176105D01*
X122513556Y-64140000D01*
X122499365Y-63995915D01*
X122457337Y-63857366D01*
X122389087Y-63729680D01*
X122320253Y-63645806D01*
X122297238Y-63617762D01*
X122269193Y-63594746D01*
X119980259Y-61305812D01*
X119957238Y-61277762D01*
X119845320Y-61185913D01*
X119717633Y-61117663D01*
X119579085Y-61075635D01*
X119471105Y-61065000D01*
X119435000Y-61061444D01*
X119398895Y-61065000D01*
X119249883Y-61065000D01*
X119108475Y-60853368D01*
X118901632Y-60646525D01*
X118727240Y-60530000D01*
X118901632Y-60413475D01*
X119108475Y-60206632D01*
X119270990Y-59963411D01*
X119382932Y-59693158D01*
X119440000Y-59406260D01*
X119440000Y-59113740D01*
X119382932Y-58826842D01*
X119270990Y-58556589D01*
X119108475Y-58313368D01*
X118901632Y-58106525D01*
X118727240Y-57990000D01*
X118901632Y-57873475D01*
X119108475Y-57666632D01*
X119270990Y-57423411D01*
X119382932Y-57153158D01*
X119440000Y-56866260D01*
X119440000Y-56573740D01*
X119382932Y-56286842D01*
X119270990Y-56016589D01*
X119108475Y-55773368D01*
X118901632Y-55566525D01*
X118727240Y-55450000D01*
X118901632Y-55333475D01*
X119108475Y-55126632D01*
X119270990Y-54883411D01*
X119382932Y-54613158D01*
X119440000Y-54326260D01*
X119440000Y-54033740D01*
X119382932Y-53746842D01*
X119270990Y-53476589D01*
X119108475Y-53233368D01*
X118901632Y-53026525D01*
X118727240Y-52910000D01*
X118901632Y-52793475D01*
X119108475Y-52586632D01*
X119270990Y-52343411D01*
X119382932Y-52073158D01*
X119440000Y-51786260D01*
X119440000Y-51493740D01*
X119382932Y-51206842D01*
X119270990Y-50936589D01*
X119108475Y-50693368D01*
X118901632Y-50486525D01*
X118727240Y-50370000D01*
X118901632Y-50253475D01*
X119108475Y-50046632D01*
X119270990Y-49803411D01*
X119382932Y-49533158D01*
X119440000Y-49246260D01*
X119440000Y-48953740D01*
X119382932Y-48666842D01*
X119270990Y-48396589D01*
X119108475Y-48153368D01*
X118901632Y-47946525D01*
X118727240Y-47830000D01*
X118901632Y-47713475D01*
X119108475Y-47506632D01*
X119270990Y-47263411D01*
X119382932Y-46993158D01*
X119440000Y-46706260D01*
X119440000Y-46413740D01*
X119382932Y-46126842D01*
X119270990Y-45856589D01*
X119108475Y-45613368D01*
X118901632Y-45406525D01*
X118727240Y-45290000D01*
X118901632Y-45173475D01*
X119108475Y-44966632D01*
X119216474Y-44805000D01*
X119233526Y-44805000D01*
X119341525Y-44966632D01*
X119548368Y-45173475D01*
X119791589Y-45335990D01*
X120061842Y-45447932D01*
X120348740Y-45505000D01*
X120641260Y-45505000D01*
X120928158Y-45447932D01*
X121198411Y-45335990D01*
X121441632Y-45173475D01*
X121648475Y-44966632D01*
X121810990Y-44723411D01*
X121922932Y-44453158D01*
X121980000Y-44166260D01*
X121980000Y-43873740D01*
X121922932Y-43586842D01*
X121810990Y-43316589D01*
X121648475Y-43073368D01*
X121441632Y-42866525D01*
X121267240Y-42750000D01*
X121441632Y-42633475D01*
X121579227Y-42495880D01*
X124637081Y-42495880D01*
X124765196Y-42977312D01*
X125232606Y-43248380D01*
X125743918Y-43423052D01*
X126279481Y-43494616D01*
X126818715Y-43460322D01*
X127340898Y-43321487D01*
X127825961Y-43083447D01*
X127984804Y-42977312D01*
X128112919Y-42495880D01*
X126375000Y-40757961D01*
X124637081Y-42495880D01*
X121579227Y-42495880D01*
X121648475Y-42426632D01*
X121810990Y-42183411D01*
X121922932Y-41913158D01*
X121980000Y-41626260D01*
X121980000Y-41333740D01*
X121922932Y-41046842D01*
X121810990Y-40776589D01*
X121722719Y-40644481D01*
X123620384Y-40644481D01*
X123654678Y-41183715D01*
X123793513Y-41705898D01*
X124031553Y-42190961D01*
X124137688Y-42349804D01*
X124619120Y-42477919D01*
X126357039Y-40740000D01*
X126392961Y-40740000D01*
X128130880Y-42477919D01*
X128612312Y-42349804D01*
X128883380Y-41882394D01*
X129058052Y-41371082D01*
X129129616Y-40835519D01*
X129095322Y-40296285D01*
X128956487Y-39774102D01*
X128718447Y-39289039D01*
X128612312Y-39130196D01*
X128130880Y-39002081D01*
X126392961Y-40740000D01*
X126357039Y-40740000D01*
X124619120Y-39002081D01*
X124137688Y-39130196D01*
X123866620Y-39597606D01*
X123691948Y-40108918D01*
X123620384Y-40644481D01*
X121722719Y-40644481D01*
X121648475Y-40533368D01*
X121441632Y-40326525D01*
X121267240Y-40210000D01*
X121441632Y-40093475D01*
X121648475Y-39886632D01*
X121810990Y-39643411D01*
X121922932Y-39373158D01*
X121980000Y-39086260D01*
X121980000Y-38984120D01*
X124637081Y-38984120D01*
X126375000Y-40722039D01*
X128112919Y-38984120D01*
X127984804Y-38502688D01*
X127517394Y-38231620D01*
X127006082Y-38056948D01*
X126470519Y-37985384D01*
X125931285Y-38019678D01*
X125409102Y-38158513D01*
X124924039Y-38396553D01*
X124765196Y-38502688D01*
X124637081Y-38984120D01*
X121980000Y-38984120D01*
X121980000Y-38793740D01*
X121922932Y-38506842D01*
X121810990Y-38236589D01*
X121648475Y-37993368D01*
X121441632Y-37786525D01*
X121198411Y-37624010D01*
X120928158Y-37512068D01*
X120641260Y-37455000D01*
X120348740Y-37455000D01*
X120061842Y-37512068D01*
X119791589Y-37624010D01*
X119548368Y-37786525D01*
X119341525Y-37993368D01*
X119233526Y-38155000D01*
X119216474Y-38155000D01*
X119108475Y-37993368D01*
X118901632Y-37786525D01*
X118658411Y-37624010D01*
X118388158Y-37512068D01*
X118101260Y-37455000D01*
X117808740Y-37455000D01*
X117521842Y-37512068D01*
X117251589Y-37624010D01*
X117008368Y-37786525D01*
X116801525Y-37993368D01*
X116693526Y-38155000D01*
X116676474Y-38155000D01*
X116568475Y-37993368D01*
X116361632Y-37786525D01*
X116118411Y-37624010D01*
X115848158Y-37512068D01*
X115561260Y-37455000D01*
X115268740Y-37455000D01*
X114981842Y-37512068D01*
X114711589Y-37624010D01*
X114468368Y-37786525D01*
X114261525Y-37993368D01*
X114145000Y-38167760D01*
X114028475Y-37993368D01*
X113821632Y-37786525D01*
X113578411Y-37624010D01*
X113308158Y-37512068D01*
X113021260Y-37455000D01*
X112728740Y-37455000D01*
X112441842Y-37512068D01*
X112171589Y-37624010D01*
X111928368Y-37786525D01*
X111721525Y-37993368D01*
X111605000Y-38167760D01*
X111488475Y-37993368D01*
X111281632Y-37786525D01*
X111038411Y-37624010D01*
X110768158Y-37512068D01*
X110481260Y-37455000D01*
X110188740Y-37455000D01*
X109901842Y-37512068D01*
X109631589Y-37624010D01*
X109388368Y-37786525D01*
X109181525Y-37993368D01*
X109065000Y-38167760D01*
X108948475Y-37993368D01*
X108741632Y-37786525D01*
X108498411Y-37624010D01*
X108228158Y-37512068D01*
X107941260Y-37455000D01*
X107648740Y-37455000D01*
X107361842Y-37512068D01*
X107091589Y-37624010D01*
X106870114Y-37771995D01*
X106477974Y-37734987D01*
X105272961Y-38940000D01*
X106477974Y-40145013D01*
X106870114Y-40108005D01*
X107022760Y-40210000D01*
X106848368Y-40326525D01*
X106641525Y-40533368D01*
X106525000Y-40707760D01*
X106423005Y-40555114D01*
X106460013Y-40162974D01*
X105255000Y-38957961D01*
X105240858Y-38972103D01*
X105222897Y-38954142D01*
X105237039Y-38940000D01*
X105222897Y-38925858D01*
X105240858Y-38907897D01*
X105255000Y-38922039D01*
X106460013Y-37717026D01*
X106421826Y-37312395D01*
X106313805Y-37250000D01*
X129865000Y-37250000D01*
X129865001Y-78505907D01*
G37*
%TD.AperFunction*%
D20*
X111721525Y-70366632D02*
X111928368Y-70573475D01*
X112102760Y-70690000D01*
X111950114Y-70791995D01*
X111557974Y-70754987D01*
X110352961Y-71960000D01*
X110367103Y-71974142D01*
X110349142Y-71992103D01*
X110335000Y-71977961D01*
X110320858Y-71992103D01*
X110302897Y-71974142D01*
X110317039Y-71960000D01*
X109112026Y-70754987D01*
X108719886Y-70791995D01*
X108567240Y-70690000D01*
X108741632Y-70573475D01*
X108948475Y-70366632D01*
X109065000Y-70192240D01*
X109166995Y-70344886D01*
X109129987Y-70737026D01*
X110335000Y-71942039D01*
X111540013Y-70737026D01*
X111503005Y-70344886D01*
X111605000Y-70192240D01*
X111721525Y-70366632D01*
%TA.AperFunction,Conductor*%
D21*
G36*
X111721525Y-70366632D02*
G01*
X111928368Y-70573475D01*
X112102760Y-70690000D01*
X111950114Y-70791995D01*
X111557974Y-70754987D01*
X110352961Y-71960000D01*
X110367103Y-71974142D01*
X110349142Y-71992103D01*
X110335000Y-71977961D01*
X110320858Y-71992103D01*
X110302897Y-71974142D01*
X110317039Y-71960000D01*
X109112026Y-70754987D01*
X108719886Y-70791995D01*
X108567240Y-70690000D01*
X108741632Y-70573475D01*
X108948475Y-70366632D01*
X109065000Y-70192240D01*
X109166995Y-70344886D01*
X109129987Y-70737026D01*
X110335000Y-71942039D01*
X111540013Y-70737026D01*
X111503005Y-70344886D01*
X111605000Y-70192240D01*
X111721525Y-70366632D01*
G37*
%TD.AperFunction*%
D20*
X98562867Y-37327867D02*
X98420032Y-37501911D01*
X98313897Y-37700477D01*
X98248539Y-37915933D01*
X98226470Y-38140000D01*
X98232000Y-38641550D01*
X98517750Y-38927300D01*
X100162300Y-38927300D01*
X100162300Y-38907300D01*
X100187700Y-38907300D01*
X100187700Y-38927300D01*
X102702300Y-38927300D01*
X102702300Y-38907300D01*
X102727700Y-38907300D01*
X102727700Y-38927300D01*
X102747700Y-38927300D01*
X102747700Y-38952700D01*
X102727700Y-38952700D01*
X102727700Y-38972700D01*
X102702300Y-38972700D01*
X102702300Y-38952700D01*
X100187700Y-38952700D01*
X100187700Y-38972700D01*
X100162300Y-38972700D01*
X100162300Y-38952700D01*
X98517750Y-38952700D01*
X98232000Y-39238450D01*
X98230143Y-39406876D01*
X98211106Y-39405001D01*
X98175001Y-39401445D01*
X98138896Y-39405001D01*
X82079447Y-39405001D01*
X81920259Y-39245813D01*
X81897238Y-39217762D01*
X81785320Y-39125913D01*
X81657633Y-39057663D01*
X81519085Y-39015635D01*
X81411105Y-39005000D01*
X81375000Y-39001444D01*
X81338895Y-39005000D01*
X5818994Y-39005000D01*
X5782897Y-39001445D01*
X5746800Y-39005000D01*
X5746793Y-39005000D01*
X5653030Y-39014235D01*
X5638812Y-39015635D01*
X5596784Y-39028384D01*
X5500265Y-39057663D01*
X5372578Y-39125913D01*
X5260660Y-39217762D01*
X5237644Y-39245807D01*
X4381523Y-40101928D01*
X2782898Y-40101928D01*
X2658416Y-40114188D01*
X2538718Y-40150498D01*
X2428404Y-40209463D01*
X2331713Y-40288815D01*
X2252361Y-40385506D01*
X2193396Y-40495820D01*
X2157086Y-40615518D01*
X2144826Y-40740000D01*
X2144826Y-42740000D01*
X2157086Y-42864482D01*
X2193396Y-42984180D01*
X2252361Y-43094494D01*
X2331713Y-43191185D01*
X2428404Y-43270537D01*
X2538718Y-43329502D01*
X2658416Y-43365812D01*
X2782898Y-43378072D01*
X4782898Y-43378072D01*
X4907380Y-43365812D01*
X5027078Y-43329502D01*
X5137392Y-43270537D01*
X5234083Y-43191185D01*
X5313435Y-43094494D01*
X5372400Y-42984180D01*
X5408710Y-42864482D01*
X5420970Y-42740000D01*
X5420970Y-41141375D01*
X6087345Y-40475000D01*
X11740649Y-40475000D01*
X11723815Y-40488815D01*
X11644463Y-40585506D01*
X11585498Y-40695820D01*
X11549188Y-40815518D01*
X11536928Y-40940000D01*
X11536928Y-42940000D01*
X11549188Y-43064482D01*
X11585498Y-43184180D01*
X11644463Y-43294494D01*
X11723815Y-43391185D01*
X11820506Y-43470537D01*
X11930820Y-43529502D01*
X12050518Y-43565812D01*
X12175000Y-43578072D01*
X14175000Y-43578072D01*
X14299482Y-43565812D01*
X14419180Y-43529502D01*
X14529494Y-43470537D01*
X14626185Y-43391185D01*
X14705537Y-43294494D01*
X14764502Y-43184180D01*
X14800812Y-43064482D01*
X14813072Y-42940000D01*
X14813072Y-41141375D01*
X14879447Y-41075000D01*
X21336928Y-41075000D01*
X21336928Y-42538626D01*
X20480808Y-43394746D01*
X20452762Y-43417763D01*
X20360913Y-43529681D01*
X20292663Y-43657368D01*
X20280610Y-43697102D01*
X20250635Y-43795915D01*
X20236444Y-43940000D01*
X20240000Y-43976106D01*
X20240001Y-45303885D01*
X20236444Y-45340000D01*
X20250635Y-45484085D01*
X20256980Y-45505000D01*
X20292664Y-45622633D01*
X20360914Y-45750320D01*
X20452763Y-45862238D01*
X20480808Y-45885254D01*
X22429746Y-47834193D01*
X22452762Y-47862238D01*
X22564680Y-47954087D01*
X22692367Y-48022337D01*
X22788886Y-48051616D01*
X22830914Y-48064365D01*
X22845132Y-48065765D01*
X22938895Y-48075000D01*
X22938902Y-48075000D01*
X22974999Y-48078555D01*
X23011096Y-48075000D01*
X32397100Y-48075000D01*
X32397100Y-48236315D01*
X32434680Y-48425243D01*
X32508396Y-48603210D01*
X32615415Y-48763375D01*
X32751625Y-48899585D01*
X32911790Y-49006604D01*
X33089757Y-49080320D01*
X33278685Y-49117900D01*
X33471315Y-49117900D01*
X33660243Y-49080320D01*
X33838210Y-49006604D01*
X33998375Y-48899585D01*
X34022960Y-48875000D01*
X101245662Y-48875000D01*
X101230000Y-48953740D01*
X101230000Y-49246260D01*
X101287068Y-49533158D01*
X101399010Y-49803411D01*
X101561525Y-50046632D01*
X101768368Y-50253475D01*
X101942760Y-50370000D01*
X101768368Y-50486525D01*
X101561525Y-50693368D01*
X101399010Y-50936589D01*
X101287068Y-51206842D01*
X101230000Y-51493740D01*
X101230000Y-51786260D01*
X101283456Y-52055001D01*
X100701084Y-52055001D01*
X100664979Y-52051445D01*
X100520894Y-52065636D01*
X100382345Y-52107664D01*
X100336689Y-52132068D01*
X100254659Y-52175914D01*
X100142741Y-52267763D01*
X100119725Y-52295808D01*
X98940544Y-53474990D01*
X10134407Y-53474990D01*
X10098310Y-53471435D01*
X10062213Y-53474990D01*
X10062206Y-53474990D01*
X9954226Y-53485625D01*
X9815678Y-53527653D01*
X9783224Y-53545000D01*
X1279447Y-53545000D01*
X-1626586Y-50638967D01*
X1439000Y-50638967D01*
X1439000Y-50961033D01*
X1501832Y-51276912D01*
X1625082Y-51574463D01*
X1804013Y-51842252D01*
X2031748Y-52069987D01*
X2299537Y-52248918D01*
X2597088Y-52372168D01*
X2912967Y-52435000D01*
X3235033Y-52435000D01*
X3550912Y-52372168D01*
X3848463Y-52248918D01*
X4116252Y-52069987D01*
X4343987Y-51842252D01*
X4522918Y-51574463D01*
X4646168Y-51276912D01*
X4709000Y-50961033D01*
X4709000Y-50638967D01*
X5939000Y-50638967D01*
X5939000Y-50961033D01*
X6001832Y-51276912D01*
X6125082Y-51574463D01*
X6304013Y-51842252D01*
X6531748Y-52069987D01*
X6799537Y-52248918D01*
X7097088Y-52372168D01*
X7412967Y-52435000D01*
X7735033Y-52435000D01*
X8050912Y-52372168D01*
X8348463Y-52248918D01*
X8616252Y-52069987D01*
X8843987Y-51842252D01*
X9022918Y-51574463D01*
X9146168Y-51276912D01*
X9209000Y-50961033D01*
X9209000Y-50638967D01*
X10964000Y-50638967D01*
X10964000Y-50961033D01*
X11026832Y-51276912D01*
X11150082Y-51574463D01*
X11329013Y-51842252D01*
X11556748Y-52069987D01*
X11824537Y-52248918D01*
X12122088Y-52372168D01*
X12437967Y-52435000D01*
X12760033Y-52435000D01*
X13075912Y-52372168D01*
X13373463Y-52248918D01*
X13641252Y-52069987D01*
X13868987Y-51842252D01*
X14047918Y-51574463D01*
X14171168Y-51276912D01*
X14234000Y-50961033D01*
X14234000Y-50638967D01*
X15464000Y-50638967D01*
X15464000Y-50961033D01*
X15526832Y-51276912D01*
X15650082Y-51574463D01*
X15829013Y-51842252D01*
X16056748Y-52069987D01*
X16324537Y-52248918D01*
X16622088Y-52372168D01*
X16937967Y-52435000D01*
X17260033Y-52435000D01*
X17575912Y-52372168D01*
X17873463Y-52248918D01*
X18141252Y-52069987D01*
X18368987Y-51842252D01*
X18547918Y-51574463D01*
X18671168Y-51276912D01*
X18734000Y-50961033D01*
X18734000Y-50638967D01*
X20689000Y-50638967D01*
X20689000Y-50961033D01*
X20751832Y-51276912D01*
X20875082Y-51574463D01*
X21054013Y-51842252D01*
X21281748Y-52069987D01*
X21549537Y-52248918D01*
X21847088Y-52372168D01*
X22162967Y-52435000D01*
X22485033Y-52435000D01*
X22800912Y-52372168D01*
X23098463Y-52248918D01*
X23366252Y-52069987D01*
X23593987Y-51842252D01*
X23772918Y-51574463D01*
X23896168Y-51276912D01*
X23959000Y-50961033D01*
X23959000Y-50800000D01*
X25146444Y-50800000D01*
X25160635Y-50944085D01*
X25202663Y-51082633D01*
X25219426Y-51113994D01*
X25251832Y-51276912D01*
X25375082Y-51574463D01*
X25554013Y-51842252D01*
X25781748Y-52069987D01*
X26049537Y-52248918D01*
X26347088Y-52372168D01*
X26662967Y-52435000D01*
X26985033Y-52435000D01*
X27300912Y-52372168D01*
X27598463Y-52248918D01*
X27866252Y-52069987D01*
X28093987Y-51842252D01*
X28272918Y-51574463D01*
X28396168Y-51276912D01*
X28459000Y-50961033D01*
X28459000Y-50638967D01*
X30214000Y-50638967D01*
X30214000Y-50961033D01*
X30276832Y-51276912D01*
X30400082Y-51574463D01*
X30579013Y-51842252D01*
X30806748Y-52069987D01*
X31074537Y-52248918D01*
X31372088Y-52372168D01*
X31687967Y-52435000D01*
X32010033Y-52435000D01*
X32325912Y-52372168D01*
X32623463Y-52248918D01*
X32891252Y-52069987D01*
X33118987Y-51842252D01*
X33297918Y-51574463D01*
X33421168Y-51276912D01*
X33484000Y-50961033D01*
X33484000Y-50638967D01*
X34714000Y-50638967D01*
X34714000Y-50961033D01*
X34776832Y-51276912D01*
X34900082Y-51574463D01*
X35079013Y-51842252D01*
X35306748Y-52069987D01*
X35574537Y-52248918D01*
X35872088Y-52372168D01*
X36187967Y-52435000D01*
X36510033Y-52435000D01*
X36825912Y-52372168D01*
X37123463Y-52248918D01*
X37391252Y-52069987D01*
X37618987Y-51842252D01*
X37797918Y-51574463D01*
X37921168Y-51276912D01*
X37984000Y-50961033D01*
X37984000Y-50638967D01*
X39739000Y-50638967D01*
X39739000Y-50961033D01*
X39801832Y-51276912D01*
X39925082Y-51574463D01*
X40104013Y-51842252D01*
X40331748Y-52069987D01*
X40599537Y-52248918D01*
X40897088Y-52372168D01*
X41212967Y-52435000D01*
X41535033Y-52435000D01*
X41850912Y-52372168D01*
X42148463Y-52248918D01*
X42416252Y-52069987D01*
X42643987Y-51842252D01*
X42822918Y-51574463D01*
X42946168Y-51276912D01*
X43009000Y-50961033D01*
X43009000Y-50638967D01*
X44239000Y-50638967D01*
X44239000Y-50961033D01*
X44301832Y-51276912D01*
X44425082Y-51574463D01*
X44604013Y-51842252D01*
X44831748Y-52069987D01*
X45099537Y-52248918D01*
X45397088Y-52372168D01*
X45712967Y-52435000D01*
X46035033Y-52435000D01*
X46350912Y-52372168D01*
X46648463Y-52248918D01*
X46916252Y-52069987D01*
X47143987Y-51842252D01*
X47322918Y-51574463D01*
X47446168Y-51276912D01*
X47509000Y-50961033D01*
X47509000Y-50638967D01*
X49264000Y-50638967D01*
X49264000Y-50961033D01*
X49326832Y-51276912D01*
X49450082Y-51574463D01*
X49629013Y-51842252D01*
X49856748Y-52069987D01*
X50124537Y-52248918D01*
X50422088Y-52372168D01*
X50737967Y-52435000D01*
X51060033Y-52435000D01*
X51375912Y-52372168D01*
X51673463Y-52248918D01*
X51941252Y-52069987D01*
X52168987Y-51842252D01*
X52347918Y-51574463D01*
X52471168Y-51276912D01*
X52534000Y-50961033D01*
X52534000Y-50638967D01*
X53764000Y-50638967D01*
X53764000Y-50961033D01*
X53826832Y-51276912D01*
X53950082Y-51574463D01*
X54129013Y-51842252D01*
X54356748Y-52069987D01*
X54624537Y-52248918D01*
X54922088Y-52372168D01*
X55237967Y-52435000D01*
X55560033Y-52435000D01*
X55875912Y-52372168D01*
X56173463Y-52248918D01*
X56441252Y-52069987D01*
X56668987Y-51842252D01*
X56847918Y-51574463D01*
X56971168Y-51276912D01*
X57034000Y-50961033D01*
X57034000Y-50638967D01*
X58789000Y-50638967D01*
X58789000Y-50961033D01*
X58851832Y-51276912D01*
X58975082Y-51574463D01*
X59154013Y-51842252D01*
X59381748Y-52069987D01*
X59649537Y-52248918D01*
X59947088Y-52372168D01*
X60262967Y-52435000D01*
X60585033Y-52435000D01*
X60900912Y-52372168D01*
X61198463Y-52248918D01*
X61466252Y-52069987D01*
X61693987Y-51842252D01*
X61872918Y-51574463D01*
X61996168Y-51276912D01*
X62059000Y-50961033D01*
X62059000Y-50638967D01*
X63289000Y-50638967D01*
X63289000Y-50961033D01*
X63351832Y-51276912D01*
X63475082Y-51574463D01*
X63654013Y-51842252D01*
X63881748Y-52069987D01*
X64149537Y-52248918D01*
X64447088Y-52372168D01*
X64762967Y-52435000D01*
X65085033Y-52435000D01*
X65400912Y-52372168D01*
X65698463Y-52248918D01*
X65966252Y-52069987D01*
X66193987Y-51842252D01*
X66372918Y-51574463D01*
X66496168Y-51276912D01*
X66559000Y-50961033D01*
X66559000Y-50638967D01*
X68314000Y-50638967D01*
X68314000Y-50961033D01*
X68376832Y-51276912D01*
X68500082Y-51574463D01*
X68679013Y-51842252D01*
X68906748Y-52069987D01*
X69174537Y-52248918D01*
X69472088Y-52372168D01*
X69787967Y-52435000D01*
X70110033Y-52435000D01*
X70425912Y-52372168D01*
X70723463Y-52248918D01*
X70991252Y-52069987D01*
X71218987Y-51842252D01*
X71397918Y-51574463D01*
X71521168Y-51276912D01*
X71584000Y-50961033D01*
X71584000Y-50638967D01*
X72814000Y-50638967D01*
X72814000Y-50961033D01*
X72876832Y-51276912D01*
X73000082Y-51574463D01*
X73179013Y-51842252D01*
X73406748Y-52069987D01*
X73674537Y-52248918D01*
X73972088Y-52372168D01*
X74287967Y-52435000D01*
X74610033Y-52435000D01*
X74925912Y-52372168D01*
X75223463Y-52248918D01*
X75491252Y-52069987D01*
X75718987Y-51842252D01*
X75897918Y-51574463D01*
X76021168Y-51276912D01*
X76084000Y-50961033D01*
X76084000Y-50638967D01*
X77839000Y-50638967D01*
X77839000Y-50961033D01*
X77901832Y-51276912D01*
X78025082Y-51574463D01*
X78204013Y-51842252D01*
X78431748Y-52069987D01*
X78699537Y-52248918D01*
X78997088Y-52372168D01*
X79312967Y-52435000D01*
X79635033Y-52435000D01*
X79950912Y-52372168D01*
X80248463Y-52248918D01*
X80516252Y-52069987D01*
X80743987Y-51842252D01*
X80922918Y-51574463D01*
X81046168Y-51276912D01*
X81109000Y-50961033D01*
X81109000Y-50638967D01*
X82339000Y-50638967D01*
X82339000Y-50961033D01*
X82401832Y-51276912D01*
X82525082Y-51574463D01*
X82704013Y-51842252D01*
X82931748Y-52069987D01*
X83199537Y-52248918D01*
X83497088Y-52372168D01*
X83812967Y-52435000D01*
X84135033Y-52435000D01*
X84450912Y-52372168D01*
X84748463Y-52248918D01*
X85016252Y-52069987D01*
X85243987Y-51842252D01*
X85422918Y-51574463D01*
X85546168Y-51276912D01*
X85609000Y-50961033D01*
X85609000Y-50638967D01*
X85577175Y-50478967D01*
X87340000Y-50478967D01*
X87340000Y-50801033D01*
X87402832Y-51116912D01*
X87526082Y-51414463D01*
X87705013Y-51682252D01*
X87932748Y-51909987D01*
X88200537Y-52088918D01*
X88498088Y-52212168D01*
X88813967Y-52275000D01*
X89136033Y-52275000D01*
X89451912Y-52212168D01*
X89749463Y-52088918D01*
X90017252Y-51909987D01*
X90244987Y-51682252D01*
X90423918Y-51414463D01*
X90547168Y-51116912D01*
X90610000Y-50801033D01*
X90610000Y-50478967D01*
X91840000Y-50478967D01*
X91840000Y-50801033D01*
X91902832Y-51116912D01*
X92026082Y-51414463D01*
X92205013Y-51682252D01*
X92432748Y-51909987D01*
X92700537Y-52088918D01*
X92998088Y-52212168D01*
X93313967Y-52275000D01*
X93636033Y-52275000D01*
X93951912Y-52212168D01*
X94249463Y-52088918D01*
X94517252Y-51909987D01*
X94744987Y-51682252D01*
X94923918Y-51414463D01*
X95047168Y-51116912D01*
X95110000Y-50801033D01*
X95110000Y-50478967D01*
X95047168Y-50163088D01*
X94923918Y-49865537D01*
X94744987Y-49597748D01*
X94517252Y-49370013D01*
X94249463Y-49191082D01*
X93951912Y-49067832D01*
X93636033Y-49005000D01*
X93313967Y-49005000D01*
X92998088Y-49067832D01*
X92700537Y-49191082D01*
X92432748Y-49370013D01*
X92205013Y-49597748D01*
X92026082Y-49865537D01*
X91902832Y-50163088D01*
X91840000Y-50478967D01*
X90610000Y-50478967D01*
X90547168Y-50163088D01*
X90423918Y-49865537D01*
X90244987Y-49597748D01*
X90017252Y-49370013D01*
X89749463Y-49191082D01*
X89451912Y-49067832D01*
X89136033Y-49005000D01*
X88813967Y-49005000D01*
X88498088Y-49067832D01*
X88200537Y-49191082D01*
X87932748Y-49370013D01*
X87705013Y-49597748D01*
X87526082Y-49865537D01*
X87402832Y-50163088D01*
X87340000Y-50478967D01*
X85577175Y-50478967D01*
X85546168Y-50323088D01*
X85422918Y-50025537D01*
X85243987Y-49757748D01*
X85016252Y-49530013D01*
X84748463Y-49351082D01*
X84450912Y-49227832D01*
X84135033Y-49165000D01*
X83812967Y-49165000D01*
X83497088Y-49227832D01*
X83199537Y-49351082D01*
X82931748Y-49530013D01*
X82704013Y-49757748D01*
X82525082Y-50025537D01*
X82401832Y-50323088D01*
X82339000Y-50638967D01*
X81109000Y-50638967D01*
X81046168Y-50323088D01*
X80922918Y-50025537D01*
X80743987Y-49757748D01*
X80516252Y-49530013D01*
X80248463Y-49351082D01*
X79950912Y-49227832D01*
X79635033Y-49165000D01*
X79312967Y-49165000D01*
X78997088Y-49227832D01*
X78699537Y-49351082D01*
X78431748Y-49530013D01*
X78204013Y-49757748D01*
X78025082Y-50025537D01*
X77901832Y-50323088D01*
X77839000Y-50638967D01*
X76084000Y-50638967D01*
X76021168Y-50323088D01*
X75897918Y-50025537D01*
X75718987Y-49757748D01*
X75491252Y-49530013D01*
X75223463Y-49351082D01*
X74925912Y-49227832D01*
X74610033Y-49165000D01*
X74287967Y-49165000D01*
X73972088Y-49227832D01*
X73674537Y-49351082D01*
X73406748Y-49530013D01*
X73179013Y-49757748D01*
X73000082Y-50025537D01*
X72876832Y-50323088D01*
X72814000Y-50638967D01*
X71584000Y-50638967D01*
X71521168Y-50323088D01*
X71397918Y-50025537D01*
X71218987Y-49757748D01*
X70991252Y-49530013D01*
X70723463Y-49351082D01*
X70425912Y-49227832D01*
X70110033Y-49165000D01*
X69787967Y-49165000D01*
X69472088Y-49227832D01*
X69174537Y-49351082D01*
X68906748Y-49530013D01*
X68679013Y-49757748D01*
X68500082Y-50025537D01*
X68376832Y-50323088D01*
X68314000Y-50638967D01*
X66559000Y-50638967D01*
X66496168Y-50323088D01*
X66372918Y-50025537D01*
X66193987Y-49757748D01*
X65966252Y-49530013D01*
X65698463Y-49351082D01*
X65400912Y-49227832D01*
X65085033Y-49165000D01*
X64762967Y-49165000D01*
X64447088Y-49227832D01*
X64149537Y-49351082D01*
X63881748Y-49530013D01*
X63654013Y-49757748D01*
X63475082Y-50025537D01*
X63351832Y-50323088D01*
X63289000Y-50638967D01*
X62059000Y-50638967D01*
X61996168Y-50323088D01*
X61872918Y-50025537D01*
X61693987Y-49757748D01*
X61466252Y-49530013D01*
X61198463Y-49351082D01*
X60900912Y-49227832D01*
X60585033Y-49165000D01*
X60262967Y-49165000D01*
X59947088Y-49227832D01*
X59649537Y-49351082D01*
X59381748Y-49530013D01*
X59154013Y-49757748D01*
X58975082Y-50025537D01*
X58851832Y-50323088D01*
X58789000Y-50638967D01*
X57034000Y-50638967D01*
X56971168Y-50323088D01*
X56847918Y-50025537D01*
X56668987Y-49757748D01*
X56441252Y-49530013D01*
X56173463Y-49351082D01*
X55875912Y-49227832D01*
X55560033Y-49165000D01*
X55237967Y-49165000D01*
X54922088Y-49227832D01*
X54624537Y-49351082D01*
X54356748Y-49530013D01*
X54129013Y-49757748D01*
X53950082Y-50025537D01*
X53826832Y-50323088D01*
X53764000Y-50638967D01*
X52534000Y-50638967D01*
X52471168Y-50323088D01*
X52347918Y-50025537D01*
X52168987Y-49757748D01*
X51941252Y-49530013D01*
X51673463Y-49351082D01*
X51375912Y-49227832D01*
X51060033Y-49165000D01*
X50737967Y-49165000D01*
X50422088Y-49227832D01*
X50124537Y-49351082D01*
X49856748Y-49530013D01*
X49629013Y-49757748D01*
X49450082Y-50025537D01*
X49326832Y-50323088D01*
X49264000Y-50638967D01*
X47509000Y-50638967D01*
X47446168Y-50323088D01*
X47322918Y-50025537D01*
X47143987Y-49757748D01*
X46916252Y-49530013D01*
X46648463Y-49351082D01*
X46350912Y-49227832D01*
X46035033Y-49165000D01*
X45712967Y-49165000D01*
X45397088Y-49227832D01*
X45099537Y-49351082D01*
X44831748Y-49530013D01*
X44604013Y-49757748D01*
X44425082Y-50025537D01*
X44301832Y-50323088D01*
X44239000Y-50638967D01*
X43009000Y-50638967D01*
X42946168Y-50323088D01*
X42822918Y-50025537D01*
X42643987Y-49757748D01*
X42416252Y-49530013D01*
X42148463Y-49351082D01*
X41850912Y-49227832D01*
X41535033Y-49165000D01*
X41212967Y-49165000D01*
X40897088Y-49227832D01*
X40599537Y-49351082D01*
X40331748Y-49530013D01*
X40104013Y-49757748D01*
X39925082Y-50025537D01*
X39801832Y-50323088D01*
X39739000Y-50638967D01*
X37984000Y-50638967D01*
X37921168Y-50323088D01*
X37797918Y-50025537D01*
X37618987Y-49757748D01*
X37391252Y-49530013D01*
X37123463Y-49351082D01*
X36825912Y-49227832D01*
X36510033Y-49165000D01*
X36187967Y-49165000D01*
X35872088Y-49227832D01*
X35574537Y-49351082D01*
X35306748Y-49530013D01*
X35079013Y-49757748D01*
X34900082Y-50025537D01*
X34776832Y-50323088D01*
X34714000Y-50638967D01*
X33484000Y-50638967D01*
X33421168Y-50323088D01*
X33297918Y-50025537D01*
X33118987Y-49757748D01*
X32891252Y-49530013D01*
X32623463Y-49351082D01*
X32325912Y-49227832D01*
X32010033Y-49165000D01*
X31687967Y-49165000D01*
X31372088Y-49227832D01*
X31074537Y-49351082D01*
X30806748Y-49530013D01*
X30579013Y-49757748D01*
X30400082Y-50025537D01*
X30276832Y-50323088D01*
X30214000Y-50638967D01*
X28459000Y-50638967D01*
X28396168Y-50323088D01*
X28272918Y-50025537D01*
X28093987Y-49757748D01*
X27866252Y-49530013D01*
X27598463Y-49351082D01*
X27300912Y-49227832D01*
X26985033Y-49165000D01*
X26662967Y-49165000D01*
X26347088Y-49227832D01*
X26049537Y-49351082D01*
X25781748Y-49530013D01*
X25554013Y-49757748D01*
X25375082Y-50025537D01*
X25251832Y-50323088D01*
X25219426Y-50486006D01*
X25202663Y-50517367D01*
X25160635Y-50655915D01*
X25146444Y-50800000D01*
X23959000Y-50800000D01*
X23959000Y-50638967D01*
X23896168Y-50323088D01*
X23772918Y-50025537D01*
X23593987Y-49757748D01*
X23366252Y-49530013D01*
X23098463Y-49351082D01*
X22800912Y-49227832D01*
X22485033Y-49165000D01*
X22162967Y-49165000D01*
X21847088Y-49227832D01*
X21549537Y-49351082D01*
X21281748Y-49530013D01*
X21054013Y-49757748D01*
X20875082Y-50025537D01*
X20751832Y-50323088D01*
X20689000Y-50638967D01*
X18734000Y-50638967D01*
X18671168Y-50323088D01*
X18547918Y-50025537D01*
X18368987Y-49757748D01*
X18141252Y-49530013D01*
X17873463Y-49351082D01*
X17575912Y-49227832D01*
X17260033Y-49165000D01*
X16937967Y-49165000D01*
X16622088Y-49227832D01*
X16324537Y-49351082D01*
X16056748Y-49530013D01*
X15829013Y-49757748D01*
X15650082Y-50025537D01*
X15526832Y-50323088D01*
X15464000Y-50638967D01*
X14234000Y-50638967D01*
X14171168Y-50323088D01*
X14047918Y-50025537D01*
X13868987Y-49757748D01*
X13641252Y-49530013D01*
X13373463Y-49351082D01*
X13075912Y-49227832D01*
X12760033Y-49165000D01*
X12437967Y-49165000D01*
X12122088Y-49227832D01*
X11824537Y-49351082D01*
X11556748Y-49530013D01*
X11329013Y-49757748D01*
X11150082Y-50025537D01*
X11026832Y-50323088D01*
X10964000Y-50638967D01*
X9209000Y-50638967D01*
X9146168Y-50323088D01*
X9022918Y-50025537D01*
X8843987Y-49757748D01*
X8616252Y-49530013D01*
X8348463Y-49351082D01*
X8050912Y-49227832D01*
X7735033Y-49165000D01*
X7412967Y-49165000D01*
X7097088Y-49227832D01*
X6799537Y-49351082D01*
X6531748Y-49530013D01*
X6304013Y-49757748D01*
X6125082Y-50025537D01*
X6001832Y-50323088D01*
X5939000Y-50638967D01*
X4709000Y-50638967D01*
X4646168Y-50323088D01*
X4522918Y-50025537D01*
X4343987Y-49757748D01*
X4116252Y-49530013D01*
X3848463Y-49351082D01*
X3550912Y-49227832D01*
X3235033Y-49165000D01*
X2912967Y-49165000D01*
X2597088Y-49227832D01*
X2299537Y-49351082D01*
X2031748Y-49530013D01*
X1804013Y-49757748D01*
X1625082Y-50025537D01*
X1501832Y-50323088D01*
X1439000Y-50638967D01*
X-1626586Y-50638967D01*
X-3389656Y-48875897D01*
X-3340000Y-48626260D01*
X-3340000Y-48333740D01*
X-3397068Y-48046842D01*
X-3509010Y-47776589D01*
X-3671525Y-47533368D01*
X-3878368Y-47326525D01*
X-4121589Y-47164010D01*
X-4391842Y-47052068D01*
X-4678740Y-46995000D01*
X-4971260Y-46995000D01*
X-5258158Y-47052068D01*
X-5528411Y-47164010D01*
X-5771632Y-47326525D01*
X-5978475Y-47533368D01*
X-6108372Y-47727773D01*
X-6109886Y-45171069D01*
X5740000Y-45171069D01*
X5740000Y-45493135D01*
X5802832Y-45809014D01*
X5926082Y-46106565D01*
X6105013Y-46374354D01*
X6332748Y-46602089D01*
X6600537Y-46781020D01*
X6898088Y-46904270D01*
X7213967Y-46967102D01*
X7536033Y-46967102D01*
X7851912Y-46904270D01*
X8149463Y-46781020D01*
X8417252Y-46602089D01*
X8644987Y-46374354D01*
X8823918Y-46106565D01*
X8947168Y-45809014D01*
X9010000Y-45493135D01*
X9010000Y-45371069D01*
X15132102Y-45371069D01*
X15132102Y-45693135D01*
X15194934Y-46009014D01*
X15318184Y-46306565D01*
X15497115Y-46574354D01*
X15724850Y-46802089D01*
X15992639Y-46981020D01*
X16290190Y-47104270D01*
X16606069Y-47167102D01*
X16928135Y-47167102D01*
X17244014Y-47104270D01*
X17541565Y-46981020D01*
X17809354Y-46802089D01*
X18037089Y-46574354D01*
X18216020Y-46306565D01*
X18339270Y-46009014D01*
X18402102Y-45693135D01*
X18402102Y-45371069D01*
X18339270Y-45055190D01*
X18216020Y-44757639D01*
X18037089Y-44489850D01*
X17809354Y-44262115D01*
X17541565Y-44083184D01*
X17244014Y-43959934D01*
X16928135Y-43897102D01*
X16606069Y-43897102D01*
X16290190Y-43959934D01*
X15992639Y-44083184D01*
X15724850Y-44262115D01*
X15497115Y-44489850D01*
X15318184Y-44757639D01*
X15194934Y-45055190D01*
X15132102Y-45371069D01*
X9010000Y-45371069D01*
X9010000Y-45171069D01*
X8947168Y-44855190D01*
X8823918Y-44557639D01*
X8644987Y-44289850D01*
X8417252Y-44062115D01*
X8149463Y-43883184D01*
X7851912Y-43759934D01*
X7536033Y-43697102D01*
X7213967Y-43697102D01*
X6898088Y-43759934D01*
X6600537Y-43883184D01*
X6332748Y-44062115D01*
X6105013Y-44289850D01*
X5926082Y-44557639D01*
X5802832Y-44855190D01*
X5740000Y-45171069D01*
X-6109886Y-45171069D01*
X-6111589Y-42295880D01*
X-4562919Y-42295880D01*
X-4434804Y-42777312D01*
X-3967394Y-43048380D01*
X-3456082Y-43223052D01*
X-2920519Y-43294616D01*
X-2381285Y-43260322D01*
X-1859102Y-43121487D01*
X-1374039Y-42883447D01*
X-1215196Y-42777312D01*
X-1087081Y-42295880D01*
X-2825000Y-40557961D01*
X-4562919Y-42295880D01*
X-6111589Y-42295880D01*
X-6112686Y-40444481D01*
X-5579616Y-40444481D01*
X-5545322Y-40983715D01*
X-5406487Y-41505898D01*
X-5168447Y-41990961D01*
X-5062312Y-42149804D01*
X-4580880Y-42277919D01*
X-2842961Y-40540000D01*
X-2807039Y-40540000D01*
X-1069120Y-42277919D01*
X-587688Y-42149804D01*
X-316620Y-41682394D01*
X-141948Y-41171082D01*
X-70384Y-40635519D01*
X-104678Y-40096285D01*
X-243513Y-39574102D01*
X-481553Y-39089039D01*
X-587688Y-38930196D01*
X-1069120Y-38802081D01*
X-2807039Y-40540000D01*
X-2842961Y-40540000D01*
X-4580880Y-38802081D01*
X-5062312Y-38930196D01*
X-5333380Y-39397606D01*
X-5508052Y-39908918D01*
X-5579616Y-40444481D01*
X-6112686Y-40444481D01*
X-6113669Y-38784120D01*
X-4562919Y-38784120D01*
X-2825000Y-40522039D01*
X-1087081Y-38784120D01*
X-1215196Y-38302688D01*
X-1682606Y-38031620D01*
X-2193918Y-37856948D01*
X-2729481Y-37785384D01*
X-3268715Y-37819678D01*
X-3790898Y-37958513D01*
X-4275961Y-38196553D01*
X-4434804Y-38302688D01*
X-4562919Y-38784120D01*
X-6113669Y-38784120D01*
X-6114579Y-37250000D01*
X98657748Y-37250000D01*
X98562867Y-37327867D01*
%TA.AperFunction,Conductor*%
D21*
G36*
X98562867Y-37327867D02*
G01*
X98420032Y-37501911D01*
X98313897Y-37700477D01*
X98248539Y-37915933D01*
X98226470Y-38140000D01*
X98232000Y-38641550D01*
X98517750Y-38927300D01*
X100162300Y-38927300D01*
X100162300Y-38907300D01*
X100187700Y-38907300D01*
X100187700Y-38927300D01*
X102702300Y-38927300D01*
X102702300Y-38907300D01*
X102727700Y-38907300D01*
X102727700Y-38927300D01*
X102747700Y-38927300D01*
X102747700Y-38952700D01*
X102727700Y-38952700D01*
X102727700Y-38972700D01*
X102702300Y-38972700D01*
X102702300Y-38952700D01*
X100187700Y-38952700D01*
X100187700Y-38972700D01*
X100162300Y-38972700D01*
X100162300Y-38952700D01*
X98517750Y-38952700D01*
X98232000Y-39238450D01*
X98230143Y-39406876D01*
X98211106Y-39405001D01*
X98175001Y-39401445D01*
X98138896Y-39405001D01*
X82079447Y-39405001D01*
X81920259Y-39245813D01*
X81897238Y-39217762D01*
X81785320Y-39125913D01*
X81657633Y-39057663D01*
X81519085Y-39015635D01*
X81411105Y-39005000D01*
X81375000Y-39001444D01*
X81338895Y-39005000D01*
X5818994Y-39005000D01*
X5782897Y-39001445D01*
X5746800Y-39005000D01*
X5746793Y-39005000D01*
X5653030Y-39014235D01*
X5638812Y-39015635D01*
X5596784Y-39028384D01*
X5500265Y-39057663D01*
X5372578Y-39125913D01*
X5260660Y-39217762D01*
X5237644Y-39245807D01*
X4381523Y-40101928D01*
X2782898Y-40101928D01*
X2658416Y-40114188D01*
X2538718Y-40150498D01*
X2428404Y-40209463D01*
X2331713Y-40288815D01*
X2252361Y-40385506D01*
X2193396Y-40495820D01*
X2157086Y-40615518D01*
X2144826Y-40740000D01*
X2144826Y-42740000D01*
X2157086Y-42864482D01*
X2193396Y-42984180D01*
X2252361Y-43094494D01*
X2331713Y-43191185D01*
X2428404Y-43270537D01*
X2538718Y-43329502D01*
X2658416Y-43365812D01*
X2782898Y-43378072D01*
X4782898Y-43378072D01*
X4907380Y-43365812D01*
X5027078Y-43329502D01*
X5137392Y-43270537D01*
X5234083Y-43191185D01*
X5313435Y-43094494D01*
X5372400Y-42984180D01*
X5408710Y-42864482D01*
X5420970Y-42740000D01*
X5420970Y-41141375D01*
X6087345Y-40475000D01*
X11740649Y-40475000D01*
X11723815Y-40488815D01*
X11644463Y-40585506D01*
X11585498Y-40695820D01*
X11549188Y-40815518D01*
X11536928Y-40940000D01*
X11536928Y-42940000D01*
X11549188Y-43064482D01*
X11585498Y-43184180D01*
X11644463Y-43294494D01*
X11723815Y-43391185D01*
X11820506Y-43470537D01*
X11930820Y-43529502D01*
X12050518Y-43565812D01*
X12175000Y-43578072D01*
X14175000Y-43578072D01*
X14299482Y-43565812D01*
X14419180Y-43529502D01*
X14529494Y-43470537D01*
X14626185Y-43391185D01*
X14705537Y-43294494D01*
X14764502Y-43184180D01*
X14800812Y-43064482D01*
X14813072Y-42940000D01*
X14813072Y-41141375D01*
X14879447Y-41075000D01*
X21336928Y-41075000D01*
X21336928Y-42538626D01*
X20480808Y-43394746D01*
X20452762Y-43417763D01*
X20360913Y-43529681D01*
X20292663Y-43657368D01*
X20280610Y-43697102D01*
X20250635Y-43795915D01*
X20236444Y-43940000D01*
X20240000Y-43976106D01*
X20240001Y-45303885D01*
X20236444Y-45340000D01*
X20250635Y-45484085D01*
X20256980Y-45505000D01*
X20292664Y-45622633D01*
X20360914Y-45750320D01*
X20452763Y-45862238D01*
X20480808Y-45885254D01*
X22429746Y-47834193D01*
X22452762Y-47862238D01*
X22564680Y-47954087D01*
X22692367Y-48022337D01*
X22788886Y-48051616D01*
X22830914Y-48064365D01*
X22845132Y-48065765D01*
X22938895Y-48075000D01*
X22938902Y-48075000D01*
X22974999Y-48078555D01*
X23011096Y-48075000D01*
X32397100Y-48075000D01*
X32397100Y-48236315D01*
X32434680Y-48425243D01*
X32508396Y-48603210D01*
X32615415Y-48763375D01*
X32751625Y-48899585D01*
X32911790Y-49006604D01*
X33089757Y-49080320D01*
X33278685Y-49117900D01*
X33471315Y-49117900D01*
X33660243Y-49080320D01*
X33838210Y-49006604D01*
X33998375Y-48899585D01*
X34022960Y-48875000D01*
X101245662Y-48875000D01*
X101230000Y-48953740D01*
X101230000Y-49246260D01*
X101287068Y-49533158D01*
X101399010Y-49803411D01*
X101561525Y-50046632D01*
X101768368Y-50253475D01*
X101942760Y-50370000D01*
X101768368Y-50486525D01*
X101561525Y-50693368D01*
X101399010Y-50936589D01*
X101287068Y-51206842D01*
X101230000Y-51493740D01*
X101230000Y-51786260D01*
X101283456Y-52055001D01*
X100701084Y-52055001D01*
X100664979Y-52051445D01*
X100520894Y-52065636D01*
X100382345Y-52107664D01*
X100336689Y-52132068D01*
X100254659Y-52175914D01*
X100142741Y-52267763D01*
X100119725Y-52295808D01*
X98940544Y-53474990D01*
X10134407Y-53474990D01*
X10098310Y-53471435D01*
X10062213Y-53474990D01*
X10062206Y-53474990D01*
X9954226Y-53485625D01*
X9815678Y-53527653D01*
X9783224Y-53545000D01*
X1279447Y-53545000D01*
X-1626586Y-50638967D01*
X1439000Y-50638967D01*
X1439000Y-50961033D01*
X1501832Y-51276912D01*
X1625082Y-51574463D01*
X1804013Y-51842252D01*
X2031748Y-52069987D01*
X2299537Y-52248918D01*
X2597088Y-52372168D01*
X2912967Y-52435000D01*
X3235033Y-52435000D01*
X3550912Y-52372168D01*
X3848463Y-52248918D01*
X4116252Y-52069987D01*
X4343987Y-51842252D01*
X4522918Y-51574463D01*
X4646168Y-51276912D01*
X4709000Y-50961033D01*
X4709000Y-50638967D01*
X5939000Y-50638967D01*
X5939000Y-50961033D01*
X6001832Y-51276912D01*
X6125082Y-51574463D01*
X6304013Y-51842252D01*
X6531748Y-52069987D01*
X6799537Y-52248918D01*
X7097088Y-52372168D01*
X7412967Y-52435000D01*
X7735033Y-52435000D01*
X8050912Y-52372168D01*
X8348463Y-52248918D01*
X8616252Y-52069987D01*
X8843987Y-51842252D01*
X9022918Y-51574463D01*
X9146168Y-51276912D01*
X9209000Y-50961033D01*
X9209000Y-50638967D01*
X10964000Y-50638967D01*
X10964000Y-50961033D01*
X11026832Y-51276912D01*
X11150082Y-51574463D01*
X11329013Y-51842252D01*
X11556748Y-52069987D01*
X11824537Y-52248918D01*
X12122088Y-52372168D01*
X12437967Y-52435000D01*
X12760033Y-52435000D01*
X13075912Y-52372168D01*
X13373463Y-52248918D01*
X13641252Y-52069987D01*
X13868987Y-51842252D01*
X14047918Y-51574463D01*
X14171168Y-51276912D01*
X14234000Y-50961033D01*
X14234000Y-50638967D01*
X15464000Y-50638967D01*
X15464000Y-50961033D01*
X15526832Y-51276912D01*
X15650082Y-51574463D01*
X15829013Y-51842252D01*
X16056748Y-52069987D01*
X16324537Y-52248918D01*
X16622088Y-52372168D01*
X16937967Y-52435000D01*
X17260033Y-52435000D01*
X17575912Y-52372168D01*
X17873463Y-52248918D01*
X18141252Y-52069987D01*
X18368987Y-51842252D01*
X18547918Y-51574463D01*
X18671168Y-51276912D01*
X18734000Y-50961033D01*
X18734000Y-50638967D01*
X20689000Y-50638967D01*
X20689000Y-50961033D01*
X20751832Y-51276912D01*
X20875082Y-51574463D01*
X21054013Y-51842252D01*
X21281748Y-52069987D01*
X21549537Y-52248918D01*
X21847088Y-52372168D01*
X22162967Y-52435000D01*
X22485033Y-52435000D01*
X22800912Y-52372168D01*
X23098463Y-52248918D01*
X23366252Y-52069987D01*
X23593987Y-51842252D01*
X23772918Y-51574463D01*
X23896168Y-51276912D01*
X23959000Y-50961033D01*
X23959000Y-50800000D01*
X25146444Y-50800000D01*
X25160635Y-50944085D01*
X25202663Y-51082633D01*
X25219426Y-51113994D01*
X25251832Y-51276912D01*
X25375082Y-51574463D01*
X25554013Y-51842252D01*
X25781748Y-52069987D01*
X26049537Y-52248918D01*
X26347088Y-52372168D01*
X26662967Y-52435000D01*
X26985033Y-52435000D01*
X27300912Y-52372168D01*
X27598463Y-52248918D01*
X27866252Y-52069987D01*
X28093987Y-51842252D01*
X28272918Y-51574463D01*
X28396168Y-51276912D01*
X28459000Y-50961033D01*
X28459000Y-50638967D01*
X30214000Y-50638967D01*
X30214000Y-50961033D01*
X30276832Y-51276912D01*
X30400082Y-51574463D01*
X30579013Y-51842252D01*
X30806748Y-52069987D01*
X31074537Y-52248918D01*
X31372088Y-52372168D01*
X31687967Y-52435000D01*
X32010033Y-52435000D01*
X32325912Y-52372168D01*
X32623463Y-52248918D01*
X32891252Y-52069987D01*
X33118987Y-51842252D01*
X33297918Y-51574463D01*
X33421168Y-51276912D01*
X33484000Y-50961033D01*
X33484000Y-50638967D01*
X34714000Y-50638967D01*
X34714000Y-50961033D01*
X34776832Y-51276912D01*
X34900082Y-51574463D01*
X35079013Y-51842252D01*
X35306748Y-52069987D01*
X35574537Y-52248918D01*
X35872088Y-52372168D01*
X36187967Y-52435000D01*
X36510033Y-52435000D01*
X36825912Y-52372168D01*
X37123463Y-52248918D01*
X37391252Y-52069987D01*
X37618987Y-51842252D01*
X37797918Y-51574463D01*
X37921168Y-51276912D01*
X37984000Y-50961033D01*
X37984000Y-50638967D01*
X39739000Y-50638967D01*
X39739000Y-50961033D01*
X39801832Y-51276912D01*
X39925082Y-51574463D01*
X40104013Y-51842252D01*
X40331748Y-52069987D01*
X40599537Y-52248918D01*
X40897088Y-52372168D01*
X41212967Y-52435000D01*
X41535033Y-52435000D01*
X41850912Y-52372168D01*
X42148463Y-52248918D01*
X42416252Y-52069987D01*
X42643987Y-51842252D01*
X42822918Y-51574463D01*
X42946168Y-51276912D01*
X43009000Y-50961033D01*
X43009000Y-50638967D01*
X44239000Y-50638967D01*
X44239000Y-50961033D01*
X44301832Y-51276912D01*
X44425082Y-51574463D01*
X44604013Y-51842252D01*
X44831748Y-52069987D01*
X45099537Y-52248918D01*
X45397088Y-52372168D01*
X45712967Y-52435000D01*
X46035033Y-52435000D01*
X46350912Y-52372168D01*
X46648463Y-52248918D01*
X46916252Y-52069987D01*
X47143987Y-51842252D01*
X47322918Y-51574463D01*
X47446168Y-51276912D01*
X47509000Y-50961033D01*
X47509000Y-50638967D01*
X49264000Y-50638967D01*
X49264000Y-50961033D01*
X49326832Y-51276912D01*
X49450082Y-51574463D01*
X49629013Y-51842252D01*
X49856748Y-52069987D01*
X50124537Y-52248918D01*
X50422088Y-52372168D01*
X50737967Y-52435000D01*
X51060033Y-52435000D01*
X51375912Y-52372168D01*
X51673463Y-52248918D01*
X51941252Y-52069987D01*
X52168987Y-51842252D01*
X52347918Y-51574463D01*
X52471168Y-51276912D01*
X52534000Y-50961033D01*
X52534000Y-50638967D01*
X53764000Y-50638967D01*
X53764000Y-50961033D01*
X53826832Y-51276912D01*
X53950082Y-51574463D01*
X54129013Y-51842252D01*
X54356748Y-52069987D01*
X54624537Y-52248918D01*
X54922088Y-52372168D01*
X55237967Y-52435000D01*
X55560033Y-52435000D01*
X55875912Y-52372168D01*
X56173463Y-52248918D01*
X56441252Y-52069987D01*
X56668987Y-51842252D01*
X56847918Y-51574463D01*
X56971168Y-51276912D01*
X57034000Y-50961033D01*
X57034000Y-50638967D01*
X58789000Y-50638967D01*
X58789000Y-50961033D01*
X58851832Y-51276912D01*
X58975082Y-51574463D01*
X59154013Y-51842252D01*
X59381748Y-52069987D01*
X59649537Y-52248918D01*
X59947088Y-52372168D01*
X60262967Y-52435000D01*
X60585033Y-52435000D01*
X60900912Y-52372168D01*
X61198463Y-52248918D01*
X61466252Y-52069987D01*
X61693987Y-51842252D01*
X61872918Y-51574463D01*
X61996168Y-51276912D01*
X62059000Y-50961033D01*
X62059000Y-50638967D01*
X63289000Y-50638967D01*
X63289000Y-50961033D01*
X63351832Y-51276912D01*
X63475082Y-51574463D01*
X63654013Y-51842252D01*
X63881748Y-52069987D01*
X64149537Y-52248918D01*
X64447088Y-52372168D01*
X64762967Y-52435000D01*
X65085033Y-52435000D01*
X65400912Y-52372168D01*
X65698463Y-52248918D01*
X65966252Y-52069987D01*
X66193987Y-51842252D01*
X66372918Y-51574463D01*
X66496168Y-51276912D01*
X66559000Y-50961033D01*
X66559000Y-50638967D01*
X68314000Y-50638967D01*
X68314000Y-50961033D01*
X68376832Y-51276912D01*
X68500082Y-51574463D01*
X68679013Y-51842252D01*
X68906748Y-52069987D01*
X69174537Y-52248918D01*
X69472088Y-52372168D01*
X69787967Y-52435000D01*
X70110033Y-52435000D01*
X70425912Y-52372168D01*
X70723463Y-52248918D01*
X70991252Y-52069987D01*
X71218987Y-51842252D01*
X71397918Y-51574463D01*
X71521168Y-51276912D01*
X71584000Y-50961033D01*
X71584000Y-50638967D01*
X72814000Y-50638967D01*
X72814000Y-50961033D01*
X72876832Y-51276912D01*
X73000082Y-51574463D01*
X73179013Y-51842252D01*
X73406748Y-52069987D01*
X73674537Y-52248918D01*
X73972088Y-52372168D01*
X74287967Y-52435000D01*
X74610033Y-52435000D01*
X74925912Y-52372168D01*
X75223463Y-52248918D01*
X75491252Y-52069987D01*
X75718987Y-51842252D01*
X75897918Y-51574463D01*
X76021168Y-51276912D01*
X76084000Y-50961033D01*
X76084000Y-50638967D01*
X77839000Y-50638967D01*
X77839000Y-50961033D01*
X77901832Y-51276912D01*
X78025082Y-51574463D01*
X78204013Y-51842252D01*
X78431748Y-52069987D01*
X78699537Y-52248918D01*
X78997088Y-52372168D01*
X79312967Y-52435000D01*
X79635033Y-52435000D01*
X79950912Y-52372168D01*
X80248463Y-52248918D01*
X80516252Y-52069987D01*
X80743987Y-51842252D01*
X80922918Y-51574463D01*
X81046168Y-51276912D01*
X81109000Y-50961033D01*
X81109000Y-50638967D01*
X82339000Y-50638967D01*
X82339000Y-50961033D01*
X82401832Y-51276912D01*
X82525082Y-51574463D01*
X82704013Y-51842252D01*
X82931748Y-52069987D01*
X83199537Y-52248918D01*
X83497088Y-52372168D01*
X83812967Y-52435000D01*
X84135033Y-52435000D01*
X84450912Y-52372168D01*
X84748463Y-52248918D01*
X85016252Y-52069987D01*
X85243987Y-51842252D01*
X85422918Y-51574463D01*
X85546168Y-51276912D01*
X85609000Y-50961033D01*
X85609000Y-50638967D01*
X85577175Y-50478967D01*
X87340000Y-50478967D01*
X87340000Y-50801033D01*
X87402832Y-51116912D01*
X87526082Y-51414463D01*
X87705013Y-51682252D01*
X87932748Y-51909987D01*
X88200537Y-52088918D01*
X88498088Y-52212168D01*
X88813967Y-52275000D01*
X89136033Y-52275000D01*
X89451912Y-52212168D01*
X89749463Y-52088918D01*
X90017252Y-51909987D01*
X90244987Y-51682252D01*
X90423918Y-51414463D01*
X90547168Y-51116912D01*
X90610000Y-50801033D01*
X90610000Y-50478967D01*
X91840000Y-50478967D01*
X91840000Y-50801033D01*
X91902832Y-51116912D01*
X92026082Y-51414463D01*
X92205013Y-51682252D01*
X92432748Y-51909987D01*
X92700537Y-52088918D01*
X92998088Y-52212168D01*
X93313967Y-52275000D01*
X93636033Y-52275000D01*
X93951912Y-52212168D01*
X94249463Y-52088918D01*
X94517252Y-51909987D01*
X94744987Y-51682252D01*
X94923918Y-51414463D01*
X95047168Y-51116912D01*
X95110000Y-50801033D01*
X95110000Y-50478967D01*
X95047168Y-50163088D01*
X94923918Y-49865537D01*
X94744987Y-49597748D01*
X94517252Y-49370013D01*
X94249463Y-49191082D01*
X93951912Y-49067832D01*
X93636033Y-49005000D01*
X93313967Y-49005000D01*
X92998088Y-49067832D01*
X92700537Y-49191082D01*
X92432748Y-49370013D01*
X92205013Y-49597748D01*
X92026082Y-49865537D01*
X91902832Y-50163088D01*
X91840000Y-50478967D01*
X90610000Y-50478967D01*
X90547168Y-50163088D01*
X90423918Y-49865537D01*
X90244987Y-49597748D01*
X90017252Y-49370013D01*
X89749463Y-49191082D01*
X89451912Y-49067832D01*
X89136033Y-49005000D01*
X88813967Y-49005000D01*
X88498088Y-49067832D01*
X88200537Y-49191082D01*
X87932748Y-49370013D01*
X87705013Y-49597748D01*
X87526082Y-49865537D01*
X87402832Y-50163088D01*
X87340000Y-50478967D01*
X85577175Y-50478967D01*
X85546168Y-50323088D01*
X85422918Y-50025537D01*
X85243987Y-49757748D01*
X85016252Y-49530013D01*
X84748463Y-49351082D01*
X84450912Y-49227832D01*
X84135033Y-49165000D01*
X83812967Y-49165000D01*
X83497088Y-49227832D01*
X83199537Y-49351082D01*
X82931748Y-49530013D01*
X82704013Y-49757748D01*
X82525082Y-50025537D01*
X82401832Y-50323088D01*
X82339000Y-50638967D01*
X81109000Y-50638967D01*
X81046168Y-50323088D01*
X80922918Y-50025537D01*
X80743987Y-49757748D01*
X80516252Y-49530013D01*
X80248463Y-49351082D01*
X79950912Y-49227832D01*
X79635033Y-49165000D01*
X79312967Y-49165000D01*
X78997088Y-49227832D01*
X78699537Y-49351082D01*
X78431748Y-49530013D01*
X78204013Y-49757748D01*
X78025082Y-50025537D01*
X77901832Y-50323088D01*
X77839000Y-50638967D01*
X76084000Y-50638967D01*
X76021168Y-50323088D01*
X75897918Y-50025537D01*
X75718987Y-49757748D01*
X75491252Y-49530013D01*
X75223463Y-49351082D01*
X74925912Y-49227832D01*
X74610033Y-49165000D01*
X74287967Y-49165000D01*
X73972088Y-49227832D01*
X73674537Y-49351082D01*
X73406748Y-49530013D01*
X73179013Y-49757748D01*
X73000082Y-50025537D01*
X72876832Y-50323088D01*
X72814000Y-50638967D01*
X71584000Y-50638967D01*
X71521168Y-50323088D01*
X71397918Y-50025537D01*
X71218987Y-49757748D01*
X70991252Y-49530013D01*
X70723463Y-49351082D01*
X70425912Y-49227832D01*
X70110033Y-49165000D01*
X69787967Y-49165000D01*
X69472088Y-49227832D01*
X69174537Y-49351082D01*
X68906748Y-49530013D01*
X68679013Y-49757748D01*
X68500082Y-50025537D01*
X68376832Y-50323088D01*
X68314000Y-50638967D01*
X66559000Y-50638967D01*
X66496168Y-50323088D01*
X66372918Y-50025537D01*
X66193987Y-49757748D01*
X65966252Y-49530013D01*
X65698463Y-49351082D01*
X65400912Y-49227832D01*
X65085033Y-49165000D01*
X64762967Y-49165000D01*
X64447088Y-49227832D01*
X64149537Y-49351082D01*
X63881748Y-49530013D01*
X63654013Y-49757748D01*
X63475082Y-50025537D01*
X63351832Y-50323088D01*
X63289000Y-50638967D01*
X62059000Y-50638967D01*
X61996168Y-50323088D01*
X61872918Y-50025537D01*
X61693987Y-49757748D01*
X61466252Y-49530013D01*
X61198463Y-49351082D01*
X60900912Y-49227832D01*
X60585033Y-49165000D01*
X60262967Y-49165000D01*
X59947088Y-49227832D01*
X59649537Y-49351082D01*
X59381748Y-49530013D01*
X59154013Y-49757748D01*
X58975082Y-50025537D01*
X58851832Y-50323088D01*
X58789000Y-50638967D01*
X57034000Y-50638967D01*
X56971168Y-50323088D01*
X56847918Y-50025537D01*
X56668987Y-49757748D01*
X56441252Y-49530013D01*
X56173463Y-49351082D01*
X55875912Y-49227832D01*
X55560033Y-49165000D01*
X55237967Y-49165000D01*
X54922088Y-49227832D01*
X54624537Y-49351082D01*
X54356748Y-49530013D01*
X54129013Y-49757748D01*
X53950082Y-50025537D01*
X53826832Y-50323088D01*
X53764000Y-50638967D01*
X52534000Y-50638967D01*
X52471168Y-50323088D01*
X52347918Y-50025537D01*
X52168987Y-49757748D01*
X51941252Y-49530013D01*
X51673463Y-49351082D01*
X51375912Y-49227832D01*
X51060033Y-49165000D01*
X50737967Y-49165000D01*
X50422088Y-49227832D01*
X50124537Y-49351082D01*
X49856748Y-49530013D01*
X49629013Y-49757748D01*
X49450082Y-50025537D01*
X49326832Y-50323088D01*
X49264000Y-50638967D01*
X47509000Y-50638967D01*
X47446168Y-50323088D01*
X47322918Y-50025537D01*
X47143987Y-49757748D01*
X46916252Y-49530013D01*
X46648463Y-49351082D01*
X46350912Y-49227832D01*
X46035033Y-49165000D01*
X45712967Y-49165000D01*
X45397088Y-49227832D01*
X45099537Y-49351082D01*
X44831748Y-49530013D01*
X44604013Y-49757748D01*
X44425082Y-50025537D01*
X44301832Y-50323088D01*
X44239000Y-50638967D01*
X43009000Y-50638967D01*
X42946168Y-50323088D01*
X42822918Y-50025537D01*
X42643987Y-49757748D01*
X42416252Y-49530013D01*
X42148463Y-49351082D01*
X41850912Y-49227832D01*
X41535033Y-49165000D01*
X41212967Y-49165000D01*
X40897088Y-49227832D01*
X40599537Y-49351082D01*
X40331748Y-49530013D01*
X40104013Y-49757748D01*
X39925082Y-50025537D01*
X39801832Y-50323088D01*
X39739000Y-50638967D01*
X37984000Y-50638967D01*
X37921168Y-50323088D01*
X37797918Y-50025537D01*
X37618987Y-49757748D01*
X37391252Y-49530013D01*
X37123463Y-49351082D01*
X36825912Y-49227832D01*
X36510033Y-49165000D01*
X36187967Y-49165000D01*
X35872088Y-49227832D01*
X35574537Y-49351082D01*
X35306748Y-49530013D01*
X35079013Y-49757748D01*
X34900082Y-50025537D01*
X34776832Y-50323088D01*
X34714000Y-50638967D01*
X33484000Y-50638967D01*
X33421168Y-50323088D01*
X33297918Y-50025537D01*
X33118987Y-49757748D01*
X32891252Y-49530013D01*
X32623463Y-49351082D01*
X32325912Y-49227832D01*
X32010033Y-49165000D01*
X31687967Y-49165000D01*
X31372088Y-49227832D01*
X31074537Y-49351082D01*
X30806748Y-49530013D01*
X30579013Y-49757748D01*
X30400082Y-50025537D01*
X30276832Y-50323088D01*
X30214000Y-50638967D01*
X28459000Y-50638967D01*
X28396168Y-50323088D01*
X28272918Y-50025537D01*
X28093987Y-49757748D01*
X27866252Y-49530013D01*
X27598463Y-49351082D01*
X27300912Y-49227832D01*
X26985033Y-49165000D01*
X26662967Y-49165000D01*
X26347088Y-49227832D01*
X26049537Y-49351082D01*
X25781748Y-49530013D01*
X25554013Y-49757748D01*
X25375082Y-50025537D01*
X25251832Y-50323088D01*
X25219426Y-50486006D01*
X25202663Y-50517367D01*
X25160635Y-50655915D01*
X25146444Y-50800000D01*
X23959000Y-50800000D01*
X23959000Y-50638967D01*
X23896168Y-50323088D01*
X23772918Y-50025537D01*
X23593987Y-49757748D01*
X23366252Y-49530013D01*
X23098463Y-49351082D01*
X22800912Y-49227832D01*
X22485033Y-49165000D01*
X22162967Y-49165000D01*
X21847088Y-49227832D01*
X21549537Y-49351082D01*
X21281748Y-49530013D01*
X21054013Y-49757748D01*
X20875082Y-50025537D01*
X20751832Y-50323088D01*
X20689000Y-50638967D01*
X18734000Y-50638967D01*
X18671168Y-50323088D01*
X18547918Y-50025537D01*
X18368987Y-49757748D01*
X18141252Y-49530013D01*
X17873463Y-49351082D01*
X17575912Y-49227832D01*
X17260033Y-49165000D01*
X16937967Y-49165000D01*
X16622088Y-49227832D01*
X16324537Y-49351082D01*
X16056748Y-49530013D01*
X15829013Y-49757748D01*
X15650082Y-50025537D01*
X15526832Y-50323088D01*
X15464000Y-50638967D01*
X14234000Y-50638967D01*
X14171168Y-50323088D01*
X14047918Y-50025537D01*
X13868987Y-49757748D01*
X13641252Y-49530013D01*
X13373463Y-49351082D01*
X13075912Y-49227832D01*
X12760033Y-49165000D01*
X12437967Y-49165000D01*
X12122088Y-49227832D01*
X11824537Y-49351082D01*
X11556748Y-49530013D01*
X11329013Y-49757748D01*
X11150082Y-50025537D01*
X11026832Y-50323088D01*
X10964000Y-50638967D01*
X9209000Y-50638967D01*
X9146168Y-50323088D01*
X9022918Y-50025537D01*
X8843987Y-49757748D01*
X8616252Y-49530013D01*
X8348463Y-49351082D01*
X8050912Y-49227832D01*
X7735033Y-49165000D01*
X7412967Y-49165000D01*
X7097088Y-49227832D01*
X6799537Y-49351082D01*
X6531748Y-49530013D01*
X6304013Y-49757748D01*
X6125082Y-50025537D01*
X6001832Y-50323088D01*
X5939000Y-50638967D01*
X4709000Y-50638967D01*
X4646168Y-50323088D01*
X4522918Y-50025537D01*
X4343987Y-49757748D01*
X4116252Y-49530013D01*
X3848463Y-49351082D01*
X3550912Y-49227832D01*
X3235033Y-49165000D01*
X2912967Y-49165000D01*
X2597088Y-49227832D01*
X2299537Y-49351082D01*
X2031748Y-49530013D01*
X1804013Y-49757748D01*
X1625082Y-50025537D01*
X1501832Y-50323088D01*
X1439000Y-50638967D01*
X-1626586Y-50638967D01*
X-3389656Y-48875897D01*
X-3340000Y-48626260D01*
X-3340000Y-48333740D01*
X-3397068Y-48046842D01*
X-3509010Y-47776589D01*
X-3671525Y-47533368D01*
X-3878368Y-47326525D01*
X-4121589Y-47164010D01*
X-4391842Y-47052068D01*
X-4678740Y-46995000D01*
X-4971260Y-46995000D01*
X-5258158Y-47052068D01*
X-5528411Y-47164010D01*
X-5771632Y-47326525D01*
X-5978475Y-47533368D01*
X-6108372Y-47727773D01*
X-6109886Y-45171069D01*
X5740000Y-45171069D01*
X5740000Y-45493135D01*
X5802832Y-45809014D01*
X5926082Y-46106565D01*
X6105013Y-46374354D01*
X6332748Y-46602089D01*
X6600537Y-46781020D01*
X6898088Y-46904270D01*
X7213967Y-46967102D01*
X7536033Y-46967102D01*
X7851912Y-46904270D01*
X8149463Y-46781020D01*
X8417252Y-46602089D01*
X8644987Y-46374354D01*
X8823918Y-46106565D01*
X8947168Y-45809014D01*
X9010000Y-45493135D01*
X9010000Y-45371069D01*
X15132102Y-45371069D01*
X15132102Y-45693135D01*
X15194934Y-46009014D01*
X15318184Y-46306565D01*
X15497115Y-46574354D01*
X15724850Y-46802089D01*
X15992639Y-46981020D01*
X16290190Y-47104270D01*
X16606069Y-47167102D01*
X16928135Y-47167102D01*
X17244014Y-47104270D01*
X17541565Y-46981020D01*
X17809354Y-46802089D01*
X18037089Y-46574354D01*
X18216020Y-46306565D01*
X18339270Y-46009014D01*
X18402102Y-45693135D01*
X18402102Y-45371069D01*
X18339270Y-45055190D01*
X18216020Y-44757639D01*
X18037089Y-44489850D01*
X17809354Y-44262115D01*
X17541565Y-44083184D01*
X17244014Y-43959934D01*
X16928135Y-43897102D01*
X16606069Y-43897102D01*
X16290190Y-43959934D01*
X15992639Y-44083184D01*
X15724850Y-44262115D01*
X15497115Y-44489850D01*
X15318184Y-44757639D01*
X15194934Y-45055190D01*
X15132102Y-45371069D01*
X9010000Y-45371069D01*
X9010000Y-45171069D01*
X8947168Y-44855190D01*
X8823918Y-44557639D01*
X8644987Y-44289850D01*
X8417252Y-44062115D01*
X8149463Y-43883184D01*
X7851912Y-43759934D01*
X7536033Y-43697102D01*
X7213967Y-43697102D01*
X6898088Y-43759934D01*
X6600537Y-43883184D01*
X6332748Y-44062115D01*
X6105013Y-44289850D01*
X5926082Y-44557639D01*
X5802832Y-44855190D01*
X5740000Y-45171069D01*
X-6109886Y-45171069D01*
X-6111589Y-42295880D01*
X-4562919Y-42295880D01*
X-4434804Y-42777312D01*
X-3967394Y-43048380D01*
X-3456082Y-43223052D01*
X-2920519Y-43294616D01*
X-2381285Y-43260322D01*
X-1859102Y-43121487D01*
X-1374039Y-42883447D01*
X-1215196Y-42777312D01*
X-1087081Y-42295880D01*
X-2825000Y-40557961D01*
X-4562919Y-42295880D01*
X-6111589Y-42295880D01*
X-6112686Y-40444481D01*
X-5579616Y-40444481D01*
X-5545322Y-40983715D01*
X-5406487Y-41505898D01*
X-5168447Y-41990961D01*
X-5062312Y-42149804D01*
X-4580880Y-42277919D01*
X-2842961Y-40540000D01*
X-2807039Y-40540000D01*
X-1069120Y-42277919D01*
X-587688Y-42149804D01*
X-316620Y-41682394D01*
X-141948Y-41171082D01*
X-70384Y-40635519D01*
X-104678Y-40096285D01*
X-243513Y-39574102D01*
X-481553Y-39089039D01*
X-587688Y-38930196D01*
X-1069120Y-38802081D01*
X-2807039Y-40540000D01*
X-2842961Y-40540000D01*
X-4580880Y-38802081D01*
X-5062312Y-38930196D01*
X-5333380Y-39397606D01*
X-5508052Y-39908918D01*
X-5579616Y-40444481D01*
X-6112686Y-40444481D01*
X-6113669Y-38784120D01*
X-4562919Y-38784120D01*
X-2825000Y-40522039D01*
X-1087081Y-38784120D01*
X-1215196Y-38302688D01*
X-1682606Y-38031620D01*
X-2193918Y-37856948D01*
X-2729481Y-37785384D01*
X-3268715Y-37819678D01*
X-3790898Y-37958513D01*
X-4275961Y-38196553D01*
X-4434804Y-38302688D01*
X-4562919Y-38784120D01*
X-6113669Y-38784120D01*
X-6114579Y-37250000D01*
X98657748Y-37250000D01*
X98562867Y-37327867D01*
G37*
%TD.AperFunction*%
M02*
