%TF.GenerationSoftware,KiCad,Pcbnew,(5.1.9-0-10_14)*%
%TF.CreationDate,2021-02-12T13:00:48+01:00*%
%TF.ProjectId,teensythumbboard,7465656e-7379-4746-9875-6d62626f6172,1.1*%
%TF.SameCoordinates,PX68290a0PY463f660*%
%TF.FileFunction,Legend,Bot*%
%TF.FilePolarity,Positive*%
%FSLAX46Y46*%
G04 Gerber Fmt 4.6, Leading zero omitted, Abs format (unit mm)*
G04 Created by KiCad (PCBNEW (5.1.9-0-10_14)) date 2021-02-12 13:00:48*
%MOMM*%
%LPD*%
G01*
G04 APERTURE LIST*
%ADD10C,0.150000*%
%ADD11C,0.500000*%
%TA.AperFunction,Profile*%
%ADD12C,0.150000*%
%TD*%
%ADD13C,0.200000*%
G04 APERTURE END LIST*
D10*
X7766000Y-43772000D02*
X7639000Y-43899000D01*
X3575000Y-43137000D02*
X3448000Y-43264000D01*
X3448000Y-43264000D02*
X5861000Y-45677000D01*
X5226000Y-41486000D02*
X5353000Y-41359000D01*
X5353000Y-41359000D02*
X7766000Y-43772000D01*
X5861000Y-45677000D02*
X5988000Y-45550000D01*
X3829000Y-43645000D02*
X5734000Y-41740000D01*
X17166000Y-43972000D02*
X17039000Y-44099000D01*
X12975000Y-43337000D02*
X12848000Y-43464000D01*
X12848000Y-43464000D02*
X15261000Y-45877000D01*
X14626000Y-41686000D02*
X14753000Y-41559000D01*
X14753000Y-41559000D02*
X17166000Y-43972000D01*
X15261000Y-45877000D02*
X15388000Y-45750000D01*
X13229000Y-43845000D02*
X15134000Y-41940000D01*
X26966000Y-43972000D02*
X26839000Y-44099000D01*
X22775000Y-43337000D02*
X22648000Y-43464000D01*
X22648000Y-43464000D02*
X25061000Y-45877000D01*
X24426000Y-41686000D02*
X24553000Y-41559000D01*
X24553000Y-41559000D02*
X26966000Y-43972000D01*
X25061000Y-45877000D02*
X25188000Y-45750000D01*
X23029000Y-43845000D02*
X24934000Y-41940000D01*
X36566000Y-43972000D02*
X36439000Y-44099000D01*
X32375000Y-43337000D02*
X32248000Y-43464000D01*
X32248000Y-43464000D02*
X34661000Y-45877000D01*
X34026000Y-41686000D02*
X34153000Y-41559000D01*
X34153000Y-41559000D02*
X36566000Y-43972000D01*
X34661000Y-45877000D02*
X34788000Y-45750000D01*
X32629000Y-43845000D02*
X34534000Y-41940000D01*
X46166000Y-43772000D02*
X46039000Y-43899000D01*
X41975000Y-43137000D02*
X41848000Y-43264000D01*
X41848000Y-43264000D02*
X44261000Y-45677000D01*
X43626000Y-41486000D02*
X43753000Y-41359000D01*
X43753000Y-41359000D02*
X46166000Y-43772000D01*
X44261000Y-45677000D02*
X44388000Y-45550000D01*
X42229000Y-43645000D02*
X44134000Y-41740000D01*
X55566000Y-43972000D02*
X55439000Y-44099000D01*
X51375000Y-43337000D02*
X51248000Y-43464000D01*
X51248000Y-43464000D02*
X53661000Y-45877000D01*
X53026000Y-41686000D02*
X53153000Y-41559000D01*
X53153000Y-41559000D02*
X55566000Y-43972000D01*
X53661000Y-45877000D02*
X53788000Y-45750000D01*
X51629000Y-43845000D02*
X53534000Y-41940000D01*
X65166000Y-43772000D02*
X65039000Y-43899000D01*
X60975000Y-43137000D02*
X60848000Y-43264000D01*
X60848000Y-43264000D02*
X63261000Y-45677000D01*
X62626000Y-41486000D02*
X62753000Y-41359000D01*
X62753000Y-41359000D02*
X65166000Y-43772000D01*
X63261000Y-45677000D02*
X63388000Y-45550000D01*
X61229000Y-43645000D02*
X63134000Y-41740000D01*
X74766000Y-43772000D02*
X74639000Y-43899000D01*
X70575000Y-43137000D02*
X70448000Y-43264000D01*
X70448000Y-43264000D02*
X72861000Y-45677000D01*
X72226000Y-41486000D02*
X72353000Y-41359000D01*
X72353000Y-41359000D02*
X74766000Y-43772000D01*
X72861000Y-45677000D02*
X72988000Y-45550000D01*
X70829000Y-43645000D02*
X72734000Y-41740000D01*
X84166000Y-43972000D02*
X84039000Y-44099000D01*
X79975000Y-43337000D02*
X79848000Y-43464000D01*
X79848000Y-43464000D02*
X82261000Y-45877000D01*
X81626000Y-41686000D02*
X81753000Y-41559000D01*
X81753000Y-41559000D02*
X84166000Y-43972000D01*
X82261000Y-45877000D02*
X82388000Y-45750000D01*
X80229000Y-43845000D02*
X82134000Y-41940000D01*
X89560000Y-43137000D02*
X89433000Y-43264000D01*
X93751000Y-43772000D02*
X93624000Y-43899000D01*
X91338000Y-41359000D02*
X93751000Y-43772000D01*
X89433000Y-43264000D02*
X91846000Y-45677000D01*
X91211000Y-41486000D02*
X91338000Y-41359000D01*
X91846000Y-45677000D02*
X91973000Y-45550000D01*
X89814000Y-43645000D02*
X91719000Y-41740000D01*
D11*
X118590000Y-38940000D02*
X119860000Y-38940000D01*
X116050000Y-38940000D02*
X117320000Y-38940000D01*
X113510000Y-41480000D02*
X114780000Y-41480000D01*
X118590000Y-41480000D02*
X119860000Y-41480000D01*
X118590000Y-44020000D02*
X119860000Y-44020000D01*
X116050000Y-44020000D02*
X117320000Y-44020000D01*
X113510000Y-46560000D02*
X114780000Y-46560000D01*
X113510000Y-49100000D02*
X114780000Y-49100000D01*
X113510000Y-51640000D02*
X114780000Y-51640000D01*
X116050000Y-54180000D02*
X117320000Y-54180000D01*
X116050000Y-56720000D02*
X117320000Y-56720000D01*
X116050000Y-61800000D02*
X117320000Y-61800000D01*
X116050000Y-59260000D02*
X117320000Y-59260000D01*
X116050000Y-64340000D02*
X117320000Y-64340000D01*
X116050000Y-66880000D02*
X117320000Y-66880000D01*
X116050000Y-69420000D02*
X117320000Y-69420000D01*
X100810000Y-38940000D02*
X102080000Y-38940000D01*
X103350000Y-38940000D02*
X104620000Y-38940000D01*
X103350000Y-41480000D02*
X104620000Y-41480000D01*
X103350000Y-44020000D02*
X104620000Y-44020000D01*
X103350000Y-46560000D02*
X104620000Y-46560000D01*
X103350000Y-49100000D02*
X104620000Y-49100000D01*
X103350000Y-56720000D02*
X104620000Y-56720000D01*
X103350000Y-61800000D02*
X104620000Y-61800000D01*
X103350000Y-64340000D02*
X104620000Y-64340000D01*
X103350000Y-66880000D02*
X104620000Y-66880000D01*
X103350000Y-69420000D02*
X104620000Y-69420000D01*
X102715000Y-72595000D02*
X102715000Y-73865000D01*
X105255000Y-72595000D02*
X105255000Y-73865000D01*
X107795000Y-72595000D02*
X107795000Y-73865000D01*
X110335000Y-72595000D02*
X110335000Y-73865000D01*
X112875000Y-72595000D02*
X112875000Y-73865000D01*
X115415000Y-72595000D02*
X115415000Y-73865000D01*
X117955000Y-72595000D02*
X117955000Y-73865000D01*
D10*
X116685000Y-37670000D02*
X119225000Y-37670000D01*
X101445000Y-37670000D02*
X103985000Y-37670000D01*
X116685000Y-70690000D02*
X103985000Y-70690000D01*
X103985000Y-37670000D02*
X103985000Y-70690000D01*
X119225000Y-73230000D02*
X101445000Y-73230000D01*
D12*
X-6825000Y-36540000D02*
X130575000Y-36540000D01*
D10*
X101445000Y-70690000D02*
X101445000Y-73230000D01*
D13*
X101090142Y-71288285D02*
X100190142Y-71288285D01*
X100190142Y-71502571D01*
X100233000Y-71631142D01*
X100318714Y-71716857D01*
X100404428Y-71759714D01*
X100575857Y-71802571D01*
X100704428Y-71802571D01*
X100875857Y-71759714D01*
X100961571Y-71716857D01*
X101047285Y-71631142D01*
X101090142Y-71502571D01*
X101090142Y-71288285D01*
X101090142Y-72659714D02*
X101090142Y-72145428D01*
X101090142Y-72402571D02*
X100190142Y-72402571D01*
X100318714Y-72316857D01*
X100404428Y-72231142D01*
X100447285Y-72145428D01*
X100275857Y-73002571D02*
X100233000Y-73045428D01*
X100190142Y-73131142D01*
X100190142Y-73345428D01*
X100233000Y-73431142D01*
X100275857Y-73474000D01*
X100361571Y-73516857D01*
X100447285Y-73516857D01*
X100575857Y-73474000D01*
X101090142Y-72959714D01*
X101090142Y-73516857D01*
D10*
X101445000Y-70690000D02*
X101445000Y-37670000D01*
X119225000Y-73230000D02*
X119225000Y-37670000D01*
X116685000Y-37670000D02*
X116685000Y-70690000D01*
D13*
X101235446Y-41376340D02*
X100599050Y-40739944D01*
X100447527Y-40891467D01*
X100386918Y-41012685D01*
X100386918Y-41133903D01*
X100417223Y-41224817D01*
X100508136Y-41376340D01*
X100599050Y-41467253D01*
X100750573Y-41558167D01*
X100841487Y-41588472D01*
X100962705Y-41588472D01*
X101083923Y-41527863D01*
X101235446Y-41376340D01*
X99841436Y-41497558D02*
X99780827Y-41558167D01*
X99750522Y-41649081D01*
X99750522Y-41709690D01*
X99780827Y-41800604D01*
X99871740Y-41952127D01*
X100023263Y-42103650D01*
X100174786Y-42194563D01*
X100265700Y-42224868D01*
X100326309Y-42224868D01*
X100417223Y-42194563D01*
X100477832Y-42133954D01*
X100508136Y-42043040D01*
X100508136Y-41982431D01*
X100477832Y-41891518D01*
X100386918Y-41739995D01*
X100235395Y-41588472D01*
X100083872Y-41497558D01*
X99992959Y-41467253D01*
X99932349Y-41467253D01*
X99841436Y-41497558D01*
X101235446Y-44043340D02*
X100599050Y-43406944D01*
X100447527Y-43558467D01*
X100386918Y-43679685D01*
X100386918Y-43800903D01*
X100417223Y-43891817D01*
X100508136Y-44043340D01*
X100599050Y-44134253D01*
X100750573Y-44225167D01*
X100841487Y-44255472D01*
X100962705Y-44255472D01*
X101083923Y-44194863D01*
X101235446Y-44043340D01*
X100265700Y-45013086D02*
X100629355Y-44649431D01*
X100447527Y-44831259D02*
X99811131Y-44194863D01*
X99962654Y-44225167D01*
X100083872Y-44225167D01*
X100174786Y-44194863D01*
X101235446Y-46456340D02*
X100599050Y-45819944D01*
X100447527Y-45971467D01*
X100386918Y-46092685D01*
X100386918Y-46213903D01*
X100417223Y-46304817D01*
X100508136Y-46456340D01*
X100599050Y-46547253D01*
X100750573Y-46638167D01*
X100841487Y-46668472D01*
X100962705Y-46668472D01*
X101083923Y-46607863D01*
X101235446Y-46456340D01*
X100053568Y-46486644D02*
X99992959Y-46486644D01*
X99902045Y-46516949D01*
X99750522Y-46668472D01*
X99720217Y-46759386D01*
X99720217Y-46819995D01*
X99750522Y-46910908D01*
X99811131Y-46971518D01*
X99932349Y-47032127D01*
X100659659Y-47032127D01*
X100265700Y-47426086D01*
X101235446Y-48996340D02*
X100599050Y-48359944D01*
X100447527Y-48511467D01*
X100386918Y-48632685D01*
X100386918Y-48753903D01*
X100417223Y-48844817D01*
X100508136Y-48996340D01*
X100599050Y-49087253D01*
X100750573Y-49178167D01*
X100841487Y-49208472D01*
X100962705Y-49208472D01*
X101083923Y-49147863D01*
X101235446Y-48996340D01*
X100023263Y-48935731D02*
X99629304Y-49329690D01*
X100083872Y-49359995D01*
X99992959Y-49450908D01*
X99962654Y-49541822D01*
X99962654Y-49602431D01*
X99992959Y-49693345D01*
X100144481Y-49844868D01*
X100235395Y-49875172D01*
X100296004Y-49875172D01*
X100386918Y-49844868D01*
X100568746Y-49663040D01*
X100599050Y-49572127D01*
X100599050Y-49511518D01*
X101235446Y-51536340D02*
X100599050Y-50899944D01*
X100447527Y-51051467D01*
X100386918Y-51172685D01*
X100386918Y-51293903D01*
X100417223Y-51384817D01*
X100508136Y-51536340D01*
X100599050Y-51627253D01*
X100750573Y-51718167D01*
X100841487Y-51748472D01*
X100962705Y-51748472D01*
X101083923Y-51687863D01*
X101235446Y-51536340D01*
X99902045Y-52021213D02*
X100326309Y-52445477D01*
X99811131Y-51627253D02*
X100417223Y-51930299D01*
X100023263Y-52324259D01*
X101235446Y-54076340D02*
X100599050Y-53439944D01*
X100447527Y-53591467D01*
X100386918Y-53712685D01*
X100386918Y-53833903D01*
X100417223Y-53924817D01*
X100508136Y-54076340D01*
X100599050Y-54167253D01*
X100750573Y-54258167D01*
X100841487Y-54288472D01*
X100962705Y-54288472D01*
X101083923Y-54227863D01*
X101235446Y-54076340D01*
X99659608Y-54379386D02*
X99962654Y-54076340D01*
X100296004Y-54349081D01*
X100235395Y-54349081D01*
X100144481Y-54379386D01*
X99992959Y-54530908D01*
X99962654Y-54621822D01*
X99962654Y-54682431D01*
X99992959Y-54773345D01*
X100144481Y-54924868D01*
X100235395Y-54955172D01*
X100296004Y-54955172D01*
X100386918Y-54924868D01*
X100538441Y-54773345D01*
X100568746Y-54682431D01*
X100568746Y-54621822D01*
X101235446Y-56489340D02*
X100599050Y-55852944D01*
X100447527Y-56004467D01*
X100386918Y-56125685D01*
X100386918Y-56246903D01*
X100417223Y-56337817D01*
X100508136Y-56489340D01*
X100599050Y-56580253D01*
X100750573Y-56671167D01*
X100841487Y-56701472D01*
X100962705Y-56701472D01*
X101083923Y-56640863D01*
X101235446Y-56489340D01*
X99689913Y-56762081D02*
X99811131Y-56640863D01*
X99902045Y-56610558D01*
X99962654Y-56610558D01*
X100114177Y-56640863D01*
X100265700Y-56731776D01*
X100508136Y-56974213D01*
X100538441Y-57065127D01*
X100538441Y-57125736D01*
X100508136Y-57216650D01*
X100386918Y-57337868D01*
X100296004Y-57368172D01*
X100235395Y-57368172D01*
X100144481Y-57337868D01*
X99992959Y-57186345D01*
X99962654Y-57095431D01*
X99962654Y-57034822D01*
X99992959Y-56943908D01*
X100114177Y-56822690D01*
X100205091Y-56792386D01*
X100265700Y-56792386D01*
X100356613Y-56822690D01*
X101235446Y-59156340D02*
X100599050Y-58519944D01*
X100447527Y-58671467D01*
X100386918Y-58792685D01*
X100386918Y-58913903D01*
X100417223Y-59004817D01*
X100508136Y-59156340D01*
X100599050Y-59247253D01*
X100750573Y-59338167D01*
X100841487Y-59368472D01*
X100962705Y-59368472D01*
X101083923Y-59307863D01*
X101235446Y-59156340D01*
X100023263Y-59095731D02*
X99598999Y-59519995D01*
X100508136Y-59883650D01*
X101235446Y-61696340D02*
X100599050Y-61059944D01*
X100447527Y-61211467D01*
X100386918Y-61332685D01*
X100386918Y-61453903D01*
X100417223Y-61544817D01*
X100508136Y-61696340D01*
X100599050Y-61787253D01*
X100750573Y-61878167D01*
X100841487Y-61908472D01*
X100962705Y-61908472D01*
X101083923Y-61847863D01*
X101235446Y-61696340D01*
X100144481Y-62059995D02*
X100174786Y-61969081D01*
X100174786Y-61908472D01*
X100144481Y-61817558D01*
X100114177Y-61787253D01*
X100023263Y-61756949D01*
X99962654Y-61756949D01*
X99871740Y-61787253D01*
X99750522Y-61908472D01*
X99720217Y-61999386D01*
X99720217Y-62059995D01*
X99750522Y-62150908D01*
X99780827Y-62181213D01*
X99871740Y-62211518D01*
X99932349Y-62211518D01*
X100023263Y-62181213D01*
X100144481Y-62059995D01*
X100235395Y-62029690D01*
X100296004Y-62029690D01*
X100386918Y-62059995D01*
X100508136Y-62181213D01*
X100538441Y-62272127D01*
X100538441Y-62332736D01*
X100508136Y-62423650D01*
X100386918Y-62544868D01*
X100296004Y-62575172D01*
X100235395Y-62575172D01*
X100144481Y-62544868D01*
X100023263Y-62423650D01*
X99992959Y-62332736D01*
X99992959Y-62272127D01*
X100023263Y-62181213D01*
X101235446Y-64236340D02*
X100599050Y-63599944D01*
X100447527Y-63751467D01*
X100386918Y-63872685D01*
X100386918Y-63993903D01*
X100417223Y-64084817D01*
X100508136Y-64236340D01*
X100599050Y-64327253D01*
X100750573Y-64418167D01*
X100841487Y-64448472D01*
X100962705Y-64448472D01*
X101083923Y-64387863D01*
X101235446Y-64236340D01*
X100568746Y-64903040D02*
X100447527Y-65024259D01*
X100356613Y-65054563D01*
X100296004Y-65054563D01*
X100144481Y-65024259D01*
X99992959Y-64933345D01*
X99750522Y-64690908D01*
X99720217Y-64599995D01*
X99720217Y-64539386D01*
X99750522Y-64448472D01*
X99871740Y-64327253D01*
X99962654Y-64296949D01*
X100023263Y-64296949D01*
X100114177Y-64327253D01*
X100265700Y-64478776D01*
X100296004Y-64569690D01*
X100296004Y-64630299D01*
X100265700Y-64721213D01*
X100144481Y-64842431D01*
X100053568Y-64872736D01*
X99992959Y-64872736D01*
X99902045Y-64842431D01*
X101220294Y-66727516D02*
X100654608Y-66161830D01*
X100519921Y-66296517D01*
X100466047Y-66404267D01*
X100466047Y-66512016D01*
X100492984Y-66592829D01*
X100573796Y-66727516D01*
X100654608Y-66808328D01*
X100789296Y-66889140D01*
X100870108Y-66916078D01*
X100977857Y-66916078D01*
X101085607Y-66862203D01*
X101220294Y-66727516D01*
X100358297Y-67589513D02*
X100681546Y-67266264D01*
X100519921Y-67427888D02*
X99954236Y-66862203D01*
X100088923Y-66889140D01*
X100196673Y-66889140D01*
X100277485Y-66862203D01*
X99442425Y-67374013D02*
X99388551Y-67427888D01*
X99361613Y-67508700D01*
X99361613Y-67562575D01*
X99388551Y-67643387D01*
X99469363Y-67778074D01*
X99604050Y-67912761D01*
X99738737Y-67993574D01*
X99819549Y-68020511D01*
X99873424Y-68020511D01*
X99954236Y-67993574D01*
X100008111Y-67939699D01*
X100035048Y-67858887D01*
X100035048Y-67805012D01*
X100008111Y-67724200D01*
X99927299Y-67589513D01*
X99792612Y-67454826D01*
X99657925Y-67374013D01*
X99577112Y-67347076D01*
X99523238Y-67347076D01*
X99442425Y-67374013D01*
X101235446Y-69316340D02*
X100599050Y-68679944D01*
X100447527Y-68831467D01*
X100386918Y-68952685D01*
X100386918Y-69073903D01*
X100417223Y-69164817D01*
X100508136Y-69316340D01*
X100599050Y-69407253D01*
X100750573Y-69498167D01*
X100841487Y-69528472D01*
X100962705Y-69528472D01*
X101083923Y-69467863D01*
X101235446Y-69316340D01*
X100265700Y-70286086D02*
X100629355Y-69922431D01*
X100447527Y-70104259D02*
X99811131Y-69467863D01*
X99962654Y-69498167D01*
X100083872Y-69498167D01*
X100174786Y-69467863D01*
X99659608Y-70892178D02*
X100023263Y-70528523D01*
X99841436Y-70710350D02*
X99205040Y-70073954D01*
X99356562Y-70104259D01*
X99477781Y-70104259D01*
X99568695Y-70073954D01*
X119579857Y-73474000D02*
X120479857Y-73474000D01*
X120479857Y-73259714D01*
X120437000Y-73131142D01*
X120351285Y-73045428D01*
X120265571Y-73002571D01*
X120094142Y-72959714D01*
X119965571Y-72959714D01*
X119794142Y-73002571D01*
X119708428Y-73045428D01*
X119622714Y-73131142D01*
X119579857Y-73259714D01*
X119579857Y-73474000D01*
X119579857Y-72102571D02*
X119579857Y-72616857D01*
X119579857Y-72359714D02*
X120479857Y-72359714D01*
X120351285Y-72445428D01*
X120265571Y-72531142D01*
X120222714Y-72616857D01*
X120479857Y-71802571D02*
X120479857Y-71245428D01*
X120137000Y-71545428D01*
X120137000Y-71416857D01*
X120094142Y-71331142D01*
X120051285Y-71288285D01*
X119965571Y-71245428D01*
X119751285Y-71245428D01*
X119665571Y-71288285D01*
X119622714Y-71331142D01*
X119579857Y-71416857D01*
X119579857Y-71674000D01*
X119622714Y-71759714D01*
X119665571Y-71802571D01*
X120980086Y-70861873D02*
X121616482Y-70225477D01*
X121464959Y-70073954D01*
X121343741Y-70013345D01*
X121222523Y-70013345D01*
X121131609Y-70043650D01*
X120980086Y-70134563D01*
X120889172Y-70225477D01*
X120798259Y-70377000D01*
X120767954Y-70467914D01*
X120767954Y-70589132D01*
X120828563Y-70710350D01*
X120980086Y-70861873D01*
X120010340Y-69892127D02*
X120373995Y-70255782D01*
X120192167Y-70073954D02*
X120828563Y-69437558D01*
X120798259Y-69589081D01*
X120798259Y-69710299D01*
X120828563Y-69801213D01*
X119889121Y-68922380D02*
X119464857Y-69346644D01*
X120283081Y-68831467D02*
X119980035Y-69437558D01*
X119586076Y-69043599D01*
X120980086Y-68321873D02*
X121616482Y-67685477D01*
X121464959Y-67533954D01*
X121343741Y-67473345D01*
X121222523Y-67473345D01*
X121131609Y-67503650D01*
X120980086Y-67594563D01*
X120889172Y-67685477D01*
X120798259Y-67837000D01*
X120767954Y-67927914D01*
X120767954Y-68049132D01*
X120828563Y-68170350D01*
X120980086Y-68321873D01*
X120010340Y-67352127D02*
X120373995Y-67715782D01*
X120192167Y-67533954D02*
X120828563Y-66897558D01*
X120798259Y-67049081D01*
X120798259Y-67170299D01*
X120828563Y-67261213D01*
X120070949Y-66139944D02*
X120373995Y-66442989D01*
X120101253Y-66776340D01*
X120101253Y-66715731D01*
X120070949Y-66624817D01*
X119919426Y-66473294D01*
X119828512Y-66442989D01*
X119767903Y-66442989D01*
X119676989Y-66473294D01*
X119525467Y-66624817D01*
X119495162Y-66715731D01*
X119495162Y-66776340D01*
X119525467Y-66867253D01*
X119676989Y-67018776D01*
X119767903Y-67049081D01*
X119828512Y-67049081D01*
X120980086Y-65781873D02*
X121616482Y-65145477D01*
X121464959Y-64993954D01*
X121343741Y-64933345D01*
X121222523Y-64933345D01*
X121131609Y-64963650D01*
X120980086Y-65054563D01*
X120889172Y-65145477D01*
X120798259Y-65297000D01*
X120767954Y-65387914D01*
X120767954Y-65509132D01*
X120828563Y-65630350D01*
X120980086Y-65781873D01*
X120010340Y-64812127D02*
X120373995Y-65175782D01*
X120192167Y-64993954D02*
X120828563Y-64357558D01*
X120798259Y-64509081D01*
X120798259Y-64630299D01*
X120828563Y-64721213D01*
X120101253Y-63630248D02*
X120222472Y-63751467D01*
X120252776Y-63842380D01*
X120252776Y-63902989D01*
X120222472Y-64054512D01*
X120131558Y-64206035D01*
X119889121Y-64448472D01*
X119798208Y-64478776D01*
X119737599Y-64478776D01*
X119646685Y-64448472D01*
X119525467Y-64327253D01*
X119495162Y-64236340D01*
X119495162Y-64175731D01*
X119525467Y-64084817D01*
X119676989Y-63933294D01*
X119767903Y-63902989D01*
X119828512Y-63902989D01*
X119919426Y-63933294D01*
X120040644Y-64054512D01*
X120070949Y-64145426D01*
X120070949Y-64206035D01*
X120040644Y-64296949D01*
X120980086Y-63241873D02*
X121616482Y-62605477D01*
X121464959Y-62453954D01*
X121343741Y-62393345D01*
X121222523Y-62393345D01*
X121131609Y-62423650D01*
X120980086Y-62514563D01*
X120889172Y-62605477D01*
X120798259Y-62757000D01*
X120767954Y-62847914D01*
X120767954Y-62969132D01*
X120828563Y-63090350D01*
X120980086Y-63241873D01*
X120010340Y-62272127D02*
X120373995Y-62635782D01*
X120192167Y-62453954D02*
X120828563Y-61817558D01*
X120798259Y-61969081D01*
X120798259Y-62090299D01*
X120828563Y-62181213D01*
X120434604Y-61423599D02*
X120010340Y-60999334D01*
X119646685Y-61908472D01*
X120980086Y-60701873D02*
X121616482Y-60065477D01*
X121464959Y-59913954D01*
X121343741Y-59853345D01*
X121222523Y-59853345D01*
X121131609Y-59883650D01*
X120980086Y-59974563D01*
X120889172Y-60065477D01*
X120798259Y-60217000D01*
X120767954Y-60307914D01*
X120767954Y-60429132D01*
X120828563Y-60550350D01*
X120980086Y-60701873D01*
X120010340Y-59732127D02*
X120373995Y-60095782D01*
X120192167Y-59913954D02*
X120828563Y-59277558D01*
X120798259Y-59429081D01*
X120798259Y-59550299D01*
X120828563Y-59641213D01*
X120010340Y-59004817D02*
X120101253Y-59035121D01*
X120161863Y-59035121D01*
X120252776Y-59004817D01*
X120283081Y-58974512D01*
X120313386Y-58883599D01*
X120313386Y-58822989D01*
X120283081Y-58732076D01*
X120161863Y-58610857D01*
X120070949Y-58580553D01*
X120010340Y-58580553D01*
X119919426Y-58610857D01*
X119889121Y-58641162D01*
X119858817Y-58732076D01*
X119858817Y-58792685D01*
X119889121Y-58883599D01*
X120010340Y-59004817D01*
X120040644Y-59095731D01*
X120040644Y-59156340D01*
X120010340Y-59247253D01*
X119889121Y-59368472D01*
X119798208Y-59398776D01*
X119737599Y-59398776D01*
X119646685Y-59368472D01*
X119525467Y-59247253D01*
X119495162Y-59156340D01*
X119495162Y-59095731D01*
X119525467Y-59004817D01*
X119646685Y-58883599D01*
X119737599Y-58853294D01*
X119798208Y-58853294D01*
X119889121Y-58883599D01*
X120980086Y-58161873D02*
X121616482Y-57525477D01*
X121464959Y-57373954D01*
X121343741Y-57313345D01*
X121222523Y-57313345D01*
X121131609Y-57343650D01*
X120980086Y-57434563D01*
X120889172Y-57525477D01*
X120798259Y-57677000D01*
X120767954Y-57767914D01*
X120767954Y-57889132D01*
X120828563Y-58010350D01*
X120980086Y-58161873D01*
X120010340Y-57192127D02*
X120373995Y-57555782D01*
X120192167Y-57373954D02*
X120828563Y-56737558D01*
X120798259Y-56889081D01*
X120798259Y-57010299D01*
X120828563Y-57101213D01*
X119707294Y-56889081D02*
X119586076Y-56767863D01*
X119555771Y-56676949D01*
X119555771Y-56616340D01*
X119586076Y-56464817D01*
X119676989Y-56313294D01*
X119919426Y-56070857D01*
X120010340Y-56040553D01*
X120070949Y-56040553D01*
X120161863Y-56070857D01*
X120283081Y-56192076D01*
X120313386Y-56282989D01*
X120313386Y-56343599D01*
X120283081Y-56434512D01*
X120131558Y-56586035D01*
X120040644Y-56616340D01*
X119980035Y-56616340D01*
X119889121Y-56586035D01*
X119767903Y-56464817D01*
X119737599Y-56373903D01*
X119737599Y-56313294D01*
X119767903Y-56222380D01*
X120980086Y-55621873D02*
X121616482Y-54985477D01*
X121464959Y-54833954D01*
X121343741Y-54773345D01*
X121222523Y-54773345D01*
X121131609Y-54803650D01*
X120980086Y-54894563D01*
X120889172Y-54985477D01*
X120798259Y-55137000D01*
X120767954Y-55227914D01*
X120767954Y-55349132D01*
X120828563Y-55470350D01*
X120980086Y-55621873D01*
X120949782Y-54439995D02*
X120949782Y-54379386D01*
X120919477Y-54288472D01*
X120767954Y-54136949D01*
X120677040Y-54106644D01*
X120616431Y-54106644D01*
X120525518Y-54136949D01*
X120464908Y-54197558D01*
X120404299Y-54318776D01*
X120404299Y-55046086D01*
X120010340Y-54652127D01*
X120252776Y-53621771D02*
X120192167Y-53561162D01*
X120101253Y-53530857D01*
X120040644Y-53530857D01*
X119949731Y-53561162D01*
X119798208Y-53652076D01*
X119646685Y-53803599D01*
X119555771Y-53955121D01*
X119525467Y-54046035D01*
X119525467Y-54106644D01*
X119555771Y-54197558D01*
X119616380Y-54258167D01*
X119707294Y-54288472D01*
X119767903Y-54288472D01*
X119858817Y-54258167D01*
X120010340Y-54167253D01*
X120161863Y-54015731D01*
X120252776Y-53864208D01*
X120283081Y-53773294D01*
X120283081Y-53712685D01*
X120252776Y-53621771D01*
X120726086Y-53081873D02*
X121362482Y-52445477D01*
X121210959Y-52293954D01*
X121089741Y-52233345D01*
X120968523Y-52233345D01*
X120877609Y-52263650D01*
X120726086Y-52354563D01*
X120635172Y-52445477D01*
X120544259Y-52597000D01*
X120513954Y-52687914D01*
X120513954Y-52809132D01*
X120574563Y-52930350D01*
X120726086Y-53081873D01*
X120695782Y-51899995D02*
X120695782Y-51839386D01*
X120665477Y-51748472D01*
X120513954Y-51596949D01*
X120423040Y-51566644D01*
X120362431Y-51566644D01*
X120271518Y-51596949D01*
X120210908Y-51657558D01*
X120150299Y-51778776D01*
X120150299Y-52506086D01*
X119756340Y-52112127D01*
X119150248Y-51506035D02*
X119513903Y-51869690D01*
X119332076Y-51687863D02*
X119968472Y-51051467D01*
X119938167Y-51202989D01*
X119938167Y-51324208D01*
X119968472Y-51415121D01*
X120726086Y-50541873D02*
X121362482Y-49905477D01*
X121210959Y-49753954D01*
X121089741Y-49693345D01*
X120968523Y-49693345D01*
X120877609Y-49723650D01*
X120726086Y-49814563D01*
X120635172Y-49905477D01*
X120544259Y-50057000D01*
X120513954Y-50147914D01*
X120513954Y-50269132D01*
X120574563Y-50390350D01*
X120726086Y-50541873D01*
X120695782Y-49359995D02*
X120695782Y-49299386D01*
X120665477Y-49208472D01*
X120513954Y-49056949D01*
X120423040Y-49026644D01*
X120362431Y-49026644D01*
X120271518Y-49056949D01*
X120210908Y-49117558D01*
X120150299Y-49238776D01*
X120150299Y-49966086D01*
X119756340Y-49572127D01*
X120089690Y-48753903D02*
X120089690Y-48693294D01*
X120059386Y-48602380D01*
X119907863Y-48450857D01*
X119816949Y-48420553D01*
X119756340Y-48420553D01*
X119665426Y-48450857D01*
X119604817Y-48511467D01*
X119544208Y-48632685D01*
X119544208Y-49359995D01*
X119150248Y-48966035D01*
X120726086Y-48001873D02*
X121362482Y-47365477D01*
X121210959Y-47213954D01*
X121089741Y-47153345D01*
X120968523Y-47153345D01*
X120877609Y-47183650D01*
X120726086Y-47274563D01*
X120635172Y-47365477D01*
X120544259Y-47517000D01*
X120513954Y-47607914D01*
X120513954Y-47729132D01*
X120574563Y-47850350D01*
X120726086Y-48001873D01*
X120695782Y-46819995D02*
X120695782Y-46759386D01*
X120665477Y-46668472D01*
X120513954Y-46516949D01*
X120423040Y-46486644D01*
X120362431Y-46486644D01*
X120271518Y-46516949D01*
X120210908Y-46577558D01*
X120150299Y-46698776D01*
X120150299Y-47426086D01*
X119756340Y-47032127D01*
X120180604Y-46183599D02*
X119786644Y-45789639D01*
X119756340Y-46244208D01*
X119665426Y-46153294D01*
X119574512Y-46122989D01*
X119513903Y-46122989D01*
X119422989Y-46153294D01*
X119271467Y-46304817D01*
X119241162Y-46395731D01*
X119241162Y-46456340D01*
X119271467Y-46547253D01*
X119453294Y-46729081D01*
X119544208Y-46759386D01*
X119604817Y-46759386D01*
X-2956538Y-48080759D02*
X-2619821Y-48417477D01*
X-2821851Y-47811385D02*
X-3293256Y-48754194D01*
X-2350447Y-48282790D01*
X-2081073Y-48552164D02*
X-1946386Y-48686851D01*
X-1912714Y-48787866D01*
X-1912714Y-48855210D01*
X-1946386Y-49023568D01*
X-2047401Y-49191927D01*
X-2316775Y-49461301D01*
X-2417790Y-49494973D01*
X-2485134Y-49494973D01*
X-2586149Y-49461301D01*
X-2720836Y-49326614D01*
X-2754508Y-49225599D01*
X-2754508Y-49158255D01*
X-2720836Y-49057240D01*
X-2552477Y-48888881D01*
X-2451462Y-48855210D01*
X-2384119Y-48855210D01*
X-2283103Y-48888881D01*
X-2148416Y-49023568D01*
X-2114745Y-49124584D01*
X-2114745Y-49191927D01*
X-2148416Y-49292942D01*
X-1677012Y-50437782D02*
X-1373966Y-48922553D01*
X-700531Y-49932706D02*
X-1407638Y-50639812D01*
X-1239279Y-50808171D01*
X-1104592Y-50875515D01*
X-969905Y-50875515D01*
X-868890Y-50841843D01*
X-700531Y-50740828D01*
X-599516Y-50639812D01*
X-498501Y-50471454D01*
X-464829Y-50370438D01*
X-464829Y-50235751D01*
X-532172Y-50101064D01*
X-700531Y-49932706D01*
X-666859Y-51245904D02*
X-666859Y-51313247D01*
X-633188Y-51414263D01*
X-464829Y-51582621D01*
X-363814Y-51616293D01*
X-296470Y-51616293D01*
X-195455Y-51582621D01*
X-128111Y-51515278D01*
X-60768Y-51380591D01*
X-60768Y-50572469D01*
X376965Y-51010202D01*
X-94440Y-51953011D02*
X343293Y-52390743D01*
X376965Y-51885667D01*
X477980Y-51986682D01*
X578995Y-52020354D01*
X646339Y-52020354D01*
X747354Y-51986682D01*
X915713Y-51818324D01*
X949385Y-51717308D01*
X949385Y-51649965D01*
X915713Y-51548950D01*
X713682Y-51346919D01*
X612667Y-51313247D01*
X545324Y-51313247D01*
X-2956538Y-50620759D02*
X-2619821Y-50957477D01*
X-2821851Y-50351385D02*
X-3293256Y-51294194D01*
X-2350447Y-50822790D01*
X-2417790Y-51563568D02*
X-2518806Y-51529897D01*
X-2586149Y-51529897D01*
X-2687164Y-51563568D01*
X-2720836Y-51597240D01*
X-2754508Y-51698255D01*
X-2754508Y-51765599D01*
X-2720836Y-51866614D01*
X-2586149Y-52001301D01*
X-2485134Y-52034973D01*
X-2417790Y-52034973D01*
X-2316775Y-52001301D01*
X-2283103Y-51967629D01*
X-2249432Y-51866614D01*
X-2249432Y-51799271D01*
X-2283103Y-51698255D01*
X-2417790Y-51563568D01*
X-2451462Y-51462553D01*
X-2451462Y-51395210D01*
X-2417790Y-51294194D01*
X-2283103Y-51159507D01*
X-2182088Y-51125836D01*
X-2114745Y-51125836D01*
X-2013729Y-51159507D01*
X-1879042Y-51294194D01*
X-1845371Y-51395210D01*
X-1845371Y-51462553D01*
X-1879042Y-51563568D01*
X-2013729Y-51698255D01*
X-2114745Y-51731927D01*
X-2182088Y-51731927D01*
X-2283103Y-51698255D01*
X-1677012Y-52977782D02*
X-1373966Y-51462553D01*
X-700531Y-52472706D02*
X-1407638Y-53179812D01*
X-1239279Y-53348171D01*
X-1104592Y-53415515D01*
X-969905Y-53415515D01*
X-868890Y-53381843D01*
X-700531Y-53280828D01*
X-599516Y-53179812D01*
X-498501Y-53011454D01*
X-464829Y-52910438D01*
X-464829Y-52775751D01*
X-532172Y-52641064D01*
X-700531Y-52472706D01*
X-666859Y-53785904D02*
X-666859Y-53853247D01*
X-633188Y-53954263D01*
X-464829Y-54122621D01*
X-363814Y-54156293D01*
X-296470Y-54156293D01*
X-195455Y-54122621D01*
X-128111Y-54055278D01*
X-60768Y-53920591D01*
X-60768Y-53112469D01*
X376965Y-53550202D01*
X6576Y-54459339D02*
X6576Y-54526682D01*
X40247Y-54627698D01*
X208606Y-54796056D01*
X309621Y-54829728D01*
X376965Y-54829728D01*
X477980Y-54796056D01*
X545324Y-54728713D01*
X612667Y-54594026D01*
X612667Y-53785904D01*
X1050400Y-54223637D01*
X-2788180Y-52992400D02*
X-2653493Y-53059744D01*
X-2485134Y-53228103D01*
X-2451462Y-53329118D01*
X-2451462Y-53396462D01*
X-2485134Y-53497477D01*
X-2552477Y-53564820D01*
X-2653493Y-53598492D01*
X-2720836Y-53598492D01*
X-2821851Y-53564820D01*
X-2990210Y-53463805D01*
X-3091225Y-53430133D01*
X-3158569Y-53430133D01*
X-3259584Y-53463805D01*
X-3326928Y-53531149D01*
X-3360600Y-53632164D01*
X-3360600Y-53699507D01*
X-3326928Y-53800523D01*
X-3158569Y-53968881D01*
X-3023882Y-54036225D01*
X-1710684Y-54137240D02*
X-1710684Y-54069897D01*
X-1778027Y-53935210D01*
X-1845371Y-53867866D01*
X-1980058Y-53800523D01*
X-2114745Y-53800523D01*
X-2215760Y-53834194D01*
X-2384119Y-53935210D01*
X-2485134Y-54036225D01*
X-2586149Y-54204584D01*
X-2619821Y-54305599D01*
X-2619821Y-54440286D01*
X-2552477Y-54574973D01*
X-2485134Y-54642316D01*
X-2350447Y-54709660D01*
X-2283103Y-54709660D01*
X-1003577Y-54709660D02*
X-1340294Y-54372942D01*
X-2047401Y-55080049D01*
X-2788180Y-55532400D02*
X-2653493Y-55599744D01*
X-2485134Y-55768103D01*
X-2451462Y-55869118D01*
X-2451462Y-55936462D01*
X-2485134Y-56037477D01*
X-2552477Y-56104820D01*
X-2653493Y-56138492D01*
X-2720836Y-56138492D01*
X-2821851Y-56104820D01*
X-2990210Y-56003805D01*
X-3091225Y-55970133D01*
X-3158569Y-55970133D01*
X-3259584Y-56003805D01*
X-3326928Y-56071149D01*
X-3360600Y-56172164D01*
X-3360600Y-56239507D01*
X-3326928Y-56340523D01*
X-3158569Y-56508881D01*
X-3023882Y-56576225D01*
X-2047401Y-56205836D02*
X-2754508Y-56912942D01*
X-2586149Y-57081301D01*
X-2451462Y-57148645D01*
X-2316775Y-57148645D01*
X-2215760Y-57114973D01*
X-2047401Y-57013958D01*
X-1946386Y-56912942D01*
X-1845371Y-56744584D01*
X-1811699Y-56643568D01*
X-1811699Y-56508881D01*
X-1879042Y-56374194D01*
X-2047401Y-56205836D01*
X-1575997Y-57081301D02*
X-1239279Y-57418019D01*
X-1441310Y-56811927D02*
X-1912714Y-57754736D01*
X-969905Y-57283332D01*
X-2788180Y-58072400D02*
X-2653493Y-58139744D01*
X-2485134Y-58308103D01*
X-2451462Y-58409118D01*
X-2451462Y-58476462D01*
X-2485134Y-58577477D01*
X-2552477Y-58644820D01*
X-2653493Y-58678492D01*
X-2720836Y-58678492D01*
X-2821851Y-58644820D01*
X-2990210Y-58543805D01*
X-3091225Y-58510133D01*
X-3158569Y-58510133D01*
X-3259584Y-58543805D01*
X-3326928Y-58611149D01*
X-3360600Y-58712164D01*
X-3360600Y-58779507D01*
X-3326928Y-58880523D01*
X-3158569Y-59048881D01*
X-3023882Y-59116225D01*
X-1710684Y-59217240D02*
X-1710684Y-59149897D01*
X-1778027Y-59015210D01*
X-1845371Y-58947866D01*
X-1980058Y-58880523D01*
X-2114745Y-58880523D01*
X-2215760Y-58914194D01*
X-2384119Y-59015210D01*
X-2485134Y-59116225D01*
X-2586149Y-59284584D01*
X-2619821Y-59385599D01*
X-2619821Y-59520286D01*
X-2552477Y-59654973D01*
X-2485134Y-59722316D01*
X-2350447Y-59789660D01*
X-2283103Y-59789660D01*
X-1340294Y-59452942D02*
X-2047401Y-60160049D01*
X-936233Y-59857003D02*
X-1643340Y-59958019D01*
X-1643340Y-60564110D02*
X-1643340Y-59755988D01*
X-2720836Y-60612400D02*
X-3427943Y-61319507D01*
X-3259584Y-61487866D01*
X-3124897Y-61555210D01*
X-2990210Y-61555210D01*
X-2889195Y-61521538D01*
X-2720836Y-61420523D01*
X-2619821Y-61319507D01*
X-2518806Y-61151149D01*
X-2485134Y-61050133D01*
X-2485134Y-60915446D01*
X-2552477Y-60780759D01*
X-2720836Y-60612400D01*
X-1643340Y-61689897D02*
X-2047401Y-61285836D01*
X-1845371Y-61487866D02*
X-2552477Y-62194973D01*
X-2518806Y-62026614D01*
X-2518806Y-61891927D01*
X-2552477Y-61790912D01*
X-1912714Y-62834736D02*
X-1845371Y-62902080D01*
X-1744355Y-62935751D01*
X-1677012Y-62935751D01*
X-1575997Y-62902080D01*
X-1407638Y-62801064D01*
X-1239279Y-62632706D01*
X-1138264Y-62464347D01*
X-1104592Y-62363332D01*
X-1104592Y-62295988D01*
X-1138264Y-62194973D01*
X-1205607Y-62127629D01*
X-1306623Y-62093958D01*
X-1373966Y-62093958D01*
X-1474981Y-62127629D01*
X-1643340Y-62228645D01*
X-1811699Y-62397003D01*
X-1912714Y-62565362D01*
X-1946386Y-62666377D01*
X-1946386Y-62733721D01*
X-1912714Y-62834736D01*
X-902562Y-63912232D02*
X-599516Y-62397003D01*
X410637Y-63878560D02*
X410637Y-63811217D01*
X343293Y-63676530D01*
X275950Y-63609186D01*
X141263Y-63541843D01*
X6576Y-63541843D01*
X-94440Y-63575515D01*
X-262798Y-63676530D01*
X-363814Y-63777545D01*
X-464829Y-63945904D01*
X-498501Y-64046919D01*
X-498501Y-64181606D01*
X-431157Y-64316293D01*
X-363814Y-64383637D01*
X-229127Y-64450980D01*
X-161783Y-64450980D01*
X713682Y-64114263D02*
X848369Y-64181606D01*
X1016728Y-64349965D01*
X1050400Y-64450980D01*
X1050400Y-64518324D01*
X1016728Y-64619339D01*
X949385Y-64686682D01*
X848369Y-64720354D01*
X781026Y-64720354D01*
X680011Y-64686682D01*
X511652Y-64585667D01*
X410637Y-64551995D01*
X343293Y-64551995D01*
X242278Y-64585667D01*
X174934Y-64653011D01*
X141263Y-64754026D01*
X141263Y-64821369D01*
X174934Y-64922385D01*
X343293Y-65090743D01*
X477980Y-65158087D01*
X-2720836Y-63152400D02*
X-3427943Y-63859507D01*
X-2687164Y-63590133D01*
X-2956538Y-64330912D01*
X-2249432Y-63623805D01*
X-2485134Y-64802316D02*
X-2350447Y-64937003D01*
X-2249432Y-64970675D01*
X-2114745Y-64970675D01*
X-1946386Y-64869660D01*
X-1710684Y-64633958D01*
X-1609668Y-64465599D01*
X-1609668Y-64330912D01*
X-1643340Y-64229897D01*
X-1778027Y-64095210D01*
X-1879042Y-64061538D01*
X-2013729Y-64061538D01*
X-2182088Y-64162553D01*
X-2417790Y-64398255D01*
X-2518806Y-64566614D01*
X-2518806Y-64701301D01*
X-2485134Y-64802316D01*
X-1239279Y-64701301D02*
X-1104592Y-64768645D01*
X-936233Y-64937003D01*
X-902562Y-65038019D01*
X-902562Y-65105362D01*
X-936233Y-65206377D01*
X-1003577Y-65273721D01*
X-1104592Y-65307393D01*
X-1171936Y-65307393D01*
X-1272951Y-65273721D01*
X-1441310Y-65172706D01*
X-1542325Y-65139034D01*
X-1609668Y-65139034D01*
X-1710684Y-65172706D01*
X-1778027Y-65240049D01*
X-1811699Y-65341064D01*
X-1811699Y-65408408D01*
X-1778027Y-65509423D01*
X-1609668Y-65677782D01*
X-1474981Y-65745125D01*
X-498501Y-65374736D02*
X-1205607Y-66081843D01*
X-2720836Y-65692400D02*
X-3427943Y-66399507D01*
X-2687164Y-66130133D01*
X-2956538Y-66870912D01*
X-2249432Y-66163805D01*
X-1912714Y-66500523D02*
X-2619821Y-67207629D01*
X-1643340Y-66837240D02*
X-1508653Y-66904584D01*
X-1340294Y-67072942D01*
X-1306623Y-67173958D01*
X-1306623Y-67241301D01*
X-1340294Y-67342316D01*
X-1407638Y-67409660D01*
X-1508653Y-67443332D01*
X-1575997Y-67443332D01*
X-1677012Y-67409660D01*
X-1845371Y-67308645D01*
X-1946386Y-67274973D01*
X-2013729Y-67274973D01*
X-2114745Y-67308645D01*
X-2182088Y-67375988D01*
X-2215760Y-67477003D01*
X-2215760Y-67544347D01*
X-2182088Y-67645362D01*
X-2013729Y-67813721D01*
X-1879042Y-67881064D01*
X-1474981Y-68352469D02*
X-1340294Y-68487156D01*
X-1239279Y-68520828D01*
X-1104592Y-68520828D01*
X-936233Y-68419812D01*
X-700531Y-68184110D01*
X-599516Y-68015751D01*
X-599516Y-67881064D01*
X-633188Y-67780049D01*
X-767875Y-67645362D01*
X-868890Y-67611690D01*
X-1003577Y-67611690D01*
X-1171936Y-67712706D01*
X-1407638Y-67948408D01*
X-1508653Y-68116767D01*
X-1508653Y-68251454D01*
X-1474981Y-68352469D01*
D12*
X128035000Y-81340000D02*
X130575000Y-78800000D01*
X-4260000Y-81280000D02*
X-6800000Y-78740000D01*
X128035000Y-81340000D02*
X-4260000Y-81280000D01*
X130575000Y-36540000D02*
X130575000Y-78800000D01*
X-6825000Y-36540000D02*
X-6800000Y-78740000D01*
M02*
