M48
; DRILL file {KiCad (5.1.9-0-10_14)} date Friday, February 12, 2021 at 01:01:29 PM
; FORMAT={-:-/ absolute / metric / decimal}
; #@! TF.CreationDate,2021-02-12T13:01:29+01:00
; #@! TF.GenerationSoftware,Kicad,Pcbnew,(5.1.9-0-10_14)
; #@! TF.FileFunction,Plated,1,2,PTH
FMAT,2
METRIC
T1C0.330
T2C1.000
T3C1.100
T4C2.500
%
G90
G05
T1
X33.375Y-48.14
X97.975Y-58.34
X120.175Y-71.14
X121.775Y-67.34
T2
X-4.825Y-48.48
X-4.825Y-51.02
X-4.825Y-53.56
X-4.825Y-56.1
X-4.825Y-58.64
X-4.825Y-61.18
X-4.825Y-63.72
X-4.825Y-66.26
X3.783Y-41.74
X7.375Y-45.332
X13.175Y-41.94
X16.767Y-45.532
X22.975Y-41.948
X26.567Y-45.54
X32.583Y-41.948
X36.175Y-45.54
X42.183Y-41.748
X45.775Y-45.34
X51.575Y-41.94
X55.167Y-45.532
X61.183Y-41.748
X64.775Y-45.34
X70.775Y-41.74
X74.367Y-45.332
X80.183Y-41.948
X83.775Y-45.54
X89.783Y-41.748
X93.375Y-45.34
X100.175Y-38.94
X102.715Y-41.48
X102.715Y-44.02
X102.715Y-46.56
X102.715Y-49.1
X102.715Y-51.64
X102.715Y-54.18
X102.715Y-56.72
X102.715Y-59.26
X102.715Y-61.8
X102.715Y-64.34
X102.715Y-66.88
X102.715Y-69.42
X102.715Y-71.96
X102.715Y-74.5
X105.255Y-38.94
X105.255Y-41.48
X105.255Y-44.02
X105.255Y-46.56
X105.255Y-49.1
X105.255Y-51.64
X105.255Y-54.18
X105.255Y-56.72
X105.255Y-59.26
X105.255Y-61.8
X105.255Y-64.34
X105.255Y-66.88
X105.255Y-69.42
X105.255Y-71.96
X105.255Y-74.5
X107.795Y-38.94
X107.795Y-41.48
X107.795Y-44.02
X107.795Y-46.56
X107.795Y-49.1
X107.795Y-51.64
X107.795Y-54.18
X107.795Y-56.72
X107.795Y-59.26
X107.795Y-61.8
X107.795Y-64.34
X107.795Y-66.88
X107.795Y-69.42
X107.795Y-71.96
X107.795Y-74.5
X110.335Y-38.94
X110.335Y-41.48
X110.335Y-44.02
X110.335Y-46.56
X110.335Y-49.1
X110.335Y-51.64
X110.335Y-54.18
X110.335Y-56.72
X110.335Y-59.26
X110.335Y-61.8
X110.335Y-64.34
X110.335Y-66.88
X110.335Y-69.42
X110.335Y-71.96
X110.335Y-74.5
X112.875Y-38.94
X112.875Y-41.48
X112.875Y-44.02
X112.875Y-46.56
X112.875Y-49.1
X112.875Y-51.64
X112.875Y-54.18
X112.875Y-56.72
X112.875Y-59.26
X112.875Y-61.8
X112.875Y-64.34
X112.875Y-66.88
X112.875Y-69.42
X112.875Y-71.96
X112.875Y-74.5
X115.415Y-38.94
X115.415Y-41.48
X115.415Y-44.02
X115.415Y-46.56
X115.415Y-49.1
X115.415Y-51.64
X115.415Y-54.18
X115.415Y-56.72
X115.415Y-59.26
X115.415Y-61.8
X115.415Y-64.34
X115.415Y-66.88
X115.415Y-69.42
X115.415Y-71.96
X115.415Y-74.5
X117.955Y-38.94
X117.955Y-41.48
X117.955Y-44.02
X117.955Y-46.56
X117.955Y-49.1
X117.955Y-51.64
X117.955Y-54.18
X117.955Y-56.72
X117.955Y-59.26
X117.955Y-61.8
X117.955Y-64.34
X117.955Y-66.88
X117.955Y-69.42
X117.955Y-71.96
X117.955Y-74.5
X120.495Y-38.94
X120.495Y-41.48
X120.495Y-44.02
T3
X3.074Y-50.8
X3.074Y-57.3
X3.175Y-60.96
X3.175Y-67.46
X3.175Y-71.12
X3.175Y-77.62
X7.574Y-50.8
X7.574Y-57.3
X7.675Y-60.96
X7.675Y-67.46
X7.675Y-71.12
X7.675Y-77.62
X12.599Y-50.8
X12.599Y-57.3
X12.7Y-60.96
X12.7Y-67.46
X12.7Y-71.12
X12.7Y-77.62
X17.099Y-50.8
X17.099Y-57.3
X17.2Y-60.96
X17.2Y-67.46
X17.2Y-71.12
X17.2Y-77.62
X22.225Y-60.96
X22.225Y-67.46
X22.225Y-71.12
X22.225Y-77.62
X22.324Y-50.8
X22.324Y-57.3
X26.725Y-60.96
X26.725Y-67.46
X26.725Y-71.12
X26.725Y-77.62
X26.824Y-50.8
X26.824Y-57.3
X31.75Y-60.96
X31.75Y-67.46
X31.75Y-71.12
X31.75Y-77.62
X31.849Y-50.8
X31.849Y-57.3
X36.25Y-60.96
X36.25Y-67.46
X36.25Y-71.12
X36.25Y-77.62
X36.349Y-50.8
X36.349Y-57.3
X41.275Y-60.96
X41.275Y-67.46
X41.275Y-71.12
X41.275Y-77.62
X41.374Y-50.8
X41.374Y-57.3
X45.775Y-60.96
X45.775Y-67.46
X45.775Y-71.12
X45.775Y-77.62
X45.874Y-50.8
X45.874Y-57.3
X50.8Y-60.96
X50.8Y-67.46
X50.8Y-71.12
X50.8Y-77.62
X50.899Y-50.8
X50.899Y-57.3
X55.3Y-60.96
X55.3Y-67.46
X55.3Y-71.12
X55.3Y-77.62
X55.399Y-50.8
X55.399Y-57.3
X60.325Y-60.96
X60.325Y-67.46
X60.325Y-71.12
X60.325Y-77.62
X60.424Y-50.8
X60.424Y-57.3
X64.825Y-60.96
X64.825Y-67.46
X64.825Y-71.12
X64.825Y-77.62
X64.924Y-50.8
X64.924Y-57.3
X69.85Y-60.96
X69.85Y-67.46
X69.85Y-71.12
X69.85Y-77.62
X69.949Y-50.8
X69.949Y-57.3
X74.35Y-60.96
X74.35Y-67.46
X74.35Y-71.12
X74.35Y-77.62
X74.449Y-50.8
X74.449Y-57.3
X79.375Y-60.96
X79.375Y-67.46
X79.375Y-71.12
X79.375Y-77.62
X79.474Y-50.8
X79.474Y-57.3
X83.875Y-60.96
X83.875Y-67.46
X83.875Y-71.12
X83.875Y-77.62
X83.974Y-50.8
X83.974Y-57.3
X88.9Y-60.96
X88.9Y-67.46
X88.9Y-71.12
X88.9Y-77.62
X88.975Y-50.64
X88.975Y-57.14
X93.4Y-60.96
X93.4Y-67.46
X93.4Y-71.12
X93.4Y-77.62
X93.475Y-50.64
X93.475Y-57.14
X102.715Y-38.94
T4
X-2.825Y-40.54
X-2.825Y-77.14
X126.375Y-40.74
X126.375Y-77.54
T0
M30
