%TF.GenerationSoftware,KiCad,Pcbnew,(5.1.9-0-10_14)*%
%TF.CreationDate,2021-02-12T13:00:48+01:00*%
%TF.ProjectId,teensythumbboard,7465656e-7379-4746-9875-6d62626f6172,1.1*%
%TF.SameCoordinates,PX68290a0PY463f660*%
%TF.FileFunction,Soldermask,Top*%
%TF.FilePolarity,Negative*%
%FSLAX46Y46*%
G04 Gerber Fmt 4.6, Leading zero omitted, Abs format (unit mm)*
G04 Created by KiCad (PCBNEW (5.1.9-0-10_14)) date 2021-02-12 13:00:48*
%MOMM*%
%LPD*%
G01*
G04 APERTURE LIST*
%TA.AperFunction,Profile*%
%ADD10C,0.150000*%
%TD*%
%ADD11C,2.101600*%
%ADD12C,1.801600*%
%ADD13C,3.301600*%
%ADD14O,1.801600X1.801600*%
G04 APERTURE END LIST*
D10*
X-6825000Y-36540000D02*
X130575000Y-36540000D01*
X128035000Y-81340000D02*
X130575000Y-78800000D01*
X-4260000Y-81280000D02*
X-6800000Y-78740000D01*
X128035000Y-81340000D02*
X-4260000Y-81280000D01*
X130575000Y-36540000D02*
X130575000Y-78800000D01*
X-6825000Y-36540000D02*
X-6800000Y-78740000D01*
X-6825000Y-36540000D02*
X130575000Y-36540000D01*
X128035000Y-81340000D02*
X130575000Y-78800000D01*
X-4260000Y-81280000D02*
X-6800000Y-78740000D01*
X128035000Y-81340000D02*
X-4260000Y-81280000D01*
X130575000Y-36540000D02*
X130575000Y-78800000D01*
X-6825000Y-36540000D02*
X-6800000Y-78740000D01*
D11*
X26824000Y-57300000D03*
X22324000Y-57300000D03*
X26824000Y-50800000D03*
X22324000Y-50800000D03*
G36*
G01*
X54424074Y-44789074D02*
X54424074Y-44789074D01*
G75*
G02*
X55910130Y-44789074I743028J-743028D01*
G01*
X55910130Y-44789074D01*
G75*
G02*
X55910130Y-46275130I-743028J-743028D01*
G01*
X55910130Y-46275130D01*
G75*
G02*
X54424074Y-46275130I-743028J743028D01*
G01*
X54424074Y-46275130D01*
G75*
G02*
X54424074Y-44789074I743028J743028D01*
G01*
G37*
G36*
G01*
X50524200Y-42940000D02*
X50524200Y-40940000D01*
G75*
G02*
X50575000Y-40889200I50800J0D01*
G01*
X52575000Y-40889200D01*
G75*
G02*
X52625800Y-40940000I0J-50800D01*
G01*
X52625800Y-42940000D01*
G75*
G02*
X52575000Y-42990800I-50800J0D01*
G01*
X50575000Y-42990800D01*
G75*
G02*
X50524200Y-42940000I0J50800D01*
G01*
G37*
G36*
G01*
X73624074Y-44589074D02*
X73624074Y-44589074D01*
G75*
G02*
X75110130Y-44589074I743028J-743028D01*
G01*
X75110130Y-44589074D01*
G75*
G02*
X75110130Y-46075130I-743028J-743028D01*
G01*
X75110130Y-46075130D01*
G75*
G02*
X73624074Y-46075130I-743028J743028D01*
G01*
X73624074Y-46075130D01*
G75*
G02*
X73624074Y-44589074I743028J743028D01*
G01*
G37*
G36*
G01*
X69724200Y-42740000D02*
X69724200Y-40740000D01*
G75*
G02*
X69775000Y-40689200I50800J0D01*
G01*
X71775000Y-40689200D01*
G75*
G02*
X71825800Y-40740000I0J-50800D01*
G01*
X71825800Y-42740000D01*
G75*
G02*
X71775000Y-42790800I-50800J0D01*
G01*
X69775000Y-42790800D01*
G75*
G02*
X69724200Y-42740000I0J50800D01*
G01*
G37*
X64924000Y-57300000D03*
X60424000Y-57300000D03*
X64924000Y-50800000D03*
X60424000Y-50800000D03*
G36*
G01*
X60132098Y-42747898D02*
X60132098Y-40747898D01*
G75*
G02*
X60182898Y-40697098I50800J0D01*
G01*
X62182898Y-40697098D01*
G75*
G02*
X62233698Y-40747898I0J-50800D01*
G01*
X62233698Y-42747898D01*
G75*
G02*
X62182898Y-42798698I-50800J0D01*
G01*
X60182898Y-42798698D01*
G75*
G02*
X60132098Y-42747898I0J50800D01*
G01*
G37*
G36*
G01*
X64031972Y-44596972D02*
X64031972Y-44596972D01*
G75*
G02*
X65518028Y-44596972I743028J-743028D01*
G01*
X65518028Y-44596972D01*
G75*
G02*
X65518028Y-46083028I-743028J-743028D01*
G01*
X65518028Y-46083028D01*
G75*
G02*
X64031972Y-46083028I-743028J743028D01*
G01*
X64031972Y-46083028D01*
G75*
G02*
X64031972Y-44596972I743028J743028D01*
G01*
G37*
X83875000Y-67460000D03*
X79375000Y-67460000D03*
X83875000Y-60960000D03*
X79375000Y-60960000D03*
X7675000Y-67460000D03*
X3175000Y-67460000D03*
X7675000Y-60960000D03*
X3175000Y-60960000D03*
D12*
X120495000Y-44020000D03*
X120495000Y-41480000D03*
X120495000Y-38940000D03*
G36*
G01*
X101915000Y-38089200D02*
X103515000Y-38089200D01*
G75*
G02*
X103565800Y-38140000I0J-50800D01*
G01*
X103565800Y-39740000D01*
G75*
G02*
X103515000Y-39790800I-50800J0D01*
G01*
X101915000Y-39790800D01*
G75*
G02*
X101864200Y-39740000I0J50800D01*
G01*
X101864200Y-38140000D01*
G75*
G02*
X101915000Y-38089200I50800J0D01*
G01*
G37*
X102715000Y-41480000D03*
X102715000Y-44020000D03*
X102715000Y-46560000D03*
X102715000Y-49100000D03*
X102715000Y-51640000D03*
X102715000Y-54180000D03*
X102715000Y-56720000D03*
X102715000Y-59260000D03*
X102715000Y-61800000D03*
X102715000Y-64340000D03*
X102715000Y-66880000D03*
X102715000Y-69420000D03*
X117955000Y-38940000D03*
X117955000Y-41480000D03*
X117955000Y-44020000D03*
X117955000Y-46560000D03*
X117955000Y-49100000D03*
X117955000Y-51640000D03*
X117955000Y-54180000D03*
X117955000Y-56720000D03*
X117955000Y-59260000D03*
X117955000Y-61800000D03*
X117955000Y-64340000D03*
X117955000Y-66880000D03*
X117955000Y-69420000D03*
X102715000Y-71960000D03*
X117955000Y-71960000D03*
X105255000Y-38940000D03*
X105255000Y-41480000D03*
X107795000Y-41480000D03*
X107795000Y-44020000D03*
X105255000Y-44020000D03*
X105255000Y-61800000D03*
X105255000Y-64340000D03*
X105255000Y-69420000D03*
X105255000Y-49100000D03*
X105255000Y-59260000D03*
X105255000Y-51640000D03*
X105255000Y-71960000D03*
X105255000Y-54180000D03*
X105255000Y-66880000D03*
X105255000Y-56720000D03*
X105255000Y-46560000D03*
X115415000Y-56720000D03*
X115415000Y-64340000D03*
X115415000Y-46560000D03*
X115415000Y-44020000D03*
X115415000Y-61800000D03*
X115415000Y-59260000D03*
X115415000Y-51640000D03*
X115415000Y-71960000D03*
X115415000Y-69420000D03*
X115415000Y-66880000D03*
X115415000Y-54180000D03*
X115415000Y-41480000D03*
X115415000Y-38940000D03*
X115415000Y-49100000D03*
X107795000Y-46560000D03*
X107795000Y-49100000D03*
X107795000Y-51640000D03*
X107795000Y-54180000D03*
X107795000Y-56720000D03*
X107795000Y-59260000D03*
X107795000Y-61800000D03*
X107795000Y-64340000D03*
X107795000Y-66880000D03*
X107795000Y-69420000D03*
X107795000Y-71960000D03*
X107795000Y-38940000D03*
X110335000Y-51640000D03*
X110335000Y-41480000D03*
X110335000Y-49100000D03*
X110335000Y-54180000D03*
X110335000Y-44020000D03*
X110335000Y-46560000D03*
X110335000Y-61800000D03*
X110335000Y-59260000D03*
X110335000Y-66880000D03*
X110335000Y-69420000D03*
X110335000Y-38940000D03*
X110335000Y-64340000D03*
X110335000Y-71960000D03*
X110335000Y-56720000D03*
X112875000Y-49100000D03*
X112875000Y-44020000D03*
X112875000Y-61800000D03*
X112875000Y-38940000D03*
X112875000Y-69420000D03*
X112875000Y-59260000D03*
X112875000Y-41480000D03*
X112875000Y-66880000D03*
X112875000Y-54180000D03*
X112875000Y-71960000D03*
X112875000Y-56720000D03*
X112875000Y-64340000D03*
X112875000Y-51640000D03*
X112875000Y-46560000D03*
X117955000Y-74500000D03*
X102715000Y-74500000D03*
X115415000Y-74500000D03*
X110335000Y-74500000D03*
X112875000Y-74500000D03*
X105255000Y-74500000D03*
X107795000Y-74500000D03*
D11*
X50899000Y-50800000D03*
X55399000Y-50800000D03*
X50899000Y-57300000D03*
X55399000Y-57300000D03*
X45874000Y-57300000D03*
X41374000Y-57300000D03*
X45874000Y-50800000D03*
X41374000Y-50800000D03*
G36*
G01*
X99324200Y-39740000D02*
X99324200Y-38140000D01*
G75*
G02*
X99375000Y-38089200I50800J0D01*
G01*
X100975000Y-38089200D01*
G75*
G02*
X101025800Y-38140000I0J-50800D01*
G01*
X101025800Y-39740000D01*
G75*
G02*
X100975000Y-39790800I-50800J0D01*
G01*
X99375000Y-39790800D01*
G75*
G02*
X99324200Y-39740000I0J50800D01*
G01*
G37*
G36*
G01*
X2732098Y-42740000D02*
X2732098Y-40740000D01*
G75*
G02*
X2782898Y-40689200I50800J0D01*
G01*
X4782898Y-40689200D01*
G75*
G02*
X4833698Y-40740000I0J-50800D01*
G01*
X4833698Y-42740000D01*
G75*
G02*
X4782898Y-42790800I-50800J0D01*
G01*
X2782898Y-42790800D01*
G75*
G02*
X2732098Y-42740000I0J50800D01*
G01*
G37*
G36*
G01*
X6631972Y-44589074D02*
X6631972Y-44589074D01*
G75*
G02*
X8118028Y-44589074I743028J-743028D01*
G01*
X8118028Y-44589074D01*
G75*
G02*
X8118028Y-46075130I-743028J-743028D01*
G01*
X8118028Y-46075130D01*
G75*
G02*
X6631972Y-46075130I-743028J743028D01*
G01*
X6631972Y-46075130D01*
G75*
G02*
X6631972Y-44589074I743028J743028D01*
G01*
G37*
G36*
G01*
X16024074Y-44789074D02*
X16024074Y-44789074D01*
G75*
G02*
X17510130Y-44789074I743028J-743028D01*
G01*
X17510130Y-44789074D01*
G75*
G02*
X17510130Y-46275130I-743028J-743028D01*
G01*
X17510130Y-46275130D01*
G75*
G02*
X16024074Y-46275130I-743028J743028D01*
G01*
X16024074Y-46275130D01*
G75*
G02*
X16024074Y-44789074I743028J743028D01*
G01*
G37*
G36*
G01*
X12124200Y-42940000D02*
X12124200Y-40940000D01*
G75*
G02*
X12175000Y-40889200I50800J0D01*
G01*
X14175000Y-40889200D01*
G75*
G02*
X14225800Y-40940000I0J-50800D01*
G01*
X14225800Y-42940000D01*
G75*
G02*
X14175000Y-42990800I-50800J0D01*
G01*
X12175000Y-42990800D01*
G75*
G02*
X12124200Y-42940000I0J50800D01*
G01*
G37*
G36*
G01*
X21924200Y-42947898D02*
X21924200Y-40947898D01*
G75*
G02*
X21975000Y-40897098I50800J0D01*
G01*
X23975000Y-40897098D01*
G75*
G02*
X24025800Y-40947898I0J-50800D01*
G01*
X24025800Y-42947898D01*
G75*
G02*
X23975000Y-42998698I-50800J0D01*
G01*
X21975000Y-42998698D01*
G75*
G02*
X21924200Y-42947898I0J50800D01*
G01*
G37*
G36*
G01*
X25824074Y-44796972D02*
X25824074Y-44796972D01*
G75*
G02*
X27310130Y-44796972I743028J-743028D01*
G01*
X27310130Y-44796972D01*
G75*
G02*
X27310130Y-46283028I-743028J-743028D01*
G01*
X27310130Y-46283028D01*
G75*
G02*
X25824074Y-46283028I-743028J743028D01*
G01*
X25824074Y-46283028D01*
G75*
G02*
X25824074Y-44796972I743028J743028D01*
G01*
G37*
G36*
G01*
X35431972Y-44796972D02*
X35431972Y-44796972D01*
G75*
G02*
X36918028Y-44796972I743028J-743028D01*
G01*
X36918028Y-44796972D01*
G75*
G02*
X36918028Y-46283028I-743028J-743028D01*
G01*
X36918028Y-46283028D01*
G75*
G02*
X35431972Y-46283028I-743028J743028D01*
G01*
X35431972Y-46283028D01*
G75*
G02*
X35431972Y-44796972I743028J743028D01*
G01*
G37*
G36*
G01*
X31532098Y-42947898D02*
X31532098Y-40947898D01*
G75*
G02*
X31582898Y-40897098I50800J0D01*
G01*
X33582898Y-40897098D01*
G75*
G02*
X33633698Y-40947898I0J-50800D01*
G01*
X33633698Y-42947898D01*
G75*
G02*
X33582898Y-42998698I-50800J0D01*
G01*
X31582898Y-42998698D01*
G75*
G02*
X31532098Y-42947898I0J50800D01*
G01*
G37*
G36*
G01*
X45031972Y-44596972D02*
X45031972Y-44596972D01*
G75*
G02*
X46518028Y-44596972I743028J-743028D01*
G01*
X46518028Y-44596972D01*
G75*
G02*
X46518028Y-46083028I-743028J-743028D01*
G01*
X46518028Y-46083028D01*
G75*
G02*
X45031972Y-46083028I-743028J743028D01*
G01*
X45031972Y-46083028D01*
G75*
G02*
X45031972Y-44596972I743028J743028D01*
G01*
G37*
G36*
G01*
X41132098Y-42747898D02*
X41132098Y-40747898D01*
G75*
G02*
X41182898Y-40697098I50800J0D01*
G01*
X43182898Y-40697098D01*
G75*
G02*
X43233698Y-40747898I0J-50800D01*
G01*
X43233698Y-42747898D01*
G75*
G02*
X43182898Y-42798698I-50800J0D01*
G01*
X41182898Y-42798698D01*
G75*
G02*
X41132098Y-42747898I0J50800D01*
G01*
G37*
G36*
G01*
X83031972Y-44796972D02*
X83031972Y-44796972D01*
G75*
G02*
X84518028Y-44796972I743028J-743028D01*
G01*
X84518028Y-44796972D01*
G75*
G02*
X84518028Y-46283028I-743028J-743028D01*
G01*
X84518028Y-46283028D01*
G75*
G02*
X83031972Y-46283028I-743028J743028D01*
G01*
X83031972Y-46283028D01*
G75*
G02*
X83031972Y-44796972I743028J743028D01*
G01*
G37*
G36*
G01*
X79132098Y-42947898D02*
X79132098Y-40947898D01*
G75*
G02*
X79182898Y-40897098I50800J0D01*
G01*
X81182898Y-40897098D01*
G75*
G02*
X81233698Y-40947898I0J-50800D01*
G01*
X81233698Y-42947898D01*
G75*
G02*
X81182898Y-42998698I-50800J0D01*
G01*
X79182898Y-42998698D01*
G75*
G02*
X79132098Y-42947898I0J50800D01*
G01*
G37*
G36*
G01*
X92631972Y-44596972D02*
X92631972Y-44596972D01*
G75*
G02*
X94118028Y-44596972I743028J-743028D01*
G01*
X94118028Y-44596972D01*
G75*
G02*
X94118028Y-46083028I-743028J-743028D01*
G01*
X94118028Y-46083028D01*
G75*
G02*
X92631972Y-46083028I-743028J743028D01*
G01*
X92631972Y-46083028D01*
G75*
G02*
X92631972Y-44596972I743028J743028D01*
G01*
G37*
G36*
G01*
X88732098Y-42747898D02*
X88732098Y-40747898D01*
G75*
G02*
X88782898Y-40697098I50800J0D01*
G01*
X90782898Y-40697098D01*
G75*
G02*
X90833698Y-40747898I0J-50800D01*
G01*
X90833698Y-42747898D01*
G75*
G02*
X90782898Y-42798698I-50800J0D01*
G01*
X88782898Y-42798698D01*
G75*
G02*
X88732098Y-42747898I0J50800D01*
G01*
G37*
X7574000Y-57300000D03*
X3074000Y-57300000D03*
X7574000Y-50800000D03*
X3074000Y-50800000D03*
X12599000Y-50800000D03*
X17099000Y-50800000D03*
X12599000Y-57300000D03*
X17099000Y-57300000D03*
X31849000Y-50800000D03*
X36349000Y-50800000D03*
X31849000Y-57300000D03*
X36349000Y-57300000D03*
X74449000Y-57300000D03*
X69949000Y-57300000D03*
X74449000Y-50800000D03*
X69949000Y-50800000D03*
X83974000Y-57300000D03*
X79474000Y-57300000D03*
X83974000Y-50800000D03*
X79474000Y-50800000D03*
X93475000Y-57140000D03*
X88975000Y-57140000D03*
X93475000Y-50640000D03*
X88975000Y-50640000D03*
X17200000Y-67460000D03*
X12700000Y-67460000D03*
X17200000Y-60960000D03*
X12700000Y-60960000D03*
X26725000Y-67460000D03*
X22225000Y-67460000D03*
X26725000Y-60960000D03*
X22225000Y-60960000D03*
X36250000Y-67460000D03*
X31750000Y-67460000D03*
X36250000Y-60960000D03*
X31750000Y-60960000D03*
X45775000Y-67460000D03*
X41275000Y-67460000D03*
X45775000Y-60960000D03*
X41275000Y-60960000D03*
X55300000Y-67460000D03*
X50800000Y-67460000D03*
X55300000Y-60960000D03*
X50800000Y-60960000D03*
X64825000Y-67460000D03*
X60325000Y-67460000D03*
X64825000Y-60960000D03*
X60325000Y-60960000D03*
X74350000Y-67460000D03*
X69850000Y-67460000D03*
X74350000Y-60960000D03*
X69850000Y-60960000D03*
X93400000Y-67460000D03*
X88900000Y-67460000D03*
X93400000Y-60960000D03*
X88900000Y-60960000D03*
D13*
X-2825000Y-77140000D03*
X126375000Y-77540000D03*
X-2825000Y-40540000D03*
D11*
X7675000Y-77620000D03*
X3175000Y-77620000D03*
X7675000Y-71120000D03*
X3175000Y-71120000D03*
X17200000Y-77620000D03*
X12700000Y-77620000D03*
X17200000Y-71120000D03*
X12700000Y-71120000D03*
X26725000Y-77620000D03*
X22225000Y-77620000D03*
X26725000Y-71120000D03*
X22225000Y-71120000D03*
X36250000Y-77620000D03*
X31750000Y-77620000D03*
X36250000Y-71120000D03*
X31750000Y-71120000D03*
X45775000Y-77620000D03*
X41275000Y-77620000D03*
X45775000Y-71120000D03*
X41275000Y-71120000D03*
X55300000Y-77620000D03*
X50800000Y-77620000D03*
X55300000Y-71120000D03*
X50800000Y-71120000D03*
X64825000Y-77620000D03*
X60325000Y-77620000D03*
X64825000Y-71120000D03*
X60325000Y-71120000D03*
X74350000Y-77620000D03*
X69850000Y-77620000D03*
X74350000Y-71120000D03*
X69850000Y-71120000D03*
X83875000Y-77620000D03*
X79375000Y-77620000D03*
X83875000Y-71120000D03*
X79375000Y-71120000D03*
X93400000Y-77620000D03*
X88900000Y-77620000D03*
X93400000Y-71120000D03*
X88900000Y-71120000D03*
D13*
X126375000Y-40740000D03*
D14*
X-4825000Y-66260000D03*
X-4825000Y-63720000D03*
X-4825000Y-61180000D03*
X-4825000Y-58640000D03*
X-4825000Y-56100000D03*
X-4825000Y-53560000D03*
X-4825000Y-51020000D03*
D12*
X-4825000Y-48480000D03*
M02*
